<?xml version="1.0" encoding="UTF-8"?>
<svg id="Camada_1" data-name="Camada 1" xmlns="http://www.w3.org/2000/svg" viewBox="0 0 756.5 192.61">
  <defs>
    <style>
      .cls-1 {
        fill: #e5e5e5;
      }

      .cls-1, .cls-2 {
        stroke-width: 0px;
      }

      .cls-2 {
        fill: #0031ff;
      }
    </style>
  </defs>
  <path class="cls-1" d="m175.2,194.09c-14.85,0-27.21-2.76-37.07-8.29-9.69-5.39-16.96-14.29-20.3-24.88-3.71-10.95-4.2-24.34-1.46-40.17.38-1.56.83-3.67,1.31-6.3.37-2.14.93-4.25,1.66-6.3,3.39-14.04,9.59-27.25,18.21-38.84,8.1-10.65,18.65-19.19,30.76-24.88,12.62-5.86,26.39-8.82,40.3-8.66,16.41,0,29.34,3.37,38.81,10.12,9.39,6.63,16.1,16.41,18.91,27.56,3.12,11.64,3.12,24.99,0,40.03l-1.18,6.75c-.42,2-1.57,3.77-3.21,4.97-1.66,1.34-3.73,2.06-5.87,2.06h-95.52c-.02.35-.07.69-.15,1.03-.09.46-.24.9-.45,1.31-.98,5.68-.98,11.49,0,17.16.71,4.99,3.28,9.53,7.19,12.71,3.91,3.18,8.87,4.77,13.9,4.44,7.7.18,15.23-2.33,21.29-7.08,2-1.55,3.91-3.21,5.72-4.98,1.47-1.46,3.14-2.69,4.97-3.66,1.7-.56,3.48-.81,5.27-.73h30.44c.81-.05,1.62.07,2.38.35.76.29,1.44.73,2.02,1.3.5.63.82,1.39.92,2.19.1.8,0,1.61-.32,2.35-.79,3.13-3.18,7-7.19,11.61-4.76,5.23-10.24,9.77-16.26,13.48-7.54,4.71-15.67,8.41-24.18,11-10.02,3.02-20.44,4.48-30.91,4.33h0Zm-8.8-93.53h57.49v-.58c1.73-5.96,1.98-12.25.73-18.33-1.04-4.79-3.67-9.08-7.47-12.17-4.24-3.1-9.41-4.66-14.65-4.41-5.77-.07-11.45,1.45-16.41,4.41-4.97,3.02-9.15,7.2-12.16,12.17-3.43,5.68-5.95,11.86-7.47,18.33l-.05.58Z"/>
  <path class="cls-1" d="m279.22,192.6c-.89.04-1.77-.13-2.58-.49-.81-.36-1.53-.89-2.11-1.57-.6-.73-1.01-1.58-1.22-2.5-.21-.92-.19-1.87.04-2.78l29.31-137.92c.39-2.12,1.58-4.02,3.32-5.29,1.57-1.29,3.54-2.01,5.57-2.04h27.25c.87-.05,1.73.12,2.52.47.79.35,1.48.89,2.03,1.57.55.75.92,1.62,1.1,2.53.18.91.15,1.86-.07,2.76l-2.05,9.96c3.48-3.68,7.25-7.07,11.29-10.12,4.27-3.18,9.02-5.66,14.07-7.34,6.08-1.96,12.45-2.89,18.83-2.77,11.34,0,20.57,2.25,27.7,6.74,7.05,4.42,12.29,11.21,14.79,19.15,5.87-7.47,13.08-13.79,21.25-18.64,8.7-4.95,18.58-7.43,28.58-7.19,9.55-.26,18.98,2.12,27.26,6.89,7.82,4.8,13.64,12.29,16.36,21.06,3.22,9.49,3.26,21.66.13,36.51l-17.87,83.63c-.35,2.08-1.45,3.95-3.08,5.28-1.5,1.32-3.42,2.05-5.42,2.06h-29.01c-.89.04-1.77-.13-2.58-.49-.81-.36-1.53-.89-2.11-1.57-.6-.73-1.01-1.58-1.22-2.5-.2-.92-.19-1.87.04-2.78l17.59-81.32c1.56-8.01,1.8-14.32.73-18.92-.33-1.98-1.07-3.87-2.15-5.56-1.08-1.69-2.49-3.15-4.15-4.28-3.66-2.08-7.82-3.09-12.02-2.92-4.36.1-8.64,1.1-12.6,2.92-4.84,2.23-9.07,5.61-12.32,9.84-3.71,4.59-6.35,10.9-7.91,18.92l-17.59,81.32c-.34,2.05-1.37,3.91-2.93,5.28-1.53,1.36-3.52,2.1-5.57,2.06h-28.81c-.91.07-1.83-.09-2.67-.44-.84-.36-1.59-.91-2.17-1.61-.55-.75-.92-1.61-1.1-2.53-.18-.91-.14-1.85.09-2.75l17.29-81.32c1.76-8.01,2.05-14.32.88-18.92-.4-2-1.19-3.9-2.32-5.59-1.14-1.69-2.6-3.14-4.31-4.25-3.53-2.03-7.54-3.04-11.61-2.92-4.47.08-8.87,1.13-12.9,3.07-4.78,2.27-8.95,5.64-12.17,9.84-4.05,5.47-6.81,11.78-8.07,18.47l-17.29,81.59c-.34,2.08-1.43,3.96-3.07,5.28-1.5,1.32-3.43,2.05-5.42,2.06l-29.54.07Z"/>
  <path class="cls-1" d="m589.67,194.09c-8.7.21-17.34-1.44-25.35-4.83-6.85-2.99-12.69-7.88-16.86-14.09-4.28-6.65-7.04-14.17-8.06-22.01-1.25-9.42-1.01-18.98.73-28.32.58-3.72,1.21-7.1,1.91-10.13.7-3.02,1.41-6.32,2.2-9.84,2.35-9.66,5.78-19.01,10.24-27.89,4.08-8.09,9.42-15.47,15.83-21.86,6.27-6.17,13.69-11.06,21.83-14.38,8.92-3.55,18.46-5.31,28.07-5.16,12.16,0,21.34,1.81,27.55,5.43,5.84,3.24,10.85,7.78,14.65,13.28l1.76-8.52c.36-2.07,1.45-3.95,3.08-5.28,1.51-1.31,3.43-2.04,5.42-2.06h27.85c.91-.06,1.83.09,2.67.45.84.36,1.59.91,2.17,1.61.54.75.91,1.62,1.09,2.53.17.91.15,1.85-.08,2.75l-29.31,137.96c-.33,2.05-1.37,3.92-2.93,5.28-1.53,1.36-3.51,2.09-5.55,2.06h-27.85c-.91.06-1.83-.09-2.67-.45s-1.59-.91-2.17-1.61c-.55-.75-.92-1.61-1.1-2.53-.18-.91-.15-1.85.07-2.75l2.06-9.96c-5.71,5.76-12.23,10.66-19.35,14.54-7.08,3.85-16.39,5.78-27.92,5.78Zm16.71-35.21c6.65.21,13.23-1.52,18.92-4.98,5.07-3.23,9.38-7.54,12.6-12.62,3.21-5.08,5.63-10.62,7.18-16.43.97-3.72,1.85-7.44,2.64-11.15.78-3.72,1.48-7.34,2.06-10.87.98-5.09.98-10.32,0-15.41-.89-4.63-3.32-8.82-6.9-11.89-3.61-3.12-8.94-4.69-15.97-4.7-6.22-.18-12.34,1.51-17.59,4.85-4.94,3.27-9.05,7.64-12.02,12.77-3.19,5.42-5.66,11.25-7.33,17.31-.78,2.94-1.58,5.98-2.35,9.1-.75,3-1.34,6.04-1.76,9.1-.77,5.73-.92,11.53-.45,17.3.27,4.82,2.31,9.36,5.72,12.77,3.33,3.22,8.41,4.84,15.25,4.85v.02Z"/>
  <path class="cls-2" d="m729.08,192.61c14.32,0,25.92-11.65,25.92-26.03s-11.61-26.03-25.92-26.03-25.92,11.65-25.92,26.03,11.61,26.03,25.92,26.03Z"/>
  <path class="cls-1" d="m102.21,40.08h-36.02c-.08,0-.16-.02-.23-.05-.07-.03-.13-.08-.18-.15-.05-.06-.08-.13-.1-.21-.02-.08-.02-.16,0-.23l7.33-33.66c.15-.69.14-1.41-.02-2.1-.16-.69-.48-1.34-.92-1.89-.44-.55-1.01-1-1.64-1.31C69.79.17,69.09,0,68.38,0h-30.71c-1.92,0-3.77.65-5.26,1.86-1.48,1.21-2.51,2.9-2.89,4.77l-7.12,33.44-7.37,34.57L1.88,136.29c-2.56,12.71-2.51,23.26.15,31.67,1.21,4.05,3.26,7.8,6.01,11.01,2.75,3.21,6.15,5.81,9.97,7.62,8.01,4.01,18.67,6.02,31.99,6.02h22.58c2.05.03,4.03-.71,5.57-2.06,1.56-1.37,2.6-3.23,2.94-5.27l4.7-21.71c.21-.85.23-1.74.05-2.6-.18-.86-.55-1.67-1.08-2.37-.54-.68-1.23-1.22-2.02-1.58-.79-.36-1.66-.52-2.52-.48h-22.3c-5.1,0-8.67-.93-10.7-2.79-1.08-1.07-1.91-2.38-2.42-3.81-.51-1.44-.69-2.97-.52-4.48.2-4.29.75-8.56,1.66-12.76l12.14-57.58c.02-.12.09-.23.19-.31.1-.08.22-.11.34-.11h35.74c2.34.06,4.61-.73,6.42-2.21,1.54-1.31,2.57-3.13,2.9-5.13l4.11-19.91c.22-.89.26-1.82.11-2.73-.15-.91-.49-1.77-.99-2.55-.55-.71-1.26-1.28-2.08-1.65-.82-.37-1.72-.53-2.61-.46h0Z"/>
</svg>