<?xml version="1.0" encoding="UTF-8"?>
<svg id="Camada_1" data-name="Camada 1" xmlns="http://www.w3.org/2000/svg" viewBox="0 0 147 193">
  <defs>
    <style>
      .cls-1 {
        opacity: .5;
      }

      .cls-1, .cls-2 {
        fill: #fff;
        stroke-width: 0px;
      }
    </style>
  </defs>
  <path class="cls-1" d="m78.5,193c37.83,0,68.5-30.67,68.5-68.5s-30.67-68.5-68.5-68.5S10,86.67,10,124.5s30.67,68.5,68.5,68.5Z"/>
  <path class="cls-2" d="m102.21,40.08h-36.02c-.08,0-.16-.02-.23-.05-.07-.03-.13-.08-.18-.15-.05-.06-.08-.13-.1-.21-.02-.08-.02-.16,0-.23l7.33-33.66c.15-.69.14-1.41-.02-2.1-.16-.69-.48-1.34-.92-1.89-.44-.55-1.01-1-1.64-1.31C69.79.17,69.09,0,68.38,0h-30.71c-1.92,0-3.77.65-5.26,1.86-1.48,1.21-2.51,2.9-2.89,4.77l-7.12,33.44-7.37,34.57L1.88,136.29c-2.56,12.71-2.51,23.26.15,31.67,1.21,4.05,3.26,7.8,6.01,11.01,2.75,3.21,6.15,5.81,9.97,7.62,8.01,4.01,18.67,6.02,31.99,6.02h22.58c2.05.03,4.03-.71,5.57-2.06,1.56-1.37,2.6-3.23,2.94-5.27l4.7-21.71c.21-.85.23-1.74.05-2.6-.18-.86-.55-1.67-1.08-2.37-.54-.68-1.23-1.22-2.02-1.58-.79-.36-1.66-.52-2.52-.48h-22.3c-5.1,0-8.67-.93-10.7-2.79-1.08-1.07-1.91-2.38-2.42-3.81-.51-1.44-.69-2.97-.52-4.48.2-4.29.75-8.56,1.66-12.76l12.14-57.58c.02-.12.09-.23.19-.31.1-.08.22-.11.34-.11h35.74c2.34.06,4.61-.73,6.42-2.21,1.54-1.31,2.57-3.13,2.9-5.13l4.11-19.91c.22-.89.26-1.82.11-2.73-.15-.91-.49-1.77-.99-2.55-.55-.71-1.26-1.28-2.08-1.65-.82-.37-1.72-.53-2.61-.46h0Z"/>
</svg>