<svg width="173" height="142" viewBox="0 0 173 142" fill="none" xmlns="http://www.w3.org/2000/svg">
<path d="M87.892 81.8782L81.631 65.5688C81.631 65.5688 101.243 73.4779 112.775 51.561C112.775 51.561 121.507 32.9427 103.875 18.9423C103.875 18.9423 86.902 5.59421 69.6 21.5811C69.6 21.5811 59.3794 32.4516 62.8399 45.6383C66.3 58.8178 77.012 84.0259 77.012 84.0259C77.012 84.0259 62.0187 87.6469 53.1182 65.7374C53.1182 65.7374 43.118 41.7827 54.2106 13.7232C65.311 -14.3362 98.765 8.73147 106.507 12.3525C106.507 12.3525 133.861 26.3603 131.881 43.6592C129.902 60.9582 116.558 72.8182 87.884 81.8855L87.892 81.8782Z" fill="white"/>
<path d="M88.877 56.338C97.704 56.338 104.86 49.1837 104.86 40.3585C104.86 31.5332 97.704 24.3789 88.877 24.3789C80.05 24.3789 72.895 31.5332 72.895 40.3585C72.895 49.1837 80.05 56.338 88.877 56.338Z" fill="white"/>
<path d="M0.880204 117.486C0.601604 117.486 0.381706 117.39 0.213006 117.192C0.0444061 117.002 -0.00689591 116.753 0.0444041 116.445L5.7777 89.4627C5.8364 89.1622 5.983 88.913 6.2323 88.7151C6.4815 88.5245 6.74551 88.4219 7.02411 88.4219H18.0654C19.7517 88.4219 21.284 88.6125 22.655 89.001C24.026 89.3894 25.1697 89.9832 26.0788 90.7895C26.9953 91.5958 27.6258 92.5927 27.9923 93.8021C28.3516 95.0043 28.3663 96.4116 28.0363 98.0169C27.3472 101.198 25.9395 103.551 23.8207 105.076C21.7019 106.6 18.8572 107.355 15.2867 107.355H9.6854L7.7719 116.445C7.7132 116.753 7.5739 117.002 7.3393 117.192C7.1047 117.383 6.8334 117.486 6.5328 117.486H0.887506H0.880204ZM10.7632 101.631H15.536C16.6724 101.631 17.6915 101.323 18.5859 100.714C19.4877 100.106 20.0743 99.1751 20.3529 97.9363C20.4922 97.2179 20.5215 96.5802 20.4335 96.0305C20.3529 95.4807 20.0669 95.0336 19.583 94.7037C19.0992 94.3739 18.3587 94.2053 17.3616 94.2053H12.3761L10.7558 101.638L10.7632 101.631Z" fill="white"/>
<path d="M35.717 117.893C34.39 117.893 33.217 117.68 32.2052 117.248C31.1935 116.823 30.387 116.185 29.7785 115.342C29.17 114.499 28.7667 113.473 28.5761 112.271C28.3855 111.069 28.4075 109.691 28.6568 108.144C28.7667 107.594 28.862 107.103 28.95 106.671C29.0307 106.238 29.1406 105.762 29.2799 105.241C29.6392 103.746 30.1377 102.404 30.7756 101.217C31.4134 100.03 32.1759 99.0033 33.0557 98.1457C33.9428 97.2881 34.9692 96.6284 36.1496 96.1739C37.3227 95.7194 38.6203 95.4922 40.0353 95.4922C41.7216 95.4922 43.0046 95.7341 43.8771 96.2179C44.7495 96.7017 45.446 97.3027 45.9739 98.0211L46.1792 96.9435C46.2378 96.6357 46.3771 96.3938 46.6118 96.1959C46.8464 96.0053 47.1176 95.9027 47.4182 95.9027H52.0664C52.345 95.9027 52.565 95.998 52.7336 96.1959C52.9022 96.3865 52.9536 96.6357 52.9022 96.9435L48.7892 116.456C48.7306 116.764 48.5839 117.013 48.3347 117.204C48.0854 117.394 47.8215 117.497 47.5429 117.497H42.8507C42.5721 117.497 42.3521 117.402 42.1835 117.204C42.0149 117.013 41.9635 116.764 42.0149 116.456L42.3081 115.129C41.4503 115.936 40.5266 116.595 39.5441 117.123C38.5617 117.651 37.2787 117.915 35.7024 117.915L35.717 117.893ZM38.5837 112.329C39.5221 112.329 40.3139 112.131 40.9518 111.728C41.5896 111.325 42.1175 110.812 42.5281 110.174C42.946 109.537 43.2319 108.848 43.4005 108.1C43.5692 107.55 43.7011 107.022 43.7964 106.524C43.8917 106.025 43.9797 105.512 44.0677 104.985C44.207 104.296 44.2143 103.651 44.0897 103.057C43.9651 102.463 43.6718 101.979 43.2172 101.605C42.7627 101.232 42.0882 101.048 41.2011 101.048C40.3139 101.048 39.6101 101.239 39.0016 101.627C38.3931 102.016 37.9019 102.544 37.5279 103.203C37.154 103.863 36.8461 104.603 36.5968 105.402C36.4869 105.82 36.3769 106.245 36.2669 106.693C36.1569 107.132 36.0763 107.565 36.0176 107.983C35.9077 108.789 35.8857 109.522 35.959 110.182C36.025 110.849 36.2669 111.369 36.6848 111.758C37.1027 112.146 37.7332 112.337 38.5984 112.337L38.5837 112.329Z" fill="white"/>
<path d="M54.5223 117.485C54.2144 117.485 53.9798 117.39 53.8185 117.192C53.6499 117.001 53.5986 116.752 53.6499 116.444L57.7996 96.9315C57.8582 96.653 58.0048 96.4111 58.2541 96.2058C58.5034 96.0006 58.782 95.898 59.0826 95.898H63.8554C64.156 95.898 64.391 96.0006 64.537 96.2058C64.691 96.4111 64.735 96.653 64.684 96.9315L64.354 98.5881C65.021 97.7598 65.85 97.1001 66.847 96.6163C67.844 96.1325 69.076 95.8906 70.542 95.8906H72.91C73.189 95.8906 73.401 95.9859 73.555 96.1838C73.709 96.3744 73.753 96.6236 73.702 96.9315L72.829 101.205C72.771 101.483 72.624 101.725 72.375 101.931C72.125 102.136 71.847 102.238 71.546 102.238H67.521C66.385 102.238 65.446 102.554 64.699 103.169C63.9507 103.792 63.4522 104.672 63.2029 105.808L60.9228 116.437C60.8641 116.745 60.7248 116.994 60.4902 117.184C60.2556 117.375 59.9844 117.478 59.6838 117.478H54.537L54.5223 117.485Z" fill="white"/>
<path d="M82.7129 117.896C80.5499 117.896 78.7459 117.5 77.2949 116.716C75.8429 115.932 74.8459 114.744 74.3029 113.168C73.7609 111.592 73.7019 109.657 74.1199 107.356C74.1789 107.165 74.2299 106.916 74.2889 106.608C74.3469 106.3 74.3989 106.066 74.4569 105.904C75.0069 103.72 75.8939 101.843 77.1109 100.282C78.3279 98.7208 79.8239 97.526 81.5979 96.7124C83.3719 95.8988 85.3229 95.4883 87.4559 95.4883C89.8899 95.4883 91.8039 95.9721 93.1889 96.9396C94.5749 97.9072 95.4909 99.2193 95.9529 100.883C96.4079 102.547 96.4009 104.438 95.9309 106.571L95.7629 107.568C95.6819 107.876 95.5129 108.125 95.2639 108.316C95.0149 108.506 94.7359 108.609 94.4359 108.609H81.1879C81.1879 108.609 81.1879 108.675 81.1659 108.734C81.1509 108.792 81.1289 108.844 81.0999 108.902C80.9599 109.709 80.9459 110.442 81.0559 111.101C81.1659 111.768 81.4439 112.289 81.8839 112.677C82.3239 113.066 82.9249 113.256 83.6729 113.256C84.2009 113.256 84.6699 113.168 85.0879 112.985C85.5059 112.802 85.8649 112.597 86.1659 112.362C86.4739 112.128 86.7159 111.93 86.9139 111.761C87.2209 111.482 87.4559 111.314 87.6169 111.241C87.7859 111.175 88.0349 111.138 88.3649 111.138H93.5119C93.7909 111.138 93.9959 111.211 94.1349 111.365C94.2739 111.519 94.3039 111.732 94.2159 112.01C94.0759 112.479 93.7249 113.051 93.1599 113.711C92.5949 114.378 91.8109 115.03 90.8139 115.683C89.8169 116.335 88.6439 116.863 87.2869 117.281C85.9309 117.698 84.4059 117.904 82.7199 117.904L82.7129 117.896ZM82.0449 104.49H89.0619L89.1059 104.409C89.2959 103.522 89.3179 102.745 89.1639 102.085C89.0099 101.418 88.7169 100.913 88.2699 100.546C87.8299 100.187 87.2289 100.004 86.4879 100.004C85.7479 100.004 85.0659 100.187 84.4719 100.546C83.8779 100.905 83.3799 101.418 82.9759 102.085C82.5729 102.752 82.2649 103.522 82.0449 104.409V104.49Z" fill="white"/>
<path d="M105.177 117.897C103.821 117.897 102.64 117.684 101.629 117.252C100.617 116.827 99.803 116.189 99.18 115.346C98.557 114.503 98.146 113.477 97.956 112.275C97.765 111.073 97.772 109.695 98 108.148C98.11 107.598 98.212 107.107 98.308 106.675C98.403 106.242 98.52 105.766 98.659 105.245C99.019 103.75 99.517 102.408 100.155 101.221C100.793 100.034 101.555 99.0073 102.435 98.1497C103.322 97.2921 104.334 96.6324 105.463 96.1779C106.6 95.7234 107.861 95.4962 109.239 95.4962C110.617 95.4962 111.856 95.7234 112.853 96.1779C113.85 96.6324 114.598 97.2261 115.097 97.9444L117.003 89.0604C117.062 88.7599 117.201 88.5106 117.436 88.3127C117.67 88.1222 117.927 88.0195 118.205 88.0195H123.272C123.579 88.0195 123.814 88.1148 123.975 88.3127C124.144 88.5033 124.195 88.7525 124.144 89.0604L118.286 116.46C118.227 116.768 118.088 117.017 117.853 117.208C117.619 117.398 117.348 117.501 117.047 117.501H112.399C112.091 117.501 111.856 117.406 111.695 117.208C111.526 117.017 111.475 116.768 111.526 116.46L111.82 115.133C110.991 115.94 110.067 116.599 109.056 117.127C108.044 117.655 106.753 117.919 105.177 117.919V117.897ZM108.044 112.333C108.96 112.333 109.745 112.135 110.412 111.732C111.079 111.329 111.614 110.816 112.032 110.178C112.45 109.541 112.751 108.852 112.949 108.104C113.088 107.554 113.213 107.026 113.323 106.528C113.433 106.029 113.528 105.516 113.616 104.989C113.726 104.3 113.711 103.655 113.572 103.061C113.433 102.467 113.139 101.983 112.677 101.609C112.223 101.236 111.548 101.052 110.661 101.052C109.774 101.052 109.019 101.243 108.396 101.631C107.773 102.02 107.267 102.548 106.878 103.207C106.49 103.874 106.174 104.607 105.925 105.406C105.815 105.824 105.712 106.249 105.617 106.697C105.522 107.136 105.441 107.569 105.39 107.987C105.28 108.793 105.265 109.526 105.346 110.186C105.426 110.845 105.676 111.373 106.094 111.762C106.512 112.15 107.157 112.341 108.044 112.341V112.333Z" fill="white"/>
<path d="M131.248 117.89C129.921 117.89 128.748 117.678 127.736 117.245C126.725 116.82 125.918 116.183 125.31 115.34C124.701 114.497 124.298 113.47 124.107 112.268C123.917 111.066 123.939 109.688 124.188 108.141C124.298 107.592 124.393 107.101 124.481 106.668C124.562 106.236 124.672 105.759 124.811 105.239C125.17 103.743 125.669 102.402 126.307 101.215C126.945 100.027 127.707 99.0009 128.587 98.1433C129.474 97.2857 130.5 96.626 131.681 96.1715C132.854 95.717 134.152 95.4898 135.567 95.4898C137.253 95.4898 138.536 95.7317 139.408 96.2155C140.281 96.6993 140.977 97.3003 141.505 98.0187L141.71 96.9412C141.769 96.6333 141.908 96.3914 142.143 96.1935C142.378 96.0029 142.649 95.9003 142.949 95.9003H147.598C147.876 95.9003 148.096 95.9956 148.265 96.1935C148.433 96.3841 148.485 96.6333 148.433 96.9412L144.32 116.454C144.262 116.762 144.115 117.011 143.866 117.201C143.617 117.392 143.353 117.495 143.074 117.495H138.382C138.103 117.495 137.883 117.399 137.715 117.201C137.546 117.011 137.495 116.762 137.546 116.454L137.839 115.127C136.982 115.933 136.058 116.593 135.075 117.121C134.093 117.649 132.81 117.912 131.234 117.912L131.248 117.89ZM134.115 112.327C135.053 112.327 135.845 112.129 136.483 111.726C137.121 111.323 137.649 110.81 138.059 110.172C138.477 109.534 138.763 108.845 138.932 108.098C139.1 107.548 139.232 107.02 139.328 106.522C139.423 106.023 139.511 105.51 139.599 104.982C139.738 104.293 139.746 103.648 139.621 103.054C139.496 102.461 139.203 101.977 138.748 101.603C138.294 101.229 137.619 101.046 136.732 101.046C135.845 101.046 135.141 101.237 134.533 101.625C133.924 102.014 133.433 102.541 133.059 103.201C132.685 103.861 132.377 104.601 132.128 105.4C132.018 105.818 131.908 106.243 131.798 106.69C131.688 107.13 131.608 107.562 131.549 107.98C131.439 108.787 131.417 109.52 131.49 110.179C131.556 110.846 131.798 111.367 132.216 111.755C132.634 112.144 133.264 112.334 134.13 112.334L134.115 112.327ZM141.461 92.9829C140.713 92.9829 140.105 92.8583 139.636 92.6091C139.166 92.3599 138.741 92.118 138.367 91.8834C137.993 91.6489 137.561 91.5316 137.062 91.5316C136.674 91.5316 136.373 91.6269 136.146 91.8248C135.926 92.0154 135.713 92.2279 135.523 92.4478C135.332 92.6677 135.083 92.7777 134.775 92.7777H132.282C132.091 92.7777 131.937 92.7044 131.827 92.5504C131.718 92.3965 131.674 92.2426 131.703 92.074C131.784 91.6342 131.952 91.1138 132.201 90.52C132.451 89.9263 132.788 89.3545 133.22 88.7975C133.653 88.2477 134.196 87.7786 134.863 87.4047C135.53 87.0309 136.285 86.8477 137.143 86.8477C137.92 86.8477 138.543 86.9723 139.012 87.2215C139.482 87.4707 139.914 87.7199 140.303 87.9692C140.691 88.2184 141.117 88.343 141.593 88.343C141.982 88.343 142.275 88.233 142.488 88.0131C142.693 87.7932 142.898 87.5807 143.089 87.3681C143.279 87.1628 143.529 87.0602 143.837 87.0602H146.329C146.549 87.0602 146.718 87.1335 146.828 87.2875C146.938 87.4414 146.967 87.61 146.909 87.8079C146.828 88.2477 146.659 88.7608 146.41 89.3472C146.161 89.9263 145.816 90.5054 145.369 91.0698C144.929 91.6342 144.386 92.1033 143.749 92.4625C143.111 92.8217 142.348 93.0049 141.469 93.0049L141.461 92.9829Z" fill="white"/>
<path d="M159.401 117.896C157.187 117.896 155.332 117.522 153.836 116.774C152.341 116.027 151.27 114.956 150.618 113.556C149.965 112.156 149.796 110.492 150.097 108.557C150.156 108.008 150.258 107.377 150.412 106.666C150.566 105.962 150.72 105.347 150.889 104.819C151.417 102.855 152.216 101.183 153.294 99.7979C154.371 98.4125 155.757 97.3496 157.443 96.602C159.13 95.8543 161.138 95.4805 163.463 95.4805C165.647 95.4805 167.488 95.8543 168.983 96.602C170.479 97.3496 171.571 98.4125 172.26 99.7979C172.95 101.183 173.148 102.855 172.84 104.819C172.73 105.347 172.605 105.962 172.466 106.666C172.326 107.37 172.187 108 172.048 108.557C171.52 110.492 170.735 112.164 169.68 113.556C168.624 114.956 167.26 116.027 165.567 116.774C163.88 117.522 161.813 117.896 159.379 117.896H159.401ZM160.024 112.831C161.27 112.831 162.282 112.457 163.052 111.709C163.829 110.962 164.408 109.84 164.797 108.345C164.907 107.927 165.039 107.377 165.193 106.681C165.347 105.992 165.449 105.435 165.501 105.024C165.75 103.558 165.684 102.444 165.295 101.682C164.907 100.919 164.093 100.538 162.847 100.538C161.6 100.538 160.669 100.919 159.877 101.682C159.086 102.444 158.514 103.558 158.154 105.024C158.044 105.442 157.913 105.992 157.759 106.681C157.605 107.37 157.502 107.927 157.451 108.345C157.201 109.84 157.26 110.962 157.634 111.709C158.008 112.457 158.8 112.831 160.024 112.831Z" fill="white"/>
<path d="M62.2426 141.934C61.3701 141.934 60.615 141.795 59.9624 141.524C59.3173 141.245 58.7894 140.842 58.3935 140.3C57.9976 139.757 57.7336 139.105 57.609 138.328C57.4844 137.551 57.4917 136.671 57.6383 135.682C57.7117 135.33 57.7776 135.015 57.8363 134.736C57.8949 134.458 57.9756 134.157 58.0636 133.82C58.2908 132.86 58.6134 132.002 59.024 131.24C59.4346 130.477 59.9185 129.818 60.4903 129.268C61.0548 128.718 61.7074 128.293 62.4332 128C63.159 127.707 63.9655 127.56 64.86 127.56C65.754 127.56 66.539 127.707 67.177 128C67.815 128.293 68.298 128.667 68.614 129.129L69.838 123.433C69.875 123.235 69.97 123.081 70.117 122.957C70.271 122.832 70.432 122.773 70.608 122.773H73.856C74.054 122.773 74.2 122.839 74.31 122.957C74.42 123.081 74.45 123.243 74.42 123.433L70.667 141.011C70.63 141.209 70.535 141.362 70.388 141.487C70.234 141.612 70.065 141.67 69.867 141.67H66.883C66.685 141.67 66.539 141.612 66.429 141.487C66.319 141.362 66.29 141.201 66.319 141.011L66.502 140.16C65.967 140.673 65.38 141.099 64.728 141.436C64.083 141.773 63.247 141.942 62.2352 141.942L62.2426 141.934ZM64.083 138.364C64.669 138.364 65.175 138.233 65.6 137.976C66.026 137.719 66.37 137.382 66.642 136.979C66.905 136.569 67.103 136.129 67.228 135.645C67.316 135.293 67.397 134.956 67.47 134.633C67.543 134.311 67.602 133.988 67.653 133.651C67.727 133.204 67.712 132.794 67.624 132.412C67.536 132.031 67.345 131.723 67.052 131.482C66.759 131.24 66.326 131.122 65.762 131.122C65.197 131.122 64.706 131.247 64.31 131.496C63.9068 131.745 63.5842 132.083 63.335 132.508C63.0857 132.933 62.8804 133.402 62.7191 133.922C62.6458 134.186 62.5798 134.465 62.5212 134.751C62.4552 135.037 62.4112 135.308 62.3745 135.579C62.3012 136.092 62.2939 136.561 62.3452 136.994C62.3965 137.426 62.5578 137.756 62.8217 138.005C63.0857 138.255 63.5036 138.379 64.075 138.379L64.083 138.364Z" fill="white"/>
<path d="M78.9738 141.933C78.1228 141.933 77.3678 141.794 76.7228 141.522C76.0778 141.244 75.5568 140.841 75.1608 140.298C74.7728 139.756 74.5158 139.103 74.3918 138.326C74.2668 137.549 74.2818 136.67 74.4428 135.68C74.5158 135.328 74.5748 135.013 74.6258 134.735C74.6778 134.456 74.7508 134.156 74.8388 133.818C75.0658 132.858 75.3888 132.001 75.7988 131.238C76.2098 130.476 76.6938 129.816 77.2658 129.266C77.8298 128.717 78.4968 128.292 79.2518 127.998C80.0078 127.705 80.8358 127.559 81.7448 127.559C82.8298 127.559 83.6508 127.713 84.2088 128.028C84.7658 128.336 85.2128 128.724 85.5498 129.186L85.6818 128.497C85.7188 128.299 85.8138 128.145 85.9608 128.02C86.1148 127.896 86.2828 127.837 86.4808 127.837H89.4648C89.6408 127.837 89.7878 127.903 89.8908 128.02C89.9998 128.145 90.0298 128.306 89.9998 128.497L87.3608 141.017C87.3238 141.215 87.2288 141.368 87.0678 141.493C86.9068 141.618 86.7378 141.676 86.5618 141.676H83.5488C83.3728 141.676 83.2258 141.618 83.1228 141.493C83.0208 141.368 82.9838 141.207 83.0138 141.017L83.1968 140.166C82.6468 140.679 82.0528 141.105 81.4228 141.442C80.7918 141.779 79.9708 141.948 78.9588 141.948L78.9738 141.933ZM80.8138 138.363C81.4148 138.363 81.9208 138.231 82.3318 137.975C82.7418 137.718 83.0788 137.381 83.3428 136.978C83.6068 136.567 83.7978 136.127 83.9008 135.644C84.0108 135.292 84.0908 134.955 84.1568 134.632C84.2158 134.31 84.2748 133.987 84.3328 133.65C84.4208 133.203 84.4278 132.792 84.3478 132.411C84.2668 132.03 84.0838 131.722 83.7908 131.48C83.4968 131.238 83.0648 131.121 82.4998 131.121C81.9358 131.121 81.4808 131.246 81.0848 131.495C80.6968 131.744 80.3808 132.081 80.1398 132.506C79.8978 132.932 79.6998 133.401 79.5378 133.921C79.4648 134.185 79.3988 134.464 79.3258 134.749C79.2518 135.035 79.2008 135.306 79.1638 135.578C79.0908 136.091 79.0758 136.56 79.1278 136.992C79.1718 137.418 79.3258 137.755 79.5968 138.004C79.8608 138.253 80.2708 138.378 80.8208 138.378L80.8138 138.363Z" fill="white"/>
<path d="M102.141 141.933C100.989 141.933 100.029 141.801 99.2739 141.544C98.5189 141.288 97.9319 140.973 97.4999 140.599C97.0739 140.225 96.7809 139.836 96.6199 139.441C96.4589 139.037 96.4069 138.7 96.4589 138.414C96.4949 138.217 96.5909 138.055 96.7369 137.923C96.8909 137.791 97.0449 137.725 97.2059 137.725H100.242C100.293 137.725 100.344 137.733 100.388 137.755C100.432 137.769 100.469 137.806 100.506 137.865C100.704 137.989 100.894 138.143 101.092 138.334C101.29 138.517 101.525 138.686 101.796 138.825C102.075 138.964 102.419 139.037 102.852 139.037C103.35 139.037 103.79 138.942 104.186 138.744C104.575 138.546 104.809 138.253 104.875 137.865C104.949 137.579 104.912 137.344 104.78 137.161C104.648 136.978 104.355 136.794 103.915 136.611C103.468 136.435 102.778 136.259 101.84 136.076C100.953 135.864 100.205 135.585 99.5889 135.24C98.9729 134.896 98.5479 134.442 98.2989 133.884C98.0499 133.327 98.0059 132.646 98.1669 131.847C98.3279 131.136 98.7019 130.454 99.2889 129.794C99.8749 129.135 100.66 128.599 101.649 128.182C102.632 127.764 103.775 127.559 105.073 127.559C106.1 127.559 106.972 127.676 107.683 127.918C108.394 128.16 108.974 128.46 109.413 128.834C109.853 129.208 110.169 129.589 110.345 129.978C110.521 130.366 110.587 130.725 110.528 131.04C110.513 131.216 110.425 131.37 110.271 131.509C110.117 131.641 109.963 131.707 109.802 131.707H107.031C106.957 131.707 106.891 131.693 106.833 131.671C106.767 131.641 106.723 131.612 106.686 131.575C106.474 131.466 106.276 131.326 106.1 131.15C105.924 130.974 105.711 130.813 105.462 130.674C105.212 130.535 104.875 130.461 104.45 130.461C103.973 130.461 103.578 130.571 103.262 130.784C102.954 130.996 102.764 131.275 102.69 131.612C102.639 131.847 102.661 132.059 102.771 132.25C102.881 132.448 103.145 132.624 103.585 132.785C104.017 132.946 104.714 133.122 105.674 133.32C106.847 133.518 107.749 133.833 108.38 134.266C109.01 134.698 109.421 135.204 109.619 135.783C109.817 136.362 109.846 136.97 109.729 137.608C109.553 138.458 109.135 139.213 108.475 139.873C107.815 140.533 106.95 141.039 105.88 141.405C104.802 141.772 103.556 141.955 102.141 141.955V141.933Z" fill="white"/>
<path d="M117.538 141.932C116.116 141.932 114.928 141.69 113.967 141.214C113.007 140.737 112.318 140.048 111.9 139.146C111.482 138.252 111.372 137.182 111.57 135.936C111.607 135.584 111.673 135.174 111.768 134.726C111.863 134.272 111.966 133.876 112.076 133.539C112.413 132.278 112.926 131.208 113.623 130.314C114.312 129.427 115.207 128.745 116.284 128.261C117.369 127.785 118.652 127.543 120.148 127.543C121.548 127.543 122.729 127.785 123.689 128.261C124.65 128.738 125.346 129.427 125.793 130.314C126.241 131.201 126.358 132.278 126.167 133.539C126.094 133.876 126.013 134.272 125.925 134.726C125.837 135.181 125.749 135.584 125.661 135.936C125.324 137.182 124.818 138.252 124.144 139.146C123.469 140.041 122.589 140.73 121.504 141.214C120.419 141.69 119.1 141.932 117.538 141.932ZM117.934 138.685C118.733 138.685 119.378 138.443 119.877 137.966C120.375 137.49 120.749 136.772 120.998 135.811C121.072 135.547 121.152 135.188 121.255 134.748C121.358 134.309 121.416 133.949 121.453 133.686C121.614 132.747 121.57 132.029 121.321 131.545C121.072 131.054 120.551 130.812 119.752 130.812C118.953 130.812 118.352 131.054 117.846 131.545C117.34 132.036 116.973 132.747 116.739 133.686C116.665 133.949 116.585 134.309 116.482 134.748C116.387 135.196 116.321 135.547 116.284 135.811C116.123 136.772 116.167 137.49 116.402 137.966C116.643 138.443 117.149 138.685 117.934 138.685Z" fill="white"/>
<path d="M127.765 141.662C127.567 141.662 127.42 141.604 127.31 141.479C127.2 141.355 127.171 141.193 127.2 141.003L129.861 128.483C129.898 128.307 129.993 128.153 130.155 128.014C130.316 127.882 130.492 127.816 130.69 127.816H133.755C133.952 127.816 134.099 127.882 134.194 128.014C134.29 128.146 134.326 128.3 134.29 128.483L134.077 129.546C134.502 129.011 135.038 128.593 135.675 128.278C136.313 127.97 137.105 127.809 138.044 127.809H139.561C139.737 127.809 139.876 127.875 139.972 127.992C140.067 128.116 140.104 128.278 140.067 128.468L139.51 131.21C139.473 131.386 139.378 131.54 139.217 131.679C139.055 131.811 138.879 131.877 138.681 131.877H136.101C135.375 131.877 134.766 132.075 134.29 132.478C133.813 132.874 133.491 133.438 133.329 134.171L131.863 140.988C131.826 141.186 131.731 141.34 131.584 141.465C131.43 141.589 131.262 141.648 131.064 141.648H127.765V141.662Z" fill="white"/>
<path d="M146.492 141.663C145.268 141.663 144.256 141.48 143.471 141.113C142.679 140.747 142.144 140.182 141.858 139.413C141.572 138.643 141.558 137.639 141.807 136.415L142.899 131.298H140.825C140.627 131.298 140.48 131.24 140.385 131.115C140.289 130.99 140.253 130.829 140.289 130.639L140.744 128.484C140.781 128.286 140.876 128.132 141.037 128.007C141.198 127.882 141.367 127.824 141.543 127.824H143.647L144.578 123.433C144.615 123.235 144.71 123.081 144.857 122.957C145.011 122.832 145.18 122.773 145.377 122.773H148.464C148.64 122.773 148.787 122.839 148.889 122.957C148.992 123.081 149.029 123.243 148.992 123.433L148.061 127.824H151.389C151.587 127.824 151.734 127.89 151.829 128.007C151.925 128.132 151.961 128.293 151.925 128.484L151.47 130.639C151.433 130.837 151.338 130.99 151.177 131.115C151.015 131.24 150.847 131.298 150.671 131.298H147.313L146.301 136.041C146.228 136.451 146.199 136.803 146.206 137.096C146.213 137.39 146.301 137.617 146.47 137.778C146.639 137.939 146.924 138.02 147.335 138.02H149.468C149.644 138.02 149.784 138.086 149.879 138.203C149.974 138.328 150.011 138.489 149.974 138.68L149.498 140.996C149.461 141.194 149.366 141.348 149.219 141.472C149.065 141.597 148.897 141.656 148.699 141.656H146.485L146.492 141.663Z" fill="white"/>
<path d="M158.236 141.928C156.851 141.928 155.692 141.672 154.761 141.166C153.83 140.66 153.192 139.898 152.84 138.886C152.496 137.875 152.452 136.629 152.723 135.155C152.76 135.031 152.796 134.87 152.833 134.679C152.87 134.481 152.906 134.335 152.943 134.225C153.295 132.825 153.867 131.622 154.644 130.618C155.428 129.614 156.382 128.852 157.518 128.331C158.654 127.811 159.908 127.547 161.272 127.547C162.833 127.547 164.058 127.855 164.945 128.478C165.832 129.101 166.426 129.944 166.719 131.007C167.012 132.07 167.005 133.286 166.704 134.657L166.594 135.295C166.543 135.493 166.433 135.647 166.272 135.771C166.111 135.896 165.935 135.954 165.737 135.954H157.239C157.239 135.954 157.239 135.998 157.225 136.035C157.217 136.072 157.203 136.108 157.188 136.145C157.1 136.658 157.093 137.127 157.159 137.56C157.232 137.985 157.408 138.322 157.694 138.571C157.98 138.821 158.361 138.945 158.838 138.945C159.175 138.945 159.475 138.886 159.739 138.769C160.003 138.652 160.238 138.52 160.429 138.373C160.627 138.219 160.781 138.095 160.905 137.985C161.103 137.809 161.25 137.699 161.36 137.655C161.47 137.611 161.624 137.589 161.836 137.589H165.135C165.311 137.589 165.443 137.64 165.539 137.736C165.627 137.831 165.649 137.97 165.59 138.146C165.502 138.447 165.275 138.813 164.908 139.238C164.542 139.663 164.043 140.089 163.405 140.506C162.767 140.924 162.012 141.269 161.14 141.533C160.267 141.797 159.292 141.928 158.207 141.928H158.236ZM157.811 133.33H162.313L162.342 133.279C162.467 132.715 162.481 132.216 162.379 131.791C162.283 131.366 162.093 131.036 161.807 130.809C161.521 130.582 161.14 130.464 160.663 130.464C160.187 130.464 159.754 130.582 159.373 130.809C158.992 131.036 158.669 131.366 158.412 131.791C158.156 132.216 157.958 132.715 157.811 133.279V133.33Z" fill="white"/>
</svg>
