<svg width="227" height="49" viewBox="0 0 227 49" fill="none" xmlns="http://www.w3.org/2000/svg">
<path d="M22.644 15.7781H15.657V8.48509C15.657 7.57609 15.5181 6.98211 15.2391 6.70311C14.9601 6.42511 14.367 6.28612 13.457 6.28612H9.58606C8.67706 6.28612 8.06905 6.42511 7.76105 6.70311C7.46005 6.98211 7.30609 7.57609 7.30609 8.48509V40.9131C7.30609 41.8221 7.46005 42.4231 7.76105 42.7011C8.06105 42.9801 8.67006 43.1191 9.58606 43.1191H13.457C14.367 43.1191 14.9601 42.9801 15.2391 42.7011C15.5181 42.4231 15.657 41.8291 15.657 40.9131V33.7001H22.644V41.7481C22.644 46.2561 20.2611 48.5071 15.5031 48.5071H7.45306C2.74606 48.5071 0.393066 46.2561 0.393066 41.7481V7.5761C0.393066 3.1191 2.74606 0.891113 7.45306 0.891113H15.5031C20.2611 0.891113 22.644 3.1191 22.644 7.5761V15.7781Z" fill="white"/>
<path d="M55.985 48.4339L54.086 37.424H44.056L42.311 48.4339H35.479L43.91 0.897949H53.859L62.899 48.4339H55.985ZM44.892 31.8829H53.17L48.837 6.82097L44.885 31.8829H44.892Z" fill="white"/>
<path d="M93.8051 0.891113H100.11V48.4261H93.196L83.1661 14.0991V48.4261H76.8611V0.891113H84.076L93.7971 34.2281V0.891113H93.8051Z" fill="white"/>
<path d="M141.807 40.686V29.0679C141.807 28.1589 141.667 27.5649 141.389 27.2869C141.11 27.0079 140.516 26.8689 139.607 26.8689H133.984C129.372 26.8689 127.07 24.6189 127.07 20.1109V7.58296C127.07 3.12696 129.424 0.897949 134.131 0.897949H141.572C146.279 0.897949 148.64 3.12696 148.64 7.58296V14.569H141.726V8.64595C141.726 7.73695 141.572 7.14394 141.272 6.86494C140.971 6.58694 140.362 6.44695 139.446 6.44695H136.257C135.348 6.44695 134.739 6.58694 134.431 6.86494C134.131 7.14394 133.977 7.73695 133.977 8.64595V19.202C133.977 20.111 134.131 20.712 134.431 20.983C134.732 21.261 135.34 21.401 136.257 21.401H141.799C146.455 21.401 148.786 23.629 148.786 28.086V41.756C148.786 46.213 146.404 48.441 141.645 48.441H134.277C129.57 48.441 127.21 46.213 127.21 41.756V34.771H134.123V40.6929C134.123 41.6019 134.277 42.203 134.578 42.475C134.879 42.753 135.487 42.892 136.403 42.892H139.593C140.502 42.892 141.096 42.753 141.374 42.475C141.653 42.196 141.792 41.6019 141.792 40.6929L141.807 40.686Z" fill="white"/>
<path d="M182.147 48.4339L180.248 37.424H170.219L168.474 48.4339H161.641L170.072 0.897949H180.021L189.061 48.4339H182.147ZM171.054 31.8829H179.332L174.999 6.82097L171.047 31.8829H171.054Z" fill="white"/>
<path d="M216.475 48.4339H209.561V33.3999L199.385 0.897949H206.372L212.978 27.096L219.209 0.897949H226.196L216.475 33.3999V48.4339Z" fill="white"/>
</svg>
