<svg width="215" height="63" viewBox="0 0 215 63" fill="none" xmlns="http://www.w3.org/2000/svg">
<path d="M44.8519 43.2709L63.0199 1.92993H89.1639L58.6279 61.4789H31.0169L0.524902 1.92993H26.6699L44.8369 43.2709H44.8519Z" fill="white"/>
<path d="M214.364 28.0699V35.3339C214.364 46.5419 209.312 53.4979 202.003 57.5739C198.726 59.3479 195.177 60.6299 191.321 61.4729C186.489 62.5359 181.394 62.9319 176.562 62.9319C171.731 62.9319 166.635 62.5359 161.848 61.4729C149.443 58.7689 138.805 51.5049 138.805 35.3339V28.0699C138.805 16.8629 143.856 9.90589 151.166 5.87489C154.399 4.05689 157.991 2.77389 161.848 1.93089C166.635 0.867893 171.731 0.4729 176.562 0.4729C181.394 0.4729 186.489 0.867893 191.321 1.93089C203.726 4.63589 214.364 11.9439 214.364 28.0699ZM191.101 29.5289C191.101 24.6989 189.283 21.8179 186.577 20.0949C183.784 18.4529 180.243 17.9259 176.562 17.9259C169.385 17.9259 162.024 19.9189 162.024 29.5359V33.8759C162.024 38.7059 163.798 41.6749 166.591 43.3169C169.385 44.9589 172.97 45.5309 176.562 45.5309C183.828 45.5309 191.101 43.5369 191.101 33.8759V29.5359V29.5289Z" fill="white"/>
<path d="M119.189 61.423H93.543V38.81C93.543 37.557 94.665 36.421 96.395 35.944L119.189 29.574V61.423Z" fill="white"/>
<g opacity="0.7">
<path d="M101.688 2.625H127.333V25.238C127.333 26.492 126.212 27.628 124.481 28.104L101.688 34.474V2.625Z" fill="white"/>
</g>
</svg>
