<svg width="154" height="69" viewBox="0 0 154 69" fill="none" xmlns="http://www.w3.org/2000/svg">
<path d="M136.12 10.304C133.07 7.67995 129.32 6.57296 125.46 6.54396C120.18 6.49296 114.7 8.41995 110.5 11.177C110.29 11.316 110.07 11.4619 109.85 11.6089C109.68 11.7259 109.51 11.8509 109.34 11.9759C109.34 11.9759 109.33 11.983 109.32 11.99C109 12.232 108.68 12.481 108.37 12.738C99.54 20.185 96.98 32.28 98.6 43.312C98.92 45.489 99.3401 47.688 99.9201 49.85C101.2 48.846 102.43 48.1639 103.64 47.7829C105.6 47.1669 107.74 47.416 109.51 48.479C111.21 49.498 112.35 51.1179 112.71 53.0459C113.26 55.9929 112.42 59.32 110.51 61.739C109.78 62.67 108.91 63.528 107.9 64.32C108.34 64.715 108.78 65.089 109.25 65.441C110.74 66.563 112.49 67.662 114.39 67.911C116.66 68.212 118.89 66.68 118.69 64.268C118.5 62.062 117.06 60.288 116 58.433C112.54 52.437 110.43 42.8939 111.75 35.1239C111.62 35.0359 111.49 34.941 111.36 34.838C111.14 34.669 110.92 34.494 110.7 34.303L110.38 33.988C110.28 33.885 110.17 33.7749 110.07 33.6579C109.66 33.2029 109.33 32.661 109.05 32.104C108.79 31.525 108.59 30.909 108.49 30.264C108.4 29.626 108.37 28.9739 108.45 28.3439C108.53 27.7129 108.67 27.09 108.89 26.518C109 26.225 109.13 25.9539 109.27 25.6749C109.41 25.4119 109.55 25.148 109.72 24.906C109.89 24.664 110.06 24.4149 110.24 24.2019C110.42 23.9749 110.61 23.7699 110.8 23.5639C110.99 23.3519 111.2 23.1759 111.39 22.9779C111.6 22.8019 111.8 22.6109 112.02 22.4429C113.72 21.0869 115.65 20.156 117.66 19.657C119.67 19.174 121.8 19.071 123.83 19.709C124.84 20.024 125.81 20.5219 126.66 21.2479C127.5 21.9589 128.2 22.868 128.72 23.88C128.85 24.136 128.77 24.459 128.53 24.605C128.31 24.745 128.02 24.664 127.88 24.415C127.4 23.535 126.77 22.78 126.02 22.194C125.28 21.6 124.41 21.1969 123.53 20.9549C121.72 20.4559 119.8 20.61 117.98 21.131C115.46 21.842 112.92 23.315 111.37 25.69C110.45 27.112 109.91 28.9959 110.53 30.6889C111.14 32.3529 112.65 33.2619 114.1 33.8039C122.44 36.9559 131.91 33.0709 136.61 25.7269C139.63 20.9839 140.84 14.416 136.1 10.326" fill="white"/>
<path d="M28.45 54.194C26.03 52.251 24.1801 49.9351 22.1801 47.604C19.0101 43.917 18.37 39.878 18.26 37.965C16.12 37.723 14.0501 36.7631 12.5601 35.0921C11.8201 34.2631 11.26 33.244 10.96 32.16C10.67 31.097 10.57 29.9821 10.7 28.8981C10.81 27.8131 11.14 26.779 11.58 25.819C12.02 24.866 12.6 23.9871 13.26 23.1951C14.58 21.6121 16.22 20.351 18.07 19.508C19 19.09 19.97 18.7821 21.01 18.6431C22.04 18.5181 23.07 18.562 24.08 18.775C25.08 18.987 26.1 19.383 26.94 20.116C27.35 20.483 27.71 20.944 27.95 21.465C28.18 21.963 28.3401 22.5061 28.4001 23.048C28.5101 24.14 28.3001 25.2181 27.8901 26.1781C27.4701 27.1381 26.8601 28.003 26.0601 28.685C25.8401 28.868 25.51 28.839 25.33 28.619C25.15 28.399 25.18 28.0841 25.38 27.8931C26.67 26.7351 27.45 24.881 27.22 23.202C27.16 22.784 27.04 22.3811 26.86 22.0151C26.67 21.6631 26.42 21.362 26.11 21.106C25.48 20.6 24.6601 20.2991 23.8101 20.1531C22.9501 20.0061 22.05 20.0061 21.2 20.1531C20.36 20.2991 19.51 20.593 18.72 20.981C17.13 21.765 15.7 22.9381 14.6 24.3461C13.03 26.3831 12.01 29.1831 12.95 31.7341C13.66 33.6261 15.31 34.8501 17.13 35.5021C17.96 35.8031 18.82 36.03 19.7 36.176C27.98 37.554 35.98 31.5441 40.38 24.8811C40.81 24.2281 41.22 23.525 41.58 22.792C44.9 16.033 44.9 6.46005 37.72 2.36305C29.3 -2.44595 17.9801 2.17205 9.03006 11.7531C3.26006 17.9321 0.290065 27.7831 0.780065 36.0441C1.31006 44.9871 6.14 53.0941 12.84 58.8631C16.2 61.7511 20.19 64.2071 24.58 65.2551C26.75 65.775 29.1901 66.142 31.3901 65.504C34 64.734 35.68 61.956 34.26 59.383C32.96 57.03 30.46 55.836 28.45 54.216" fill="white"/>
<path d="M150.72 46.129C151.02 42.728 151.12 39.312 151.15 35.889C151.16 33.125 151.82 29.68 149.46 27.225C146.6 24.256 142.47 25.37 140.52 27.98C138.93 30.105 138.05 32.891 137.56 35.412C136.6 40.397 134.99 45.242 133.55 50.124C132.44 53.884 130.14 59.081 134.15 62.614C137.31 65.414 142.47 64.227 144.89 61.507C148.91 56.992 150.26 51.641 150.73 46.129" fill="white"/>
<path d="M146.94 22.481C150.3 22.98 153.43 20.656 153.93 17.299C154.43 13.942 152.11 10.812 148.75 10.313C145.38 9.81504 142.26 12.139 141.76 15.496C141.26 18.853 143.58 21.983 146.94 22.481Z" fill="white"/>
<path d="M66.4601 30.035C64.5601 27.638 60.3802 24.779 57.9302 28.092C56.9902 29.368 57.5402 30.973 58.1802 32.234C59.0602 33.964 60.1901 35.532 60.8801 37.365C62.9901 43.024 62.0302 52.941 55.1502 54.906C46.0702 57.493 43.6802 44.68 45.2902 38.325C45.8502 36.111 47.2301 34.242 48.2601 32.234C48.9001 30.966 49.4501 29.36 48.5101 28.092C46.0601 24.779 41.8801 27.638 39.9801 30.035C33.0401 38.823 31.7002 53.036 40.2702 61.253C44.1702 64.992 49.6701 66.604 55.0001 65.93C66.6801 64.464 74.4001 52.487 71.8301 41.081C70.9201 37.05 69.0201 33.253 66.4801 30.027" fill="white"/>
<path d="M109.33 60.055C110.95 58.01 111.73 55.071 111.25 52.49C110.62 49.17 107.13 47.33 103.98 48.312C102.25 48.862 100.68 50.071 99.38 51.281C97.35 53.187 95.55 55.261 93.04 56.581C91.8 57.233 90.48 57.695 89.13 58.032C88.25 58.245 87.02 58.303 85.61 58.201C91.37 48.693 92.76 35.104 87.75 25.384C85.34 20.715 81.2699 15.877 75.9499 14.557C72.5799 13.722 66.62 13.868 67.79 18.897C68.34 21.25 72.82 25.684 75.64 38.893C76.33 42.148 76.55 45.483 76.53 48.803C76.51 50.914 76.39 53.026 76.06 55.107C75.82 56.639 75.37 58.12 74.9 59.593C74.49 60.913 73.8299 62.335 74.4599 63.698C74.7699 64.387 75.36 64.937 76.01 65.325C81.59 68.697 89.05 68.829 95.24 67.436C96.75 67.099 98.2299 66.667 99.6899 66.161C103.27 64.915 106.94 63.09 109.34 60.055" fill="white"/>
</svg>
