<svg width="201" height="134" viewBox="0 0 201 134" fill="none" xmlns="http://www.w3.org/2000/svg">
<path d="M102.156 79.7097C89.2381 79.7097 76.32 79.7097 63.402 79.7097C62.852 79.7097 62.3021 79.6877 61.7521 79.6217C59.6991 79.3872 58.695 77.7086 59.384 75.7661C60.037 73.9263 61.4001 73.0393 63.1891 72.4969C66.6571 71.4414 70.096 70.2686 73.6 69.3157C77.104 68.3628 80.624 67.4685 84.165 66.6475C87.266 65.9292 90.3821 65.2695 93.5051 64.6611C97.6621 63.8474 101.841 63.1437 106.027 62.506C109.979 61.905 113.938 61.3919 117.905 60.9154C120.141 60.6442 122.392 60.4536 124.635 60.241C126.739 60.0431 128.851 59.8452 130.955 59.6693C132.135 59.5667 133.323 59.5227 134.511 59.4274C135.544 59.3394 136.234 59.8745 136.688 60.6955C138.433 63.8401 140.141 66.9994 141.872 70.1586C142.766 71.7859 143.668 73.4132 144.548 75.0404C144.951 75.7808 145.2 76.5724 145.075 77.4154C144.907 78.5442 144.071 79.3505 142.869 79.5777C142.451 79.6584 142.018 79.7097 141.586 79.7097C128.44 79.7097 115.302 79.7097 102.156 79.7097Z" fill="white"/>
<path d="M112.96 19.6831C113.957 19.6831 114.565 20.1083 114.976 20.8413C115.665 22.0874 116.347 23.3408 117.029 24.5943C118.722 27.7095 120.416 30.8175 122.102 33.9328C122.131 33.9914 122.168 34.05 122.205 34.116C122.74 35.0909 122.366 35.8532 121.266 36.0292C115.592 36.9454 109.939 38.0009 104.308 39.1664C99.9901 40.0607 95.7451 41.2262 91.5511 42.5676C89.7331 43.1466 87.9081 43.6891 86.1191 44.3561C83.9491 45.1697 81.7641 45.9687 79.6301 46.8703C78.2521 47.4567 76.8741 48.0358 75.5171 48.6735C75.3341 48.7615 75.1361 48.8348 74.9381 48.9007C74.7251 48.974 74.4981 49.0547 74.3151 48.8568C74.1391 48.6735 74.2421 48.4463 74.3301 48.2777C74.8061 47.3614 75.2971 46.4525 75.7891 45.5509C76.7931 43.7111 77.7971 41.8712 78.8021 40.024C79.4181 38.8952 80.0341 37.759 80.6571 36.6302C81.5731 34.981 83.0181 33.8375 84.4841 32.7233C86.5511 31.1547 88.6991 29.696 90.9871 28.4572C92.8051 27.475 94.6601 26.5807 96.5371 25.7158C100.951 23.6853 105.489 21.9921 110.108 20.4967C111.083 20.1816 112.058 19.8151 112.952 19.6758L112.96 19.6831Z" fill="white"/>
<path d="M126.008 110.761C126.008 114.28 126.015 117.791 126.008 121.309C126 124.205 125.223 126.865 123.317 129.094C121.162 131.608 118.434 133.184 115.12 133.69C114.131 133.836 113.133 133.968 112.136 133.932C110.655 133.88 110.157 133.455 109.856 132.062C109.754 131.586 109.666 131.044 109.871 130.633C110.135 130.105 110.729 130.443 111.169 130.435C112.877 130.399 114.614 130.406 116.176 129.622C119.351 128.038 121.279 125.568 121.337 121.874C121.337 121.536 121.293 121.456 120.934 121.566C118.42 122.387 115.89 122.438 113.383 121.522C111.029 120.664 109.548 118.927 108.661 116.64C107.693 114.133 107.539 111.516 107.62 108.863C107.686 106.766 107.979 104.721 108.815 102.772C109.842 100.382 111.638 98.894 114.094 98.139C116.147 97.516 118.244 97.538 120.348 97.655C122.085 97.758 123.801 98.044 125.494 98.469C125.854 98.557 126.008 98.674 126 99.077C125.986 102.969 125.993 106.869 125.993 110.761H126.008ZM121.337 109.464C121.337 106.95 121.337 104.435 121.337 101.921C121.337 101.723 121.44 101.481 121.066 101.43C119.922 101.262 118.771 101.166 117.62 101.247C115.626 101.379 114.138 102.302 113.265 104.142C112.584 105.586 112.371 107.133 112.312 108.702C112.232 110.879 112.254 113.048 112.957 115.137C113.507 116.765 114.394 118.15 116.235 118.516C117.877 118.839 119.446 118.575 120.898 117.688C121.235 117.483 121.352 117.248 121.345 116.86C121.323 114.397 121.337 111.934 121.337 109.471V109.464Z" fill="white"/>
<path d="M116.714 57.3329C115.585 57.2816 114.764 56.7685 114.236 55.7936C112.806 53.1694 111.384 50.5379 109.954 47.9064C109.25 46.609 108.532 45.3116 107.828 44.0142C107.249 42.9293 107.564 42.211 108.781 41.9911C111.611 41.4853 114.441 41.0162 117.278 40.5324C119.28 40.1952 121.281 39.858 123.283 39.5208C124.265 39.3522 125.328 39.8507 125.812 40.7376C127.799 44.3733 129.771 48.0164 131.758 51.6521C132.176 52.4217 132.623 53.1767 133.034 53.9464C133.166 54.1883 133.29 54.4448 133.342 54.7087C133.452 55.2951 133.122 55.7349 132.462 55.8156C131.164 55.9768 129.867 56.0868 128.562 56.2187C125.666 56.5046 122.777 56.7831 119.881 57.0617C118.818 57.1643 117.755 57.2523 116.714 57.3402V57.3329Z" fill="white"/>
<path d="M21.0689 122.222C20.6369 122.192 20.2039 122.119 19.7789 122.156C19.3169 122.2 19.1919 121.951 19.0969 121.591C18.3929 119.055 17.6749 116.526 16.9929 113.983C16.8829 113.565 16.6849 113.448 16.2819 113.455C13.3709 113.47 10.453 113.47 7.54295 113.455C7.20495 113.455 7.06595 113.565 6.97795 113.895C6.29595 116.402 5.58494 118.901 4.90294 121.408C4.77894 121.87 4.49289 122.061 4.08189 122.134C2.80589 122.339 1.53795 122.148 0.261948 122.112C0.049948 122.112 -0.0680608 122.09 0.0279392 121.775C1.29594 117.611 2.54194 113.448 3.79594 109.284C5.23994 104.476 6.69191 99.667 8.13591 94.8587C8.70791 92.9675 9.29492 91.0764 9.82292 89.1779C10.0059 88.5255 10.3429 88.1517 11.0179 88.115C11.8749 88.071 12.7409 88.0783 13.5979 88.1883C13.9139 88.225 13.8839 88.4668 13.9359 88.6281C14.5879 90.7465 15.2259 92.8722 15.8709 94.9906C17.1469 99.205 18.4299 103.42 19.7059 107.628C21.0909 112.202 22.4839 116.776 23.8699 121.357C24.0019 121.782 23.7969 122.053 23.2469 122.134C22.5279 122.244 21.8099 122.273 21.0839 122.236L21.0689 122.222ZM12.0149 93.9864C11.8529 94.1256 11.8609 94.2576 11.8389 94.3675C11.3399 97.41 10.6659 100.415 9.86693 103.391C9.31693 105.436 8.7449 107.474 8.1729 109.511C8.1069 109.746 8.0259 109.929 8.4149 109.929C10.7979 109.922 13.173 109.929 15.556 109.929C15.805 109.929 15.8489 109.856 15.7829 109.621C15.6369 109.13 15.5119 108.625 15.3799 108.133C14.5149 104.981 13.5689 101.852 12.8729 98.656C12.5429 97.131 12.2569 95.5917 12.0149 93.9864Z" fill="white"/>
<path d="M64.5251 68.1209C63.9671 68.1209 63.755 67.8423 63.924 67.4099C64.077 67.014 64.297 66.6329 64.503 66.259C66.182 63.1804 67.853 60.1018 69.539 57.0232C70.185 55.843 71.13 54.9708 72.325 54.355C74.129 53.4241 75.962 52.5592 77.817 51.7455C79.848 50.8586 81.923 50.0596 83.99 49.268C86.959 48.1318 89.9731 47.1056 92.9861 46.0867C93.2791 45.9841 93.572 45.8961 93.873 45.8155C94.108 45.7569 94.364 45.7202 94.555 45.9255C94.767 46.1527 94.672 46.4239 94.555 46.6511C94.305 47.1569 94.02 47.648 93.748 48.1465C92.385 50.6533 91.0141 53.1602 89.6501 55.6671C88.7191 57.375 87.795 59.0829 86.857 60.7835C86.277 61.8317 85.398 62.528 84.239 62.8066C80.178 63.7815 76.116 64.8004 72.084 65.8779C69.796 66.4936 67.509 67.146 65.265 67.923C64.987 68.0183 64.7151 68.1355 64.5171 68.1282L64.5251 68.1209Z" fill="white"/>
<path d="M59.224 105.569C59.166 104.733 59.224 103.89 59.012 103.054C58.704 101.852 57.919 101.2 56.732 101.053C55.067 100.855 53.52 101.237 52.084 102.094C51.827 102.248 51.717 102.446 51.717 102.761C51.724 108.691 51.717 114.621 51.724 120.551C51.724 122.157 51.724 121.959 50.353 122.076C49.407 122.157 48.462 122.113 47.509 122.135C47.289 122.135 47.186 122.076 47.208 121.849C47.223 121.731 47.208 121.607 47.208 121.49C47.208 110.524 47.208 99.565 47.208 88.5995C47.208 87.0089 47.56 86.635 49.173 86.5544C49.862 86.5251 50.551 86.5544 51.24 86.5178C51.644 86.4958 51.724 86.6424 51.724 87.0162C51.71 90.8278 51.717 94.6321 51.717 98.444C51.717 98.583 51.717 98.722 51.717 98.854C51.702 99.221 51.812 99.265 52.135 99.067C54.54 97.579 57.164 97.139 59.921 97.593C62.326 97.989 63.55 99.389 63.777 101.816C63.851 102.607 63.88 103.399 63.88 104.191C63.88 109.827 63.88 115.464 63.88 121.101C63.88 121.849 63.792 121.959 63.037 122.032C61.834 122.149 60.625 122.142 59.422 122.113C59.422 116.791 59.422 111.469 59.422 106.14C59.422 105.95 59.562 105.671 59.239 105.569H59.224Z" fill="white"/>
<path d="M200.656 110.585C200.642 113.825 200.502 117.058 200.37 120.298C200.348 120.796 200.158 121.053 199.696 121.243C196.983 122.387 194.146 122.658 191.242 122.563C190.223 122.533 189.212 122.401 188.251 122.064C186.572 121.478 185.451 120.32 184.952 118.626C184.219 116.112 184.241 113.576 185.143 111.113C185.993 108.782 187.841 107.683 190.231 107.411C192.078 107.199 193.911 107.265 195.707 107.815C195.949 107.888 196.096 107.917 196.089 107.573C196.074 106.349 196.125 105.124 196.067 103.9C195.971 102.068 195.077 101.254 193.237 101.21C190.605 101.152 188.009 101.386 185.473 102.141C185.15 102.236 185.055 102.141 184.937 101.892C184.651 101.291 184.505 100.66 184.519 100.001C184.534 99.209 184.864 98.769 185.619 98.505C186.88 98.058 188.178 97.824 189.498 97.67C191.536 97.435 193.581 97.289 195.634 97.516C196.404 97.604 197.159 97.772 197.878 98.08C199.131 98.615 199.93 99.546 200.319 100.844C200.524 101.54 200.656 102.251 200.656 102.977C200.656 105.513 200.656 108.042 200.656 110.578V110.585ZM196.089 114.06C196.089 113.305 196.081 112.205 196.089 111.098C196.089 110.769 196.001 110.6 195.663 110.519C194.512 110.233 193.354 110.116 192.181 110.307C190.722 110.549 189.828 111.392 189.461 112.836C189.153 114.06 189.109 115.291 189.285 116.53C189.461 117.732 189.916 118.788 191.221 119.132C192.68 119.521 194.124 119.381 195.502 118.766C195.744 118.656 195.883 118.487 195.913 118.179C196.037 116.926 195.957 115.665 196.067 114.06H196.089Z" fill="white"/>
<path d="M83.2949 110.379C83.2429 114.102 83.1989 117.218 83.0309 120.333C83.0089 120.795 82.855 121.051 82.4 121.242C79.086 122.583 75.6549 122.884 72.1509 122.393C69.5329 122.026 67.8689 120.348 67.3779 117.731C67.0259 115.825 67.0329 113.926 67.5099 112.043C68.1919 109.345 70.0319 107.74 72.8029 107.432C74.6649 107.227 76.5199 107.271 78.3309 107.813C78.5659 107.886 78.7709 107.952 78.7639 107.571C78.7119 106.179 78.8589 104.778 78.6829 103.386C78.5289 102.176 77.8469 101.48 76.6079 101.319C75.0759 101.113 73.5509 101.223 72.0189 101.392C70.6699 101.546 69.328 101.78 68.03 102.191C67.832 102.257 67.7519 102.191 67.6709 102.022C67.2749 101.231 67.0919 100.395 67.2819 99.523C67.3779 99.083 67.6419 98.768 68.0889 98.592C69.4969 98.042 70.9769 97.808 72.4659 97.639C74.3649 97.426 76.2779 97.302 78.1919 97.507C79.6509 97.668 81.051 98.005 82.085 99.164C82.987 100.168 83.2729 101.414 83.2949 102.704C83.3389 105.46 83.309 108.216 83.309 110.371L83.2949 110.379ZM78.7419 114.806C78.7419 113.318 78.7269 112.233 78.7419 111.148C78.7419 110.782 78.6609 110.606 78.2649 110.511C77.3339 110.283 76.4029 110.203 75.4499 110.239C73.6829 110.305 72.5609 111.207 72.1139 112.922C71.7909 114.139 71.7909 115.378 71.9669 116.609C72.1359 117.745 72.5829 118.757 73.8079 119.116C75.2809 119.541 76.7399 119.409 78.1479 118.794C78.4119 118.676 78.5729 118.508 78.5799 118.178C78.6169 116.924 78.6899 115.671 78.7339 114.813L78.7419 114.806Z" fill="white"/>
<path d="M150.578 111.033C150.6 108.27 150.812 105.528 151.802 102.912C152.594 100.822 153.855 99.1441 155.966 98.2281C157.682 97.4871 159.493 97.3411 161.333 97.4581C162.77 97.5461 164.126 97.9051 165.27 98.8291C166.736 100.009 167.345 101.636 167.528 103.425C167.785 105.975 167.609 108.512 167.14 111.033C167.074 111.37 166.949 111.517 166.582 111.561C163.628 111.964 160.651 112.162 157.667 112.213C156.978 112.221 156.289 112.257 155.6 112.265C155.395 112.265 155.248 112.301 155.263 112.536C155.351 114.163 155.505 115.783 156.436 117.183C157.249 118.407 158.532 118.752 159.896 118.81C162.206 118.906 164.42 118.459 166.517 117.506C166.89 117.337 166.978 117.418 167.052 117.784C167.162 118.341 167.213 118.906 167.279 119.47C167.389 120.423 166.876 120.936 166.135 121.347C165.094 121.918 163.95 122.182 162.792 122.358C161.047 122.622 159.295 122.703 157.543 122.475C154.024 122.021 151.919 120.086 151.128 116.633C150.702 114.786 150.548 112.924 150.578 111.041V111.033ZM157.594 109.098C159.236 109.076 160.864 108.951 162.477 108.68C162.785 108.629 162.975 108.556 163.034 108.167C163.305 106.481 163.313 104.81 162.99 103.139C162.836 102.354 162.543 101.599 161.758 101.211C160.336 100.5 158.063 100.559 156.817 102.64C155.688 104.531 155.468 106.657 155.336 108.798C155.321 109.069 155.453 109.113 155.673 109.105C156.311 109.098 156.949 109.105 157.587 109.105L157.594 109.098Z" fill="white"/>
<path d="M26.245 110.581C26.245 106.96 26.252 103.347 26.23 99.726C26.23 99.249 26.318 98.993 26.817 98.846C30.373 97.783 33.973 97.109 37.704 97.585C38.592 97.695 39.464 97.893 40.285 98.282C41.737 98.971 42.521 100.151 42.829 101.69C43.1 103.039 43.034 104.402 43.034 105.758C43.034 110.845 43.034 115.932 43.034 121.012C43.034 121.892 42.961 121.958 42.067 122.038C40.967 122.134 39.86 122.112 38.76 122.119C38.496 122.119 38.364 122.082 38.364 121.76C38.372 118.85 38.379 115.932 38.357 113.022C38.328 109.885 38.452 106.748 38.284 103.618C38.269 103.31 38.21 103.002 38.137 102.702C37.888 101.697 37.235 101.074 36.223 100.913C34.464 100.627 32.763 100.913 31.106 101.529C30.835 101.631 30.732 101.771 30.747 102.057C30.769 102.401 30.747 102.746 30.747 103.09C30.747 109.123 30.747 115.155 30.747 121.195C30.747 121.826 30.651 121.943 30.021 122.016C28.87 122.141 27.711 122.104 26.56 122.126C26.179 122.126 26.26 121.892 26.26 121.686C26.26 118.791 26.26 115.896 26.26 113C26.26 112.194 26.26 111.38 26.26 110.574H26.245V110.581Z" fill="white"/>
<path d="M87.4269 110.576C87.4269 106.904 87.4269 103.231 87.4199 99.5591C87.4199 99.1631 87.5299 99.0241 87.9189 98.8921C90.9389 97.9171 94.018 97.3531 97.2 97.4481C98.359 97.4851 99.4949 97.6241 100.609 97.9611C102.846 98.6351 103.872 100.219 104.121 102.44C104.202 103.143 104.224 103.847 104.224 104.558C104.224 110.056 104.224 115.561 104.224 121.058C104.224 121.886 104.114 121.982 103.285 122.055C102.215 122.15 101.152 122.121 100.082 122.15C99.6639 122.165 99.5239 122.07 99.5319 121.622C99.5609 119.746 99.546 117.862 99.546 115.986C99.546 112.365 99.546 108.744 99.546 105.122C99.546 104.28 99.5099 103.437 99.2819 102.616C99.0189 101.67 98.395 101.113 97.45 100.952C95.675 100.644 93.9599 100.937 92.2809 101.553C91.9289 101.685 91.929 101.905 91.929 102.19C91.929 108.48 91.929 114.776 91.929 121.065C91.929 121.93 91.8779 121.974 90.9979 122.055C89.9639 122.15 88.9299 122.114 87.8959 122.15C87.4859 122.165 87.4199 122.018 87.4199 121.652C87.4349 117.965 87.4269 114.27 87.4269 110.583V110.576Z" fill="white"/>
<path d="M146.67 109.461C146.67 113.097 146.663 116.74 146.678 120.376C146.678 120.75 146.553 120.918 146.223 121.058C144.097 121.937 141.883 122.406 139.595 122.538C137.836 122.641 136.083 122.597 134.36 122.142C132.08 121.541 130.68 120.105 130.189 117.803C129.976 116.792 129.881 115.758 129.881 114.724C129.881 109.432 129.881 104.14 129.881 98.84C129.881 98.173 129.954 98.085 130.629 97.99C131.831 97.829 133.041 97.939 134.243 97.902C134.463 97.902 134.566 97.975 134.544 98.202C134.536 98.305 134.544 98.408 134.544 98.51C134.544 104.045 134.544 109.579 134.551 115.113C134.551 115.956 134.61 116.799 134.925 117.598C135.211 118.324 135.753 118.785 136.494 118.969C138.29 119.408 140.042 119.203 141.758 118.529C142.191 118.36 142.169 118.045 142.169 117.693C142.169 111.419 142.169 105.144 142.169 98.862C142.169 98.1 142.198 98.071 142.96 97.975C144.075 97.829 145.197 97.931 146.318 97.887C146.721 97.873 146.648 98.144 146.648 98.371C146.648 100.592 146.648 102.82 146.648 105.041C146.648 106.507 146.648 107.973 146.648 109.439L146.67 109.461Z" fill="white"/>
<path d="M171.134 110.808C171.134 107.209 171.134 103.603 171.134 100.004C171.134 99.733 171.193 99.557 171.442 99.418C174.404 97.82 177.513 97.043 180.885 97.636C181.552 97.754 182.234 97.996 182.513 98.685C182.901 99.637 182.601 100.583 182.286 101.499C182.19 101.771 181.97 101.631 181.809 101.573C180.218 100.986 178.642 101.038 177.058 101.602C176.963 101.639 176.86 101.668 176.765 101.712C175.79 102.108 175.753 102.166 175.753 103.215C175.753 107.092 175.753 110.97 175.739 114.847C175.739 116.929 175.717 119.018 175.702 121.1C175.702 121.914 175.621 121.98 174.837 122.053C173.803 122.148 172.769 122.119 171.735 122.148C171.281 122.163 171.127 122.053 171.127 121.569C171.149 118.153 171.142 114.745 171.142 111.329C171.142 111.153 171.142 110.984 171.142 110.808H171.134Z" fill="white"/>
<path d="M110.844 16.1794C110.624 16.4579 110.28 16.4653 109.979 16.5606C107.75 17.2569 105.522 17.9753 103.3 18.6936C101.152 19.3973 99.07 20.2549 97.01 21.1712C95.771 21.7209 94.583 22.388 93.388 23.0183C92.054 23.722 90.712 24.4184 89.414 25.1807C88.644 25.6278 87.882 26.075 87.097 26.5075C86.914 26.6101 86.687 26.8007 86.481 26.6174C86.247 26.4122 86.357 26.1263 86.481 25.8991C87.105 24.6969 87.743 23.5021 88.38 22.3147C89.084 21.0026 89.795 19.6905 90.514 18.3857C91.482 16.6265 92.464 14.8746 93.425 13.1154C94.128 11.818 94.766 10.4839 95.514 9.2158C96.321 7.8378 97.032 6.4157 97.816 5.02303C98.388 4.00415 98.923 2.97061 99.517 1.9664C99.979 1.18208 100.514 0.456398 101.445 0.126548C102.266 -0.166652 103.073 0.0679079 103.887 0.808248C104.701 1.54858 105.067 2.56746 105.58 3.49105C106.409 4.98638 107.223 6.4964 108.036 7.999C108.894 9.575 109.752 11.151 110.617 12.7343C110.896 13.2474 111.204 13.7458 111.468 14.2662C111.695 14.7134 111.724 15.1898 111.533 15.6663C111.409 15.9815 111.204 16.1867 110.844 16.2014C110.844 16.0108 110.844 15.8349 111.035 15.7029C111.46 15.4024 111.438 15.0139 111.248 14.5668C110.969 13.8997 110.536 13.3207 110.192 12.6903C109.539 11.5248 108.909 10.3447 108.322 9.1425C108.073 8.6294 107.684 8.1969 107.465 7.6838C107.193 7.0535 106.863 6.4524 106.519 5.88065C105.991 5.00104 105.602 4.05546 105.045 3.20518C104.591 2.50149 104.371 1.66586 103.74 1.0648C102.89 0.251158 101.739 0.111888 100.998 0.727608C100.272 1.32868 99.774 2.09834 99.334 2.90464C98.659 4.14342 98.058 5.41886 97.354 6.643C96.262 8.5341 95.213 10.4619 94.202 12.4044C93.454 13.8411 92.523 15.1898 91.878 16.6852C91.658 17.1909 91.203 17.5868 91.027 18.0705C90.844 18.5837 90.551 19.0088 90.309 19.4779C89.663 20.724 88.982 21.9482 88.307 23.1723C88.065 23.6121 87.794 24.0445 87.552 24.4844C87.31 24.9315 87.075 25.386 86.87 25.8477C86.767 26.075 86.775 26.2289 87.141 26.1703C87.515 26.1116 87.662 25.7891 87.941 25.6352C89.099 24.9828 90.257 24.3451 91.416 23.6854C92.479 23.077 93.615 22.6079 94.693 22.0215C95.873 21.3691 97.12 20.834 98.329 20.2329C99.246 19.7785 100.258 19.5805 101.189 19.1481C101.834 18.8402 102.552 18.6203 103.249 18.3931C104.173 18.0999 105.067 17.704 106.013 17.4841C106.739 17.3155 107.391 16.9784 108.11 16.7951C109.019 16.5679 109.877 16.1501 110.844 16.194V16.1794Z" fill="white"/>
<path d="M59.221 105.57C59.543 105.673 59.404 105.944 59.404 106.142C59.411 111.464 59.404 116.785 59.404 122.114C59.015 122.114 59.206 121.806 59.199 121.66C59.184 119.761 59.191 117.87 59.191 115.972C59.191 112.695 59.191 109.419 59.191 106.149C59.191 105.959 59.206 105.768 59.213 105.585L59.221 105.57Z" fill="white"/>
<path d="M110.844 16.1807C109.876 16.1367 109.018 16.5546 108.109 16.7818C107.398 16.9577 106.738 17.2949 106.012 17.4708C105.074 17.6907 104.172 18.0865 103.248 18.3797C102.552 18.607 101.833 18.8269 101.188 19.1347C100.257 19.5745 99.2448 19.7651 98.3288 20.2196C97.1188 20.8207 95.8719 21.3558 94.6919 22.0081C93.6139 22.6019 92.4778 23.071 91.4148 23.6721C90.2638 24.3244 89.0979 24.9695 87.9399 25.6218C87.6609 25.7758 87.5139 26.0983 87.1409 26.1569C86.7739 26.2156 86.7669 26.0617 86.8689 25.8344C87.0749 25.3726 87.3089 24.9182 87.5509 24.471C87.7929 24.0239 88.0639 23.5988 88.3059 23.1589C88.9809 21.9275 89.6629 20.7034 90.3079 19.4646C90.5499 19.0028 90.8359 18.5703 91.0259 18.0572C91.2019 17.5734 91.6569 17.1776 91.8769 16.6718C92.5219 15.1765 93.4459 13.8351 94.2009 12.3911C95.2129 10.4486 96.2609 8.5281 97.3529 6.6297C98.0569 5.40553 98.6579 4.1301 99.3329 2.89132C99.7729 2.08502 100.271 1.31536 100.997 0.71429C101.738 0.0985696 102.889 0.237839 103.739 1.05148C104.37 1.65254 104.59 2.48817 105.044 3.19185C105.601 4.04947 105.99 4.99505 106.518 5.86733C106.862 6.4391 107.192 7.0475 107.464 7.6705C107.684 8.1836 108.072 8.6161 108.321 9.1292C108.908 10.3313 109.546 11.5041 110.191 12.677C110.543 13.3 110.968 13.8864 111.247 14.5535C111.437 15.0006 111.459 15.3891 111.034 15.6896C110.844 15.8289 110.851 16.0048 110.844 16.1881V16.1807Z" fill="white"/>
</svg>
