<svg width="120" height="134" viewBox="0 0 120 134" fill="none" xmlns="http://www.w3.org/2000/svg">
<path d="M29.4698 61.6657C28.6398 60.7096 27.4998 59.9174 26.0698 59.3096C24.6498 58.7018 22.8699 58.3945 20.7899 58.3945C17.0499 58.3945 13.9198 59.4189 11.4898 61.4471C9.06983 63.4686 7.38984 66.33 6.49984 69.9494C6.36984 70.4753 6.2199 71.1445 6.0599 71.9504L5.66989 73.8898C5.22989 76.3415 5.41982 78.4722 6.22982 80.2204C7.03982 81.9687 8.31986 83.3277 10.0199 84.2428C11.7099 85.1511 13.6999 85.6086 15.9299 85.6086C18.1499 85.6086 20.0699 85.3013 21.6799 84.7003C23.2899 84.0994 24.6398 83.314 25.7098 82.3785C26.7698 81.4429 27.6198 80.4663 28.2398 79.4761C28.8498 78.4927 29.2899 77.6185 29.5199 76.8468C29.6899 76.239 29.4998 75.8498 29.3298 75.6313C29.0698 75.3308 28.7199 75.1737 28.2699 75.1737H23.8999C23.4899 75.1737 23.1498 75.2693 22.8698 75.4605C22.6098 75.6449 22.3699 75.9386 22.1399 76.362C21.4999 77.5912 20.7099 78.4654 19.7799 78.9639C18.8399 79.4692 17.7499 79.7287 16.5499 79.7287C15.0899 79.7287 14.0798 79.2848 13.4698 78.3834C12.8498 77.4615 12.7099 75.9113 13.0399 73.7874L13.3798 72.1689C13.5098 71.5474 13.6399 70.9465 13.7699 70.3728C14.2899 68.249 15.1598 66.6782 16.3398 65.7085C17.4998 64.7456 18.8598 64.2539 20.3398 64.2539C21.5398 64.2539 22.4598 64.5203 23.0798 65.0461C23.6798 65.5515 23.9898 66.4051 23.9898 67.6275C24.0298 68.0509 24.1798 68.3855 24.4398 68.6109C24.6898 68.8431 25.0298 68.9592 25.4498 68.9592H29.8798C30.2998 68.9592 30.6698 68.8226 30.9898 68.5426C31.3098 68.2626 31.4899 67.887 31.5299 67.4363C31.6399 66.5963 31.5298 65.6539 31.2098 64.6227C30.8798 63.5983 30.2998 62.5944 29.4698 61.6452V61.6657Z" fill="white"/>
<path d="M43.11 58.8936H39.07C38.66 58.8936 38.2701 59.037 37.9301 59.3238C37.5801 59.6106 37.36 59.9657 37.28 60.3755L32.4201 83.4921C32.3301 83.9292 32.4201 84.3253 32.6701 84.6394C32.9201 84.9604 33.28 85.1311 33.72 85.1311H37.76C38.21 85.1311 38.61 84.9808 38.94 84.694C39.26 84.4072 39.4701 84.0521 39.5501 83.6492L44.41 60.5325C44.5 60.0955 44.43 59.7199 44.2 59.3921C44.04 59.1599 43.72 58.8867 43.11 58.8867V58.8936Z" fill="white"/>
<path d="M46.52 49.2866C46.25 48.9725 45.8899 48.8086 45.4499 48.8086H41.02C40.57 48.8086 40.1699 48.9589 39.8399 49.2525C39.5199 49.5393 39.31 49.8876 39.23 50.2973L38.4499 53.8348C38.3599 54.3129 38.4499 54.7158 38.7099 55.0163C38.9599 55.3168 39.32 55.4738 39.76 55.4738H44.23C44.64 55.4738 45.02 55.3372 45.37 55.0777C45.72 54.8046 45.94 54.4358 46.02 53.9919L46.8 50.4612C46.89 50.0173 46.79 49.6144 46.52 49.2935V49.2866Z" fill="white"/>
<path d="M70.03 61.6657C69.19 60.7096 68.05 59.9174 66.63 59.3096C65.2 58.7018 63.43 58.3945 61.35 58.3945C57.6 58.3945 54.4801 59.4189 52.0501 61.4471C49.6201 63.4686 47.9401 66.33 47.0601 69.9494C46.9301 70.4753 46.78 71.1445 46.61 71.9504L46.22 73.8898C45.79 76.3415 45.9801 78.4722 46.7901 80.2204C47.6001 81.9687 48.87 83.3277 50.58 84.2428C52.27 85.1511 54.26 85.6086 56.48 85.6086C58.71 85.6086 60.63 85.3013 62.23 84.7003C63.85 84.0994 65.2 83.314 66.27 82.3785C67.33 81.4429 68.1801 80.4663 68.8001 79.4761C69.4101 78.4927 69.84 77.6185 70.08 76.8468C70.25 76.239 70.06 75.8498 69.88 75.6313C69.63 75.3308 69.28 75.1737 68.83 75.1737H64.45C64.05 75.1737 63.7001 75.2693 63.4301 75.4605C63.1601 75.6449 62.92 75.9386 62.7 76.362C62.06 77.5912 61.26 78.4654 60.33 78.9639C59.39 79.4692 58.31 79.7287 57.11 79.7287C55.64 79.7287 54.64 79.2848 54.03 78.3834C53.41 77.4615 53.26 75.9113 53.6 73.7874L53.94 72.1689C54.07 71.5474 54.2 70.9465 54.32 70.3728C54.85 68.249 55.72 66.6782 56.89 65.7085C58.06 64.7456 59.41 64.2539 60.9 64.2539C62.1 64.2539 63.02 64.5203 63.64 65.0461C64.24 65.5515 64.5501 66.4051 64.5501 67.6275C64.5901 68.0509 64.74 68.3855 64.99 68.6109C65.25 68.8431 65.59 68.9592 66.01 68.9592H70.44C70.85 68.9592 71.2301 68.8226 71.5401 68.5426C71.8601 68.2626 72.05 67.887 72.09 67.4363C72.19 66.5963 72.08 65.6539 71.76 64.6227C71.44 63.5983 70.85 62.5944 70.03 61.6452V61.6657Z" fill="white"/>
<path d="M86.72 50.0893C86.54 49.864 86.2101 49.5977 85.6201 49.5977H81.58C81.16 49.5977 80.78 49.7479 80.44 50.0415C80.12 50.3283 79.92 50.6767 79.84 51.0864L72.98 83.5043C72.89 83.9414 72.98 84.3374 73.22 84.6516C73.48 84.9726 73.8401 85.1433 74.2801 85.1433H78.32C78.77 85.1433 79.1701 84.9931 79.5001 84.7062C79.8201 84.4194 80.03 84.0643 80.11 83.6614L86.97 51.2435C87.06 50.8064 86.97 50.4103 86.72 50.0893Z" fill="white"/>
<path d="M112.24 63.852C111.48 62.1311 110.24 60.7721 108.54 59.8228C106.85 58.8804 104.72 58.4023 102.2 58.4023C99.6898 58.4023 97.2399 58.8736 95.2999 59.8091C93.3599 60.7447 91.7299 62.0765 90.4799 63.7701C89.2399 65.45 88.3099 67.4646 87.7199 69.7524C87.5599 70.3465 87.3899 71.084 87.2099 71.9309C87.0299 72.7845 86.8899 73.5084 86.7899 74.1026C86.4199 76.3835 86.6099 78.4186 87.3299 80.1463C88.0599 81.8878 89.2899 83.2536 91.0099 84.2028C92.6899 85.1453 94.8299 85.6233 97.3499 85.6233C100.08 85.6233 102.45 85.1521 104.39 84.2165C106.34 83.2809 107.95 81.9356 109.16 80.2214C110.37 78.521 111.28 76.5201 111.87 74.2733C112.04 73.6723 112.2 72.9416 112.37 72.088C112.53 71.2411 112.67 70.5309 112.8 69.9231C113.17 67.608 112.98 65.5661 112.24 63.852ZM97.8198 79.9961C96.1998 79.9961 95.1499 79.5249 94.5899 78.5483C94.0099 77.5444 93.8799 76.0079 94.2199 73.9728C94.2899 73.4948 94.4099 72.8665 94.5899 72.1016C94.7599 71.3231 94.9099 70.688 95.0399 70.1963C95.5399 68.1953 96.3799 66.6451 97.5499 65.5934C98.6999 64.5554 100.11 64.0296 101.72 64.0296C103.33 64.0296 104.4 64.5144 104.98 65.5047C105.58 66.529 105.71 68.0519 105.37 70.0255C105.28 70.5104 105.15 71.1523 104.98 71.9309C104.82 72.7026 104.67 73.3377 104.55 73.8225C104.03 75.8576 103.17 77.4147 102.02 78.4527C100.88 79.4771 99.4699 79.9961 97.8299 79.9961H97.8198Z" fill="white"/>
<path d="M117.25 91.8899C119.42 92.7367 120.37 95.2908 119.27 97.353C114.12 107.003 97.9301 131.164 64.0101 133.507C61.8001 133.657 59.9201 131.902 59.8801 129.682V129.621C59.8401 127.552 61.4401 125.831 63.5101 125.687C94.1201 123.584 108.11 102.024 112.38 93.7406C113.3 91.965 115.39 91.166 117.25 91.8831V91.8899Z" fill="white"/>
<path d="M2.49 41.9187C0.309997 41.0719 -0.630023 38.5178 0.469977 36.4554C5.61998 26.8058 21.81 2.64434 55.72 0.301944C57.93 0.151704 59.82 1.90677 59.86 4.12624V4.18772C59.89 6.257 58.29 7.9779 56.22 8.1213C25.61 10.2246 11.63 31.7842 7.34998 40.068C6.43998 41.8436 4.34999 42.6426 2.47999 41.9255L2.49 41.9187Z" fill="white"/>
</svg>
