<svg width="100" height="25" viewBox="0 0 100 25" fill="none" xmlns="http://www.w3.org/2000/svg">
<g clip-path="url(#clip0_18_92)">
<path fill-rule="evenodd" clip-rule="evenodd" d="M17.286 11.4681C17.0852 11.6764 16.9556 11.9869 16.8242 12.4563L17.6219 12.2426C18.2353 12.0764 18.5894 11.9576 18.8012 11.7622C19.002 11.5777 19.1225 11.269 19.2685 10.7192L19.274 10.7064L18.4726 10.9201C17.8684 11.0809 17.5124 11.2343 17.286 11.4663V11.4681ZM7.73309 12.2426L8.53085 12.4563C8.3994 11.9869 8.26979 11.6764 8.06533 11.4681C7.84263 11.2361 7.48483 11.0827 6.88057 10.922L6.08284 10.7083V10.7211C6.23069 11.2709 6.35119 11.5796 6.55199 11.764C6.76375 11.9576 7.11972 12.0782 7.73128 12.2444L7.73309 12.2426ZM9.43629 20.6064C9.16247 20.4475 8.93794 20.2904 8.75721 20.1096L8.72435 20.2375C8.60753 20.6758 8.59657 20.9681 8.69332 21.1781C8.7919 21.3864 9.0146 21.5617 9.35233 21.759L12.6766 23.6805L15.999 21.759C16.3386 21.5617 16.5649 21.3864 16.6581 21.1781C16.7566 20.9699 16.7475 20.6777 16.6288 20.2375L16.596 20.1133C16.4171 20.2904 16.1925 20.4493 15.9169 20.6064L12.8884 22.3563C12.7642 22.4275 12.6036 22.433 12.4685 22.3563L9.43629 20.6064ZM9.22453 18.3689C9.10954 18.8 9.10224 19.0885 9.19899 19.2968C9.29574 19.505 9.51844 19.6804 9.85799 19.8776L12.6766 21.5051L15.4952 19.8776C15.8347 19.6804 16.0593 19.5068 16.156 19.2968C16.2491 19.0885 16.2418 18.8 16.1268 18.3689L15.6814 16.7067L15.6175 16.9569C15.3059 18.1162 14.6311 18.996 13.593 19.5963C12.6839 20.1187 12.6766 20.1242 11.7857 19.6091L11.762 19.5963C10.7239 18.9948 10.0491 18.115 9.73751 16.9569L9.67362 16.7067L9.22819 18.3689H9.22453ZM15.9443 7.13917C15.8293 6.93825 15.8986 6.6807 16.0994 6.56379C16.3003 6.44873 16.5576 6.51814 16.6745 6.71905L17.2057 7.64148C17.3517 7.89354 17.4667 8.07072 17.5945 8.1383C17.7114 8.20223 17.8921 8.2004 18.2024 8.11637C18.9546 7.9118 19.0604 7.7328 19.6099 6.77569L20.1685 5.81125C20.7764 4.74818 20.7508 4.70253 20.0864 3.5518L18.876 1.45124C18.7592 1.25032 18.8304 0.990946 19.0294 0.875872C19.2338 0.760798 19.4894 0.830208 19.6044 1.03113L20.8166 3.12985C21.0009 3.44585 21.147 3.69974 21.2584 3.91894L22.9231 1.03113C23.04 0.830208 23.2975 0.760798 23.4982 0.875872C23.6991 0.990946 23.7684 1.25032 23.6533 1.45124C22.549 3.36548 21.4409 5.28155 20.3383 7.19397C20.247 7.3474 20.1703 7.48621 20.0937 7.61042L21.7421 7.16839C22.6768 6.91754 23.3856 6.37383 23.8689 5.53727L24.557 4.34452C24.6721 4.14541 24.9313 4.07418 25.1302 4.19109C25.3348 4.30617 25.4041 4.5637 25.289 4.76463L24.6009 5.95738C23.9998 6.99852 23.1204 7.67374 21.963 7.98303L17.9706 9.05523C17.0505 9.29999 16.4025 9.61415 15.9388 10.0818C15.4715 10.5494 15.1593 11.196 14.9147 12.1111L14.6701 13.028L15.8749 12.7065L15.9589 12.3905C16.1451 11.6946 16.3313 11.238 16.6781 10.8781C17.025 10.5183 17.4959 10.3046 18.2499 10.1018L19.7541 9.69818C19.9786 9.63791 20.2087 9.77308 20.2726 9.99775C20.2927 10.0745 20.289 10.1493 20.2707 10.2206L20.0791 10.9348C19.8892 11.6416 19.714 12.0618 19.3671 12.3814C19.0294 12.6956 18.5785 12.8563 17.8355 13.0554L16.5649 13.3988L16.1159 15.0719L17.4394 20.0164C17.6128 20.6594 17.6018 21.127 17.4193 21.5252C17.2367 21.9252 16.9045 22.2065 16.4171 22.486L12.8811 24.5264C12.7368 24.6103 12.5671 24.5975 12.4356 24.5117L8.92698 22.486C8.43776 22.2029 8.10549 21.9215 7.92295 21.5252C7.74039 21.127 7.73128 20.6594 7.90286 20.0164L9.22636 15.0719L8.7773 13.3988L7.50673 13.0554C6.76375 12.8563 6.31284 12.6956 5.97513 12.3814C5.62828 12.0618 5.45302 11.6435 5.26318 10.9348L5.06966 10.2133C5.00943 9.98862 5.14451 9.75846 5.36906 9.69818C5.44572 9.67809 5.52057 9.67809 5.59176 9.69818L7.09233 10.1018C7.8481 10.3064 8.31725 10.5183 8.66412 10.8781C9.01096 11.238 9.19533 11.6964 9.38336 12.3905L9.46734 12.7065L10.6722 13.028L10.4257 12.1111C10.1811 11.1978 9.87261 10.5494 9.40709 10.0818C8.93977 9.61415 8.29352 9.29999 7.37165 9.05523L3.37924 7.98303C2.22065 7.67253 1.34135 6.99731 0.741368 5.95738L0.0568002 4.76463C-0.0600327 4.5637 0.00933754 4.30617 0.210144 4.19109C0.410952 4.07418 0.670174 4.14541 0.785181 4.34452L1.4734 5.53727C1.95534 6.37383 2.66426 6.91754 3.60014 7.16839L5.24675 7.61042C5.1719 7.48621 5.09341 7.3474 5.00396 7.19397L1.69794 1.45307C1.58111 1.25214 1.65048 0.992772 1.85128 0.877699C2.05209 0.762625 2.3113 0.832035 2.42632 1.03296L4.09119 3.92077C4.20073 3.7034 4.35041 3.44768 4.53297 3.13168L5.7451 1.03113C5.86011 0.830208 6.11934 0.760798 6.32014 0.877699C6.52096 0.994599 6.59032 1.25397 6.4735 1.45307L5.26318 3.55363C4.58957 4.71896 4.5713 4.75001 5.2084 5.85326L5.73963 6.77569C6.29094 7.7328 6.39316 7.9118 7.14712 8.11637C7.45563 8.2004 7.63817 8.20223 7.75501 8.1383C7.88279 8.06889 7.9978 7.89354 8.14018 7.64148L8.67506 6.71541C8.7919 6.51631 9.05112 6.4469 9.25192 6.56198C9.45272 6.67887 9.52211 6.93825 9.40526 7.13917L8.87039 8.06523C8.76268 8.25155 8.6568 8.41594 8.54361 8.55292C9.14057 8.79587 9.61519 9.09541 10.0077 9.48994C10.5882 10.0726 10.9643 10.838 11.2472 11.8955L11.6817 13.5139C11.689 13.5431 11.6945 13.5742 11.6963 13.6034V13.6545C11.6945 13.6929 11.6872 13.7331 11.6726 13.7696V13.7787C11.6507 13.8335 11.6178 13.881 11.5795 13.923L11.5667 13.9358C11.5265 13.9742 11.4772 14.0052 11.4225 14.0272H11.4133C11.3768 14.0418 11.3385 14.0509 11.2983 14.0527H11.2509C11.2198 14.0509 11.1906 14.0454 11.1596 14.0363L9.72474 13.6527L10.5517 16.7396C10.8012 17.6748 11.3452 18.3841 12.1837 18.8675L12.2056 18.8821C12.6748 19.1525 12.6821 19.1488 13.1695 18.8675C14.0068 18.3853 14.5502 17.676 14.7997 16.7396L15.6266 13.6527L14.1918 14.0363C14.1626 14.0454 14.1315 14.0509 14.1005 14.0527H14.053C14.0129 14.0509 13.9745 14.0399 13.938 14.029H13.9289C13.8741 14.0052 13.8267 13.9742 13.7847 13.9358L13.7719 13.923C13.7336 13.8828 13.7025 13.8335 13.6806 13.7787V13.7696C13.666 13.7331 13.6569 13.6929 13.6551 13.6545V13.6034C13.6569 13.5742 13.6624 13.5431 13.6697 13.5139L14.1041 11.8955C14.3871 10.838 14.7632 10.0726 15.3437 9.48994C15.7362 9.09358 16.2144 8.79404 16.8077 8.55292C16.6927 8.41594 16.5923 8.25338 16.481 8.06523H16.4828L15.9461 7.13733L15.9443 7.13917Z" fill="#EBEBEB"/>
<path d="M18.2502 20.1118C17.9855 20.1118 17.7701 20.3273 17.7701 20.5922C17.7701 20.857 17.9855 21.0726 18.2502 21.0726C18.5149 21.0726 18.7303 20.857 18.7303 20.5922C18.7303 20.3273 18.5149 20.1118 18.2502 20.1118ZM18.2502 21.0123C18.0184 21.0123 17.8322 20.8242 17.8322 20.594C17.8322 20.3639 18.0202 20.1757 18.2502 20.1757C18.4803 20.1757 18.6683 20.3639 18.6683 20.594C18.6683 20.8242 18.4803 21.0123 18.2502 21.0123Z" fill="#383838"/>
<path d="M18.0529 20.3092C18.0948 20.3019 18.1587 20.2964 18.2263 20.2964C18.3157 20.2964 18.3723 20.311 18.4125 20.3439C18.4435 20.3695 18.4636 20.4078 18.4636 20.4571C18.4636 20.532 18.4088 20.5813 18.3559 20.5978C18.3979 20.616 18.4216 20.6562 18.4362 20.7074C18.4563 20.7786 18.4727 20.8462 18.4837 20.8681H18.3723C18.3632 20.8517 18.3486 20.8078 18.3303 20.7366C18.3121 20.6635 18.2829 20.638 18.2208 20.6361H18.1587V20.8681H18.051V20.3092H18.0529ZM18.1606 20.5576H18.2336C18.3084 20.5576 18.3559 20.5229 18.3559 20.4663C18.3559 20.4023 18.3048 20.3768 18.2354 20.3768C18.1952 20.3768 18.1715 20.3804 18.1606 20.3822V20.5576Z" fill="#383838"/>
<path d="M41.4108 9.41503H38.8442V6.73558C38.8442 6.40169 38.7914 6.18187 38.6911 6.07894C38.5884 5.97599 38.3714 5.9259 38.0348 5.9259H36.6113C36.2774 5.9259 36.0522 5.97876 35.941 6.07894C35.8298 6.18187 35.7742 6.3989 35.7742 6.73558V18.6526C35.7742 18.9865 35.8298 19.2063 35.941 19.3093C36.0522 19.4122 36.2747 19.4623 36.6113 19.4623H38.0348C38.3687 19.4623 38.5884 19.4122 38.6911 19.3093C38.7941 19.2063 38.8442 18.9893 38.8442 18.6526V16.001H41.4108V18.9587C41.4108 20.6142 40.5376 21.4434 38.7886 21.4434H35.8325C34.1028 21.4434 33.238 20.617 33.238 18.9587V6.40169C33.238 4.76565 34.1028 3.94482 35.8325 3.94482H38.7886C40.5348 3.94482 41.4108 4.76286 41.4108 6.40169V9.41503Z" fill="#EBEBEB"/>
<path d="M53.6543 21.4155L52.9563 17.3699H49.2746L48.6323 21.4155H46.1211L49.2163 3.94482H52.8701L56.1904 21.4155H53.6515H53.6543ZM49.5833 15.3332H52.6227L51.0321 6.12345L49.5804 15.3332H49.5833Z" fill="#EBEBEB"/>
<path d="M67.5444 3.94482H69.8609V21.4155H67.322L63.64 8.8029V21.4155H61.3265V3.94482H63.9767L67.5471 16.1957V3.94482H67.5444Z" fill="#EBEBEB"/>
<path d="M85.1691 18.5695V14.2985C85.1691 13.9646 85.1192 13.7448 85.0163 13.6418C84.9133 13.5389 84.6966 13.4888 84.36 13.4888H82.2966C80.6032 13.4888 79.7577 12.6624 79.7577 11.0041V6.39925C79.7577 4.76321 80.6227 3.94238 82.3522 3.94238H85.0858C86.8154 3.94238 87.6803 4.76042 87.6803 6.39925V8.96739H85.1414V6.79156C85.1414 6.45767 85.0858 6.23788 84.9746 6.13492C84.8634 6.03197 84.641 5.98188 84.3044 5.98188H83.1337C82.8 5.98188 82.5749 6.03474 82.4634 6.13492C82.3522 6.23788 82.2966 6.4549 82.2966 6.79156V10.6702C82.2966 11.0041 82.3522 11.2239 82.4634 11.3269C82.5749 11.4298 82.7973 11.4799 83.1337 11.4799H85.1691C86.8794 11.4799 87.736 12.2979 87.736 13.9368V18.959C87.736 20.5951 86.8627 21.4159 85.1135 21.4159H82.4078C80.6783 21.4159 79.8133 20.5979 79.8133 18.959V16.3909H82.3522V18.5667C82.3522 18.9006 82.4078 19.1204 82.519 19.2233C82.6305 19.3263 82.8529 19.3764 83.1893 19.3764H84.36C84.6936 19.3764 84.9133 19.3263 85.0163 19.2233C85.1192 19.1204 85.1691 18.9034 85.1691 18.5667V18.5695Z" fill="#EBEBEB"/>
<path d="M99.9798 21.4155L99.2819 17.3699H95.6002L94.9579 21.4155H92.4467L95.5416 3.94482H99.1956L102.516 21.4155H99.9771H99.9798ZM95.9089 15.3332H98.9483L97.3576 6.12345L95.9059 15.3332H95.9089Z" fill="#EBEBEB"/>
</g>
<defs>
<clipPath id="clip0_18_92">
<rect width="100" height="23.7757" fill="white" transform="translate(0 0.813965)"/>
</clipPath>
</defs>
</svg>
