<svg width="100" height="91" viewBox="0 0 100 91" fill="none" xmlns="http://www.w3.org/2000/svg">
<g clip-path="url(#clip0_18_146)">
<mask id="mask0_18_146" style="mask-type:luminance" maskUnits="userSpaceOnUse" x="0" y="0" width="100" height="91">
<path d="M100 0.805176H0V90.5895H100V0.805176Z" fill="white"/>
</mask>
<g mask="url(#mask0_18_146)">
<path d="M23.4708 66.3182C21.7361 71.2624 18.7548 81.1251 12.8888 81.1251C8.37829 81.1251 5.2557 74.6206 3.32818 70.1516C2.88485 73.8437 2.71779 77.1312 2.65354 79.2308L2.74991 80.0078C2.95552 81.6002 0.648916 82.5505 0.346936 80.7526C-0.803153 74.0426 1.19504 54.3239 2.62141 47.1774C2.96194 45.4501 6.24517 45.6556 5.77613 48.1277C5.13362 51.3446 4.21484 56.9693 3.53378 62.6969C3.73295 61.7851 3.94499 60.8348 4.17629 59.9165C6.07168 52.5967 9.42558 46.3298 15.3302 46.4325C19.1596 46.5031 20.9201 49.277 20.6888 52.8021C20.2775 58.4269 14.7199 66.0485 4.20841 67.6409C5.90463 71.6348 8.98868 80.2068 12.8888 80.2068C18.1765 80.2068 20.9972 70.5497 22.5841 66.0101L23.4708 66.3182ZM3.7715 66.7549C13.1972 65.4322 17.1935 56.963 17.3991 51.6464C17.4698 49.8164 17.0907 47.6782 14.8227 47.4792C9.32921 46.9333 6.11024 56.1154 5.08865 60.1541C4.51681 62.2859 4.11204 64.5589 3.7715 66.7613V66.7549Z" fill="white"/>
<path d="M35.1255 66.3184C33.9755 69.638 31.9001 75.8406 27.8651 75.8406C20.2001 75.8406 20.3093 61.1045 28.2058 61.0659C29.7606 61.0659 30.885 61.9136 30.885 63.538C30.8529 66.3184 27.9359 67.7759 25.4237 67.6025C25.0188 71.0955 25.7321 74.9546 27.9359 74.9224C31.2898 74.8517 33.2558 68.8932 34.2389 66.0101L35.1255 66.3184ZM29.9726 63.538C29.9726 62.5236 29.2979 62.0163 28.5142 62.0483C27.0556 62.0805 26.0084 64.1801 25.565 66.6908C27.5311 66.7935 29.9405 65.7084 29.9726 63.538Z" fill="white"/>
<path d="M53.9001 66.3185C52.3067 70.8261 50.4434 72.823 46.447 74.3447C44.9243 78.1394 42.0715 81.395 38.6149 81.395C37.2205 81.3564 35.9998 80.5474 35.9355 79.0898C35.8649 77.5295 37.2205 76.4122 38.5442 75.8729C40.0026 75.295 41.4612 74.8905 42.881 74.5181L43.3886 74.3511C44.8792 69.3685 44.8792 63.1723 42.6434 63.1401C39.116 63.1017 37.4905 69.85 37.2848 73.1312C37.2527 73.4072 37.2527 73.6769 37.2527 73.9466C37.2527 75.0639 34.0274 74.6208 34.0658 73.2724C34.098 70.4279 33.9952 65.8177 34.3679 61.2074C34.4064 56.9054 34.779 47.1841 40.5745 46.8116C41.1463 46.741 41.1142 47.6206 40.6066 47.7619C38.3321 48.3719 37.6574 55.4542 37.4197 63.3135C37.349 64.938 37.3169 66.5304 37.2848 67.9879C38.2679 64.9701 40.0284 62.2283 42.8104 62.2283C47.7641 62.2283 48.5352 67.9879 46.8775 73.2018C49.8587 71.9175 51.5935 70.0876 53.0134 66.0168L53.8936 66.3249L53.9001 66.3185ZM43.0481 75.3978C41.6924 75.7702 40.2725 76.1746 38.9168 76.714C37.9658 77.1186 36.8094 77.9019 36.8479 79.0513C36.88 80.0015 37.7346 80.4382 38.6149 80.4382C40.5102 80.4382 42.0394 78.2358 43.0546 75.3913L43.0481 75.3978Z" fill="white"/>
<path d="M66.0373 66.0104L66.8855 66.3186C66.0373 68.8613 64.0392 70.1776 61.8353 70.6206C61.2571 73.5037 59.9335 76.6564 57.5305 76.6885C53.5277 76.6885 53.1551 71.8086 53.7333 68.1165C53.1229 67.3717 52.7503 66.492 52.7503 65.5096C52.7182 62.9668 54.9219 61.2397 57.3635 61.2397C60.6852 61.2011 62.073 63.8786 62.2144 66.8644C62.2465 67.5771 62.1823 68.5595 62.0152 69.6447C63.7757 69.2016 65.337 68.0523 66.0502 66.0169L66.0373 66.0104ZM57.3891 62.1514C55.4552 62.1514 53.6241 63.4356 53.6627 65.471C53.6627 65.9461 53.7911 66.3828 54.0032 66.8258C54.2409 65.7728 54.5428 64.9253 54.8512 64.418C55.6993 62.8962 58.0703 64.9959 57.6654 66.081C57.357 66.5883 56.9522 67.7761 56.6824 69.1631C57.9674 69.7409 59.5287 69.9785 61.0193 69.8052C61.2185 68.6173 61.2892 67.5322 61.2892 66.8901C61.1929 64.4501 60.2098 62.145 57.3891 62.145V62.1514ZM56.509 70.0813C56.0335 72.791 56.0335 75.7702 57.5562 75.7702C59.2846 75.6996 60.2997 73.1954 60.8459 70.7554C59.3553 70.8903 57.8261 70.6206 56.509 70.0813Z" fill="white"/>
<path d="M73.9977 80.0079C76.7798 80.1106 80.1337 68.3538 80.9497 66.0165L81.83 66.3248C80.8855 69.1051 77.4224 81.0288 73.9656 80.9582C68.8448 80.8233 70.2713 70.1131 71.1193 65.2717C69.9307 65.1368 68.6779 64.8351 67.5919 64.2893C67.2193 65.4387 66.8403 66.4597 66.7117 66.9348C66.4033 67.5127 65.6259 67.1724 65.8251 66.6651C65.9279 66.2606 66.3712 65.1048 66.7759 63.782C65.6966 62.9345 64.9448 61.7145 64.9448 59.8524C64.9448 57.9904 65.9279 57.3097 66.8788 57.3097C67.7911 57.2712 68.6714 57.9197 68.6071 59.6791C68.575 60.6293 68.3309 61.7466 68.0674 62.8317C69.391 63.2363 71.0872 63.14 72.475 63.1014C73.7665 63.0693 74.8458 63.5381 74.4411 65.6056C73.5223 70.2158 71.7618 79.9693 73.9977 80.0079ZM67.6241 60.2891C67.6948 58.6261 65.8958 58.8315 65.9985 60.3918C66.0371 61.1366 66.474 62.0548 67.1872 62.4593C67.2835 62.0548 67.6241 61.0724 67.6241 60.2891Z" fill="white"/>
<path d="M100 66.4215C99.2872 68.7587 98.3041 71.7444 96.5051 75.231C95.7212 76.7207 94.3012 79.4304 92.3673 79.501C85.7944 79.6037 92.7078 63.3073 90.0286 63.2687C87.6899 63.2367 84.8757 74.178 83.8926 76.7848C83.6549 77.8701 80.5708 79.4625 80.6415 73.8697C80.6737 71.3655 80.4745 68.8936 80.8086 66.3829C81.117 64.4502 84.5031 64.2769 84.1304 66.415C83.7192 68.9192 83.822 71.3977 83.8926 73.8376C85.2484 69.4007 87.4907 62.1836 90.472 62.1836C97.1476 62.556 90.0607 78.4801 92.74 78.4801C93.7936 78.4415 95.2457 75.597 95.657 74.788C97.456 71.3655 98.4004 68.4505 99.1136 66.1518L100 66.4215Z" fill="white"/>
<path d="M49.0683 39.6652C48.1045 39.9926 47.1537 40.3586 46.1256 40.4485C44.4936 40.5898 43.9475 40.0954 43.9346 38.4773C43.9089 34.8495 43.6327 31.2216 43.8575 27.5938L43.9154 27.1636C44.1081 26.2196 44.2944 25.2758 44.4873 24.3319C44.5707 24.0943 44.6542 23.8568 44.7378 23.6127C45.2582 22.5469 45.8557 21.526 46.7809 20.7104C45.406 20.8261 44.5707 21.6865 43.8447 22.6946C41.9043 26.1555 41.8272 29.9695 41.7244 33.7835L41.763 34.1238C41.7501 34.0083 41.7373 33.8991 41.7244 33.7835C41.6923 34.9779 41.6601 36.1657 41.6217 37.3601C41.5959 37.6361 41.5766 37.9123 41.5509 38.1883C41.4546 38.8625 41.4096 39.5303 41.5316 40.2045L41.6345 40.6347C42.0264 42.6702 43.9411 43.8195 46.0421 43.1646C47.2692 42.7793 48.4322 42.2078 49.6272 41.7263C51.0986 41.142 52.5957 40.7696 54.1956 41.0714C55.1271 41.2447 55.8467 41.9125 56.7656 42.1051C54.6067 39.0808 52.6278 38.458 49.049 39.6652H49.0683ZM41.9043 37.1546C41.9043 36.1401 41.9108 35.1191 41.9172 34.1047C41.8979 33.8799 41.8979 33.6615 41.9043 33.4433C41.8979 33.6615 41.9043 33.8863 41.9172 34.1047C41.9172 35.1191 41.9108 36.1401 41.9043 37.1546ZM42.5469 40.8338C42.5918 40.8788 42.6239 40.9301 42.6432 41.0007C42.6239 40.9301 42.5918 40.8723 42.5469 40.8338ZM49.4603 41.0393C49.184 40.9044 48.9077 40.7696 48.6314 40.6283C48.9077 40.7631 49.184 40.898 49.4603 41.0393Z" fill="white"/>
<path d="M55.8271 16.0679C55.6729 16.9796 55.3259 17.7244 54.5485 18.2445L52.788 18.4564C53.5911 18.8803 54.2401 18.9187 54.9148 18.8095C56.1998 18.6297 56.7523 18.0455 56.9322 16.588C57.0607 15.522 57.0158 14.4241 57.6775 13.4866C57.7804 13.3389 57.7804 13.1913 57.6647 13.0243C57.125 12.2859 57.247 11.419 57.2342 10.5907C57.2213 9.92939 57.3049 9.25519 57.0221 8.61951C57.1892 8.42046 57.1185 8.21499 57.0221 8.01594C57.0221 7.30321 56.6045 6.78311 56.4118 6.44922C56.3925 6.79595 56.2382 7.39953 56.4567 7.95815C56.4311 8.02878 56.4567 8.08015 56.5338 8.09299C56.4053 8.25351 56.4182 8.42046 56.4889 8.60024L56.4696 9.04329L56.4246 9.64045C56.309 10.7705 56.052 11.9135 56.643 12.9986C56.7395 13.172 56.6495 13.3196 56.5596 13.461C56.0648 14.2571 55.9877 15.1753 55.84 16.0614L55.8271 16.0679Z" fill="white"/>
<path d="M67.6179 40.8143C67.6436 40.3392 67.3545 39.986 67.1296 39.62C65.7997 37.4433 63.7822 36.1399 61.4434 35.2986C60.8202 35.074 60.6145 34.8813 60.7816 34.175C61.2313 32.3065 60.7109 30.65 59.4259 29.2309C58.0703 27.5551 56.4575 26.1809 54.5814 25.115C53.7333 24.0363 52.4933 23.3493 51.6837 22.2257C51.5359 21.9816 51.3882 21.7441 51.2404 21.5C51.0347 20.7167 50.8227 19.9397 50.9577 19.1178C50.9577 19.0986 50.9962 19.0794 51.0219 19.0601H50.9833C49.7883 20.4535 49.7627 21.6798 50.8999 23.1951C50.9705 23.298 51.0476 23.4007 51.1183 23.4969L51.523 24.0876C53.1357 25.7379 54.8062 27.3367 56.3547 29.0383C58.3144 31.1957 59.3167 33.5972 57.5948 36.5186C59.1561 36.7049 60.4476 37.3534 61.694 38.1111L62.7798 38.9779C62.7991 39.0421 62.844 39.0806 62.9147 39.0935L62.9276 39.1513L62.9855 39.1641C63.3709 39.62 63.7564 40.0695 64.1419 40.5253L64.2768 40.6666C64.2768 40.7309 64.3026 40.7822 64.3539 40.8208C65.0221 42.1177 65.594 43.4469 65.8188 44.8981C65.8703 44.8981 65.9217 44.8981 65.9666 44.8981C65.9987 44.7246 66.0116 44.5513 66.0116 44.3843C66.0116 44.5513 65.9924 44.7183 65.9666 44.8981C65.9152 44.8981 65.8639 44.8981 65.8188 44.8981C65.851 45.6942 65.8831 46.484 65.9152 47.2803L66.1723 46.9335C66.1723 46.9335 66.2236 46.8757 66.2429 46.8436C66.2236 46.8757 66.198 46.9014 66.1723 46.9335C66.0888 47.049 65.9987 47.1646 65.9152 47.2803C65.8831 47.5114 65.8574 47.7361 65.8253 47.9672C65.8767 47.9609 65.9281 47.9544 65.9794 47.9544C65.9794 48.2947 65.9666 48.6286 65.9603 48.9689C65.8703 48.9689 65.7739 48.9689 65.684 48.9689L65.5812 49.3863L65.4077 50.0349C64.8808 51.8327 64.1162 53.5343 63.3773 55.2614C64.6045 54.4075 65.5555 53.3416 66.1915 52.0125C67.3352 50.3302 67.9906 48.4616 68.299 46.4647C68.6009 44.5192 68.5045 42.6122 67.6051 40.8078L67.6179 40.8143ZM51.3046 22.8998C51.3624 22.7649 51.5809 22.72 51.6966 22.6173C51.5745 22.72 51.3624 22.7649 51.3046 22.8998ZM54.7549 26.5597C54.3372 26.412 54.0032 26.1616 53.7076 25.8663C54.0032 26.1553 54.3372 26.412 54.7549 26.5597ZM61.7068 37.9826C61.6169 37.9313 61.5397 37.8543 61.4755 37.7772C61.5397 37.8543 61.6104 37.9313 61.7068 37.9826ZM64.1419 40.2236L63.9428 40.0052C64.007 40.0759 64.0776 40.1529 64.1419 40.2236ZM66.1723 45.5144C66.0823 45.4631 66.0373 45.3924 66.0116 45.3154C66.0373 45.3924 66.0888 45.4631 66.1723 45.5144C66.1081 45.6814 66.1465 45.8484 66.1979 46.0153C66.1402 45.8484 66.1081 45.6814 66.1723 45.5144Z" fill="white"/>
<path d="M42.3801 12.5109C42.4251 13.5767 42.605 14.6169 43.0547 15.5993C42.984 14.7582 42.9197 13.917 42.8491 13.0759C42.8491 12.9411 42.862 12.8126 42.862 12.6777C42.8748 12.3502 42.8876 12.0228 42.8941 11.6953C43.0419 9.44159 43.6973 7.33551 44.828 5.37712L45.175 4.90839L45.2907 4.74786L45.3485 4.7286V4.6708C45.6762 4.35618 46.0038 4.03514 46.3251 3.72051C46.6399 3.52146 46.9419 3.30314 47.2696 3.12978C48.0277 2.73168 48.8052 2.44916 49.679 2.71884C48.5867 3.43799 47.533 4.19566 46.8776 5.39638C47.9634 4.81208 48.9722 4.09293 50.1415 3.6884C50.6428 3.6242 51.1439 3.51504 51.6451 3.50219C53.1678 3.46366 53.8103 4.14429 53.7203 5.6789C53.6497 6.90531 53.1035 7.9455 52.3647 8.89581C51.2082 10.379 49.6983 11.4834 48.2848 12.6905C46.974 13.8078 45.5991 14.8544 44.5839 16.2799C43.6458 17.3458 42.9969 18.5465 42.7656 19.9591C42.5278 20.7745 42.5407 21.6029 42.7656 22.4568C42.8876 21.8405 43.0033 21.224 43.1254 20.6077C43.6715 19.2785 44.4361 18.0778 45.3485 16.9798L45.5733 16.7422C45.6762 16.6266 45.7853 16.5111 45.8882 16.3955C46.4472 15.9011 46.9998 15.4131 47.5587 14.9187C47.7386 14.8673 47.7965 14.7132 47.8478 14.5591C48.7088 14.2252 49.3448 13.5831 49.9937 12.9602C50.6749 12.5558 51.2917 12.0678 51.7993 11.4578C52.4546 10.9184 53.0842 10.3534 53.5083 9.60853C54.7483 8.22802 55.2752 6.57783 55.3074 4.7607C55.3202 3.92598 55.1982 2.97567 54.4399 2.58399C53.1164 1.90338 51.8699 0.94023 50.3214 0.818232C46.8006 0.54213 43.3696 3.3224 42.6756 6.94383C42.4636 7.26488 42.4314 7.63087 42.4379 8.00329C42.3029 8.19592 42.3159 8.41423 42.3415 8.63254C42.123 9.92315 42.1937 11.2138 42.3672 12.5044L42.3801 12.5109Z" fill="white"/>
<path d="M65.6968 48.9755H65.9731C65.9731 48.6352 65.9859 48.2949 65.9924 47.9546C65.941 47.9546 65.8895 47.9546 65.8381 47.9674L65.6968 48.9755Z" fill="white"/>
<path d="M6.65002 88.0406C6.67571 89.2671 5.89185 90.5062 4.20206 90.5062H2.56366V85.6777H4.20206C5.83403 85.6777 6.62432 86.8528 6.65002 88.0341V88.0406ZM2.93632 86.0372V90.1531H4.20206C5.63485 90.1531 6.29663 89.0743 6.27736 88.0406C6.25809 87.0326 5.5963 86.0372 4.20206 86.0372H2.93632Z" fill="white"/>
<path d="M12.2207 88.0983C12.2143 89.3697 11.4048 90.5897 9.7856 90.5897C8.16648 90.5897 7.35049 89.3632 7.35049 88.0855C7.35049 86.8077 8.16005 85.6006 9.7856 85.6006C11.4111 85.6006 12.2271 86.7949 12.2207 88.0983ZM7.71673 88.092C7.71673 89.1834 8.41063 90.2429 9.7856 90.2429C11.1606 90.2429 11.861 89.1834 11.861 88.092C11.861 87.0004 11.1734 85.9474 9.7856 85.9474C8.39778 85.9474 7.7103 86.9554 7.71673 88.092Z" fill="white"/>
<path d="M16.795 85.6777V88.6763C16.795 91.1998 13.0941 91.2061 13.0941 88.6763V85.6777H13.4604V88.6763C13.4604 90.7503 16.4287 90.7438 16.4287 88.6763V85.6777H16.795Z" fill="white"/>
<path d="M18.1765 85.6777V90.1531H20.8943V90.5062H17.8039V85.6777H18.1765Z" fill="white"/>
<path d="M25.4371 90.5062L24.9039 89.3184H22.0189L21.492 90.5062H21.0938L23.259 85.6777H23.6638L25.8291 90.5062H25.4306H25.4371ZM24.7624 88.9781L23.4646 86.0437L22.1667 88.9781H24.7624Z" fill="white"/>
<path d="M31.3863 86.8463C31.3863 86.0886 30.7951 85.9602 30.1526 85.9602C29.2274 85.9602 28.7841 86.384 28.7905 86.9297C28.7969 87.6681 29.5872 87.8928 30.1655 87.8928H32.2151V88.1883H31.7717V89.2413C31.7717 89.7614 31.8874 90.2237 32.3757 90.2172V90.5062C31.9838 90.564 31.6754 90.3008 31.5661 89.8898C31.2127 90.4613 30.6602 90.564 30.1462 90.564C28.9704 90.564 28.36 90.0503 28.36 89.222C28.36 88.6249 28.8484 88.2011 29.3302 88.0405C28.8291 87.8928 28.4371 87.4691 28.4371 86.9297C28.4371 86.1849 29.0539 85.6455 30.1526 85.6455C30.9236 85.6455 31.7075 85.8446 31.7075 86.8398H31.3798L31.3863 86.8463ZM31.4697 88.1883H30.1462C29.1952 88.1883 28.7134 88.7276 28.7134 89.222C28.7134 89.8448 29.1696 90.2429 30.1397 90.2429C30.6923 90.2429 31.4697 90.0503 31.4697 89.2413V88.1883Z" fill="white"/>
<path d="M39.1222 89.8386C38.6404 90.3202 37.9978 90.5643 37.3617 90.5643C35.7362 90.5643 34.8817 89.4277 34.8752 88.1243C34.8624 86.8336 35.7041 85.6265 37.3617 85.6265C37.9978 85.6265 38.6404 85.8705 39.1222 86.3521L38.8652 86.5704C38.454 86.153 37.9079 85.9539 37.3617 85.9539C35.9547 85.9539 35.2287 86.9493 35.2351 88.105C35.2479 89.2351 35.9675 90.2175 37.3617 90.2175C37.9079 90.2175 38.4605 90.012 38.8717 89.601L39.1159 89.8323L39.1222 89.8386Z" fill="white"/>
<path d="M44.6483 88.0983C44.6419 89.3697 43.8323 90.5897 42.2133 90.5897C40.5941 90.5897 39.7781 89.3632 39.7781 88.0855C39.7781 86.8077 40.5877 85.6006 42.2133 85.6006C43.8388 85.6006 44.6547 86.7949 44.6483 88.0983ZM40.1444 88.092C40.1444 89.1834 40.8382 90.2429 42.2133 90.2429C43.5882 90.2429 44.2885 89.1834 44.2885 88.092C44.2885 87.0004 43.601 85.9474 42.2133 85.9474C40.8254 85.9474 40.1379 86.9554 40.1444 88.092Z" fill="white"/>
<path d="M49.3703 90.5062L48.837 89.3184H45.9522L45.4253 90.5062H45.027L47.1922 85.6777H47.5969L49.7622 90.5062H49.3639H49.3703ZM48.6957 88.9781L47.3978 86.0437L46.1 88.9781H48.6957Z" fill="white"/>
<path d="M54.0866 89.8386C53.6048 90.3202 52.9622 90.5643 52.3261 90.5643C50.7006 90.5643 49.8461 89.4277 49.8396 88.1243C49.8268 86.8336 50.6685 85.6265 52.3261 85.6265C52.9622 85.6265 53.6048 85.8705 54.0866 86.3521L53.8296 86.5704C53.4184 86.153 52.8723 85.9539 52.3261 85.9539C50.9191 85.9539 50.193 86.9493 50.1994 88.105C50.2123 89.2351 50.9319 90.2175 52.3261 90.2175C52.8723 90.2175 53.4249 90.012 53.8361 89.601L54.0801 89.8323L54.0866 89.8386Z" fill="white"/>
<path d="M58.4038 90.5062V88.3103H55.3262V90.5062H54.9536V85.6777H55.3262V87.9764H58.4038V85.6777H58.7765V90.5062H58.4038Z" fill="white"/>
<path d="M64.8611 86.609C64.5077 86.044 63.9423 85.9605 63.3961 85.9541C62.8307 85.9541 61.9312 86.1596 61.9312 86.9301C61.9312 87.5465 62.5931 87.6878 63.4091 87.8418C64.3406 88.0216 65.3044 88.1886 65.3044 89.2288C65.2979 90.3204 64.1993 90.5772 63.3961 90.5772C62.6445 90.5772 61.7899 90.2689 61.4172 89.5306L61.7449 89.3636C62.0405 89.9479 62.7986 90.2433 63.3961 90.2433C63.9937 90.2433 64.9318 90.0763 64.9318 89.2224C64.9381 88.4967 64.1414 88.3427 63.3447 88.1886C62.4646 88.0152 61.5586 87.8355 61.5586 86.9493C61.5393 85.9284 62.5994 85.6138 63.3961 85.6138C64.0836 85.6138 64.6876 85.723 65.1631 86.4357L64.8611 86.6155V86.609Z" fill="white"/>
<path d="M66.4612 87.9058H69.2883V88.2461H66.4612V90.1466H69.5132V90.5062H66.095V85.6777H69.4296V86.0309H66.4612V87.9058Z" fill="white"/>
<path d="M74.1842 90.5062H73.6959L72.0253 88.6827H70.7082V90.5062H70.3355V85.6777H72.4622C73.5095 85.6777 74.0428 86.4289 74.0492 87.1802C74.0557 87.9635 73.5416 88.6571 72.4815 88.6571L74.1842 90.5062ZM70.7082 88.3295H72.4172C73.259 88.3295 73.6316 87.8544 73.638 87.1802C73.6445 86.6152 73.2589 86.0309 72.4558 86.0309H70.7018V88.336L70.7082 88.3295Z" fill="white"/>
<path d="M78.8033 85.6777L76.8179 90.5191H76.4196L74.4343 85.6777H74.8326L76.6187 90.0889L78.405 85.6777H78.8033Z" fill="white"/>
<path d="M79.4525 90.5062V85.6777H79.8187V90.5062H79.4525Z" fill="white"/>
<path d="M84.8622 89.8386C84.3804 90.3202 83.7378 90.5643 83.1017 90.5643C81.4761 90.5643 80.6217 89.4277 80.6152 88.1243C80.6024 86.8336 81.444 85.6265 83.1017 85.6265C83.7378 85.6265 84.3804 85.8705 84.8622 86.3521L84.6052 86.5704C84.194 86.153 83.6479 85.9539 83.1017 85.9539C81.6947 85.9539 80.9685 86.9493 80.975 88.105C80.9878 89.2351 81.7075 90.2175 83.1017 90.2175C83.6479 90.2175 84.2004 90.012 84.6116 89.601L84.8557 89.8323L84.8622 89.8386Z" fill="white"/>
<path d="M86.0962 87.9058H88.9233V88.2461H86.0962V90.1466H89.1481V90.5062H85.7299V85.6777H89.0646V86.0309H86.0962V87.9058Z" fill="white"/>
<path d="M93.2344 86.609C92.881 86.044 92.3155 85.9605 91.7694 85.9541C91.2041 85.9541 90.3045 86.1596 90.3045 86.9301C90.3045 87.5465 90.9663 87.6878 91.7823 87.8418C92.7139 88.0216 93.6777 88.1886 93.6777 89.2288C93.6713 90.3204 92.5726 90.5772 91.7694 90.5772C91.0177 90.5772 90.1632 90.2689 89.7906 89.5306L90.1183 89.3636C90.4137 89.9479 91.1719 90.2433 91.7694 90.2433C92.367 90.2433 93.3051 90.0763 93.3051 89.2224C93.3114 88.4967 92.5147 88.3427 91.718 88.1886C90.8378 88.0152 89.9319 87.8355 89.9319 86.9493C89.9126 85.9284 90.9727 85.6138 91.7694 85.6138C92.457 85.6138 93.0609 85.723 93.5363 86.4357L93.2344 86.6155V86.609Z" fill="white"/>
</g>
</g>
<defs>
<clipPath id="clip0_18_146">
<rect width="100" height="89.7843" fill="white" transform="translate(0 0.805176)"/>
</clipPath>
</defs>
</svg>
