<svg width="179" height="132" viewBox="0 0 179 132" fill="none" xmlns="http://www.w3.org/2000/svg">
<path d="M35.4391 131.43C35.3881 131.43 35.3371 131.408 35.2931 131.372C35.2491 131.335 35.2271 131.284 35.2271 131.225C35.2271 131.196 35.2271 131.166 35.2491 131.137L37.6611 124.687C37.6831 124.621 37.7191 124.562 37.7781 124.511C37.8371 124.459 37.9101 124.438 38.0131 124.438H39.1051C39.2081 124.438 39.2811 124.459 39.3321 124.511C39.3841 124.562 39.4281 124.621 39.4501 124.687L41.8621 131.137C41.8621 131.137 41.869 131.203 41.869 131.225C41.869 131.284 41.8471 131.335 41.8101 131.372C41.7741 131.408 41.7221 131.43 41.6711 131.43H40.7991C40.7031 131.43 40.637 131.408 40.593 131.364C40.549 131.32 40.5201 131.276 40.5051 131.24L40.0361 130.023H37.067L36.5981 131.24C36.5831 131.276 36.5541 131.32 36.5101 131.364C36.4661 131.408 36.4 131.43 36.304 131.43H35.4321H35.4391ZM37.4191 128.872H39.6911L38.5551 125.786L37.4261 128.872H37.4191Z" fill="white"/>
<path d="M49.4432 131.437C49.3772 131.437 49.3182 131.415 49.2742 131.364C49.2302 131.32 49.2012 131.261 49.2012 131.195V124.686C49.2012 124.613 49.2232 124.554 49.2742 124.503C49.3182 124.459 49.3772 124.43 49.4432 124.43H51.8852C52.5592 124.43 53.1092 124.532 53.5492 124.738C53.9892 124.943 54.3192 125.251 54.5392 125.654C54.7582 126.057 54.8762 126.555 54.8832 127.142C54.8982 127.435 54.9052 127.692 54.9052 127.919C54.9052 128.146 54.9052 128.403 54.8832 128.688C54.8682 129.312 54.7582 129.817 54.5462 130.22C54.3332 130.624 54.0112 130.924 53.5782 131.122C53.1462 131.32 52.6032 131.415 51.9362 131.415H49.4432V131.437ZM50.5942 130.286H51.8852C52.2582 130.286 52.5592 130.235 52.7942 130.125C53.0282 130.015 53.1972 129.847 53.3072 129.612C53.4172 129.377 53.4752 129.062 53.4832 128.674C53.4832 128.476 53.4972 128.3 53.4972 128.146C53.4972 127.992 53.4972 127.845 53.4972 127.699C53.4972 127.552 53.4902 127.376 53.4832 127.186C53.4682 126.636 53.3362 126.233 53.0722 125.976C52.8162 125.72 52.3982 125.588 51.8332 125.588H50.5942V130.286Z" fill="white"/>
<path d="M64.4659 131.43C64.3559 131.43 64.2749 131.401 64.2169 131.35C64.1579 131.298 64.1139 131.232 64.0849 131.152L61.9439 124.731C61.9439 124.731 61.9219 124.665 61.9219 124.643C61.9219 124.584 61.9439 124.533 61.9809 124.496C62.0169 124.459 62.0689 124.438 62.1269 124.438H63.0069C63.1019 124.438 63.1679 124.459 63.2199 124.511C63.2709 124.562 63.2999 124.606 63.3149 124.657L65.0009 129.803L66.6799 124.657C66.7019 124.613 66.7389 124.562 66.7829 124.511C66.8269 124.459 66.9069 124.438 66.9949 124.438H67.8749C67.9259 124.438 67.9779 124.459 68.0219 124.496C68.0659 124.533 68.0879 124.584 68.0879 124.643C68.0879 124.672 68.0879 124.701 68.0659 124.731L65.9249 131.152C65.8959 131.232 65.8519 131.298 65.7929 131.35C65.7339 131.401 65.6459 131.43 65.5439 131.43H64.4439H64.4659Z" fill="white"/>
<path d="M78.0412 131.531C77.4472 131.531 76.9412 131.436 76.5082 131.238C76.0832 131.04 75.7462 130.739 75.5112 130.329C75.2772 129.919 75.1452 129.405 75.1232 128.797C75.1232 128.511 75.1152 128.225 75.1152 127.947C75.1152 127.668 75.1152 127.382 75.1232 127.089C75.1452 126.481 75.2772 125.975 75.5262 125.572C75.7752 125.169 76.1122 124.861 76.5382 124.656C76.9702 124.45 77.4692 124.348 78.0412 124.348C78.6122 124.348 79.1182 124.45 79.5512 124.656C79.9832 124.861 80.3213 125.169 80.5703 125.572C80.8193 125.975 80.9512 126.488 80.9732 127.089C80.9882 127.382 80.9952 127.668 80.9952 127.947C80.9952 128.225 80.9952 128.511 80.9732 128.797C80.9512 129.413 80.8272 129.919 80.5852 130.329C80.3432 130.739 80.0132 131.04 79.5802 131.238C79.1482 131.436 78.6422 131.531 78.0482 131.531H78.0412ZM78.0412 130.38C78.4732 130.38 78.8252 130.256 79.1042 129.992C79.3752 129.735 79.5212 129.317 79.5432 128.738C79.5582 128.445 79.5663 128.174 79.5663 127.925C79.5663 127.676 79.5652 127.404 79.5432 127.118C79.5292 126.73 79.4562 126.415 79.3312 126.173C79.1992 125.931 79.0233 125.755 78.8033 125.645C78.5833 125.535 78.3262 125.476 78.0412 125.476C77.7552 125.476 77.5132 125.535 77.2932 125.645C77.0732 125.755 76.8973 125.931 76.7653 126.173C76.6333 126.415 76.5602 126.73 76.5522 127.118C76.5522 127.404 76.5453 127.676 76.5453 127.925C76.5453 128.174 76.5452 128.445 76.5522 128.738C76.5742 129.317 76.7212 129.735 76.9922 129.992C77.2632 130.248 77.6152 130.38 78.0412 130.38Z" fill="white"/>
<path d="M91.4001 131.53C90.7771 131.53 90.2571 131.42 89.8241 131.208C89.3921 130.988 89.0691 130.68 88.8421 130.277C88.6141 129.874 88.4901 129.39 88.4601 128.825C88.4601 128.554 88.4531 128.261 88.4531 127.946C88.4531 127.631 88.4531 127.33 88.4601 127.044C88.4901 126.487 88.6141 126.003 88.8491 125.593C89.0761 125.19 89.4061 124.874 89.8391 124.655C90.2711 124.435 90.7921 124.332 91.4001 124.332C91.8551 124.332 92.2581 124.391 92.6171 124.515C92.9771 124.633 93.2851 124.801 93.5341 125.014C93.7901 125.226 93.9811 125.468 94.1201 125.747C94.2601 126.025 94.3331 126.333 94.3401 126.656C94.3401 126.714 94.3261 126.766 94.2891 126.802C94.2451 126.839 94.1941 126.861 94.1351 126.861H93.1821C93.1091 126.861 93.0501 126.846 92.9991 126.802C92.9551 126.766 92.9181 126.707 92.8961 126.619C92.7861 126.179 92.6031 125.879 92.3461 125.717C92.0901 125.556 91.7601 125.476 91.3781 125.476C90.9311 125.476 90.5721 125.6 90.3081 125.849C90.0441 126.099 89.8971 126.509 89.8751 127.081C89.8531 127.631 89.8531 128.188 89.8751 128.759C89.8971 129.331 90.0371 129.742 90.3081 129.991C90.5721 130.24 90.9311 130.365 91.3781 130.365C91.7671 130.365 92.0901 130.284 92.3461 130.123C92.6031 129.962 92.7861 129.661 92.8961 129.229C92.9181 129.133 92.9471 129.075 92.9991 129.038C93.0431 129.001 93.1091 128.987 93.1821 128.987H94.1351C94.1941 128.987 94.2451 129.009 94.2891 129.045C94.3331 129.082 94.3481 129.133 94.3401 129.192C94.3401 129.522 94.2601 129.822 94.1201 130.101C93.9811 130.379 93.7831 130.629 93.5341 130.834C93.2771 131.046 92.9771 131.208 92.6171 131.332C92.2581 131.45 91.8481 131.515 91.4001 131.515V131.53Z" fill="white"/>
<path d="M101.431 131.43C101.38 131.43 101.329 131.408 101.285 131.372C101.241 131.335 101.219 131.284 101.219 131.225C101.219 131.196 101.219 131.166 101.241 131.137L103.653 124.687C103.675 124.621 103.711 124.562 103.77 124.511C103.829 124.459 103.902 124.438 104.005 124.438H105.097C105.2 124.438 105.273 124.459 105.324 124.511C105.376 124.562 105.42 124.621 105.442 124.687L107.854 131.137C107.854 131.137 107.861 131.203 107.861 131.225C107.861 131.284 107.839 131.335 107.802 131.372C107.766 131.408 107.715 131.43 107.663 131.43H106.791C106.695 131.43 106.629 131.408 106.585 131.364C106.541 131.32 106.512 131.276 106.497 131.24L106.028 130.023H103.059L102.59 131.24C102.575 131.276 102.546 131.32 102.502 131.364C102.458 131.408 102.392 131.43 102.296 131.43H101.424H101.431ZM103.411 128.872H105.684L104.547 125.786L103.418 128.872H103.411Z" fill="white"/>
<path d="M117.746 131.53C117.123 131.53 116.602 131.42 116.17 131.208C115.737 130.988 115.415 130.68 115.187 130.277C114.96 129.874 114.835 129.39 114.806 128.825C114.806 128.554 114.799 128.261 114.799 127.946C114.799 127.631 114.799 127.33 114.806 127.044C114.835 126.487 114.96 126.003 115.195 125.593C115.422 125.19 115.752 124.874 116.185 124.655C116.617 124.435 117.138 124.332 117.746 124.332C118.201 124.332 118.604 124.391 118.963 124.515C119.322 124.633 119.63 124.801 119.88 125.014C120.136 125.226 120.327 125.468 120.466 125.747C120.605 126.025 120.679 126.333 120.686 126.656C120.686 126.714 120.671 126.766 120.635 126.802C120.591 126.839 120.539 126.861 120.481 126.861H119.528C119.454 126.861 119.396 126.846 119.344 126.802C119.3 126.766 119.264 126.707 119.242 126.619C119.132 126.179 118.948 125.879 118.692 125.717C118.435 125.556 118.105 125.476 117.724 125.476C117.277 125.476 116.918 125.6 116.654 125.849C116.39 126.099 116.243 126.509 116.221 127.081C116.199 127.631 116.199 128.188 116.221 128.759C116.243 129.331 116.382 129.742 116.654 129.991C116.918 130.24 117.277 130.365 117.724 130.365C118.113 130.365 118.435 130.284 118.692 130.123C118.948 129.962 119.132 129.661 119.242 129.229C119.264 129.133 119.293 129.075 119.344 129.038C119.388 129.001 119.454 128.987 119.528 128.987H120.481C120.539 128.987 120.591 129.009 120.635 129.045C120.679 129.082 120.693 129.133 120.686 129.192C120.686 129.522 120.605 129.822 120.466 130.101C120.327 130.379 120.129 130.629 119.88 130.834C119.623 131.046 119.322 131.208 118.963 131.332C118.604 131.45 118.193 131.515 117.746 131.515V131.53Z" fill="white"/>
<path d="M128.527 131.434C128.461 131.434 128.402 131.412 128.358 131.361C128.314 131.317 128.285 131.258 128.285 131.192V124.675C128.285 124.61 128.307 124.551 128.358 124.507C128.402 124.463 128.461 124.434 128.527 124.434H129.466C129.539 124.434 129.597 124.456 129.641 124.507C129.685 124.551 129.707 124.61 129.707 124.675V131.192C129.707 131.258 129.685 131.317 129.641 131.361C129.597 131.404 129.539 131.434 129.466 131.434H128.527Z" fill="white"/>
<path d="M137.246 131.43C137.194 131.43 137.143 131.408 137.099 131.372C137.055 131.335 137.033 131.284 137.033 131.225C137.033 131.196 137.033 131.166 137.055 131.137L139.467 124.687C139.489 124.621 139.526 124.562 139.585 124.511C139.643 124.459 139.717 124.438 139.819 124.438H140.912C141.014 124.438 141.088 124.459 141.139 124.511C141.19 124.562 141.234 124.621 141.256 124.687L143.668 131.137C143.668 131.137 143.676 131.203 143.676 131.225C143.676 131.284 143.654 131.335 143.617 131.372C143.58 131.408 143.529 131.43 143.478 131.43H142.605C142.51 131.43 142.444 131.408 142.4 131.364C142.356 131.32 142.327 131.276 142.312 131.24L141.843 130.023H138.873L138.404 131.24C138.39 131.276 138.36 131.32 138.316 131.364C138.272 131.408 138.206 131.43 138.111 131.43H137.238H137.246ZM139.225 128.872H141.498L140.362 125.786L139.233 128.872H139.225Z" fill="white"/>
<path d="M10.566 81.5413C13.249 81.1602 15.207 79.5402 15.207 77.3119C15.207 74.3945 12.216 73.207 8.16101 73.207H0.229004V74.094C1.394 74.094 2.23001 74.2992 2.23001 75.538V87.8525C2.23001 89.0913 1.394 89.2965 0.229004 89.2965V90.1835H8.616C13.205 90.1835 15.837 88.4316 15.837 85.4482C15.837 83.1906 13.961 81.7759 10.566 81.5486V81.5413ZM6.944 74.4238H7.32501C8.99701 74.4238 10.441 75.2595 10.441 77.847C10.441 79.7748 9.37801 81.1382 7.45001 81.1382H6.944V74.4238ZM7.57501 88.9667H6.944V82.355H7.34698C9.75198 82.355 10.896 83.9749 10.896 85.7488C10.896 88.0284 9.50301 88.9667 7.57501 88.9667Z" fill="white"/>
<path d="M23.8191 78.4688C19.8681 78.4688 17.4341 80.7263 17.4341 84.6039C17.4341 88.4815 19.8381 90.4826 23.7971 90.4826C26.6131 90.4826 28.5341 89.1632 29.3471 86.7296L28.6361 86.3265C27.8001 87.47 26.6861 87.9977 25.3661 87.9977C23.4161 87.9977 22.3241 86.627 21.9431 84.6772H29.5451C29.5451 80.7776 27.7201 78.4688 23.8191 78.4688ZM24.5531 83.4604H21.7891C21.7671 83.2552 21.7671 83.0793 21.7671 82.874C21.7671 80.8436 22.4781 79.5828 23.5411 79.5828C24.6851 79.5828 25.6161 81.1001 25.6161 82.6761C25.6161 83.3871 25.2341 83.4604 24.5531 83.4604Z" fill="white"/>
<path d="M44.4029 87.8918V82.2696C44.4029 79.7847 43.5158 78.4727 41.2358 78.4727C39.6148 78.4727 37.4308 79.4842 36.3448 81.0089V78.7805C36.3448 78.524 36.1918 78.48 35.9638 78.48C35.6638 78.48 33.3028 78.9125 30.7148 79.4695V80.3565C32.0858 80.0266 32.2838 80.1806 32.2838 81.6246V87.9065C32.2838 89.1452 31.7778 89.4238 30.7148 89.4238V90.1861H38.0168V89.4238C37.2328 89.4238 36.8509 89.1452 36.8509 87.9065V81.4193C37.4819 80.8843 38.2218 80.5324 38.6768 80.5324C39.6668 80.5324 39.8428 81.4193 39.8428 82.7607V87.9065C39.8428 89.1452 39.4908 89.4238 38.7498 89.4238V90.1861H45.8178V89.4238C44.8568 89.4238 44.3958 89.1452 44.3958 87.9065L44.4029 87.8918Z" fill="white"/>
<path d="M53.7241 88.9384C53.0641 88.9384 52.4851 88.308 52.4851 86.8346V79.9957H55.3741V78.7789H52.4851V75.0039H50.2271C49.7211 77.5914 48.4021 78.9328 46.2461 78.9328V79.9957H47.9181V86.8346C47.9181 89.1876 49.1861 90.485 52.0451 90.485C53.9961 90.485 55.2861 89.8986 55.7991 88.132L54.7361 87.7802C54.5091 88.4912 54.1791 88.9457 53.7241 88.9457V88.9384Z" fill="white"/>
<path d="M63.1518 78.4688C59.1198 78.4688 56.5098 80.7263 56.5098 84.6039C56.5098 88.2543 59.1198 90.4826 63.1738 90.4826C67.2288 90.4826 69.7648 88.225 69.7648 84.3475C69.7648 80.4699 67.1548 78.4688 63.1518 78.4688ZM63.5038 89.3611C62.0378 89.3611 61.2458 86.0919 61.2458 83.3065C61.2458 81.0488 61.6268 79.5828 62.7928 79.5828C63.9588 79.5828 65.0218 81.9871 65.0218 85.6155C65.0218 87.9244 64.6408 89.3685 63.5038 89.3685V89.3611Z" fill="white"/>
<path d="M88.0572 87.4657V71.9333C88.0572 71.6768 87.9041 71.6328 87.6761 71.6328C87.3761 71.6328 84.5091 72.0653 81.9211 72.6224V73.5093C83.2921 73.1795 83.4901 73.3334 83.4901 74.7774V78.655C83.0061 78.5524 82.5001 78.4791 81.9721 78.4791C77.7421 78.4791 75.5352 80.7368 75.5352 84.4311C75.5352 88.1255 77.5372 90.4857 80.7042 90.4857C82.0972 90.4857 83.2111 89.8553 84.0471 88.8658L84.4802 90.1852C84.5822 90.4637 84.5822 90.4857 84.8102 90.4857C85.0661 90.4857 87.1632 90.0533 89.4502 89.4962V88.7338C89.0992 88.8365 88.8641 88.8878 88.6661 88.8878C88.1601 88.8878 88.0572 88.4846 88.0572 87.4657ZM83.4972 88.4773C83.2192 88.6532 82.9111 88.7338 82.5591 88.7338C80.6821 88.7338 80.0002 86.1463 80.0002 83.3389C80.0002 80.7074 80.9392 79.6153 81.8772 79.6153C82.4562 79.6153 82.9402 79.8425 83.4972 80.3776V88.4846V88.4773Z" fill="white"/>
<path d="M96.8763 78.4688C92.9243 78.4688 90.4902 80.7263 90.4902 84.6039C90.4902 88.4815 92.8952 90.4826 96.8542 90.4826C99.6692 90.4826 101.59 89.1632 102.404 86.7296L101.693 86.3265C100.857 87.47 99.7432 87.9977 98.4232 87.9977C96.4732 87.9977 95.3802 86.627 94.9992 84.6772H102.602C102.602 80.7776 100.776 78.4688 96.8763 78.4688ZM97.6093 83.4604H94.8452C94.8232 83.2552 94.8232 83.0793 94.8232 82.874C94.8232 80.8436 95.5342 79.5828 96.5972 79.5828C97.7412 79.5828 98.6722 81.1001 98.6722 82.6761C98.6722 83.3871 98.2913 83.4604 97.6093 83.4604Z" fill="white"/>
<path d="M112.258 76.6734C112.258 74.9215 113.475 74.1885 114.641 74.1885C117.097 74.1885 118.292 76.087 119.304 79.0557L120.953 78.7552L120.396 74.2179C119.23 73.4335 117.126 72.8984 115.022 72.8984C111.224 72.8984 108.761 74.7749 108.761 78.1907C108.761 84.7292 117.654 83.1532 117.654 86.9062C117.654 88.3722 116.613 89.1858 115.301 89.1858C112.309 89.1858 111.371 87.8958 110.337 84.9051L108.717 85.1103L109.069 89.2152C110.337 90.0508 112.639 90.4833 114.897 90.4833C119.304 90.4833 121.54 88.4308 121.54 85.5428C121.54 78.9824 112.265 80.551 112.265 76.6734H112.258Z" fill="white"/>
<path d="M129.799 78.4688C125.766 78.4688 123.156 80.7263 123.156 84.6039C123.156 88.2543 125.766 90.4826 129.821 90.4826C133.875 90.4826 136.412 88.225 136.412 84.3475C136.412 80.4699 133.802 78.4688 129.799 78.4688ZM130.151 89.3611C128.684 89.3611 127.892 86.0919 127.892 83.3065C127.892 81.0488 128.274 79.5828 129.439 79.5828C130.605 79.5828 131.668 81.9871 131.668 85.6155C131.668 87.9244 131.287 89.3685 130.151 89.3685V89.3611Z" fill="white"/>
<path d="M150.833 87.3428V78.7812H145.005V79.5437C145.87 79.5437 146.273 79.8222 146.273 81.061V87.4748C145.613 88.0319 144.829 88.3397 144.528 88.3397C143.384 88.3397 143.289 87.4748 143.289 86.236V78.7887H137.336V79.551C138.274 79.551 138.729 79.8295 138.729 81.0683V86.6905C138.729 88.9481 139.491 90.4874 142.05 90.4874C143.67 90.4874 145.621 89.4466 146.764 87.8999H146.786V90.1796C146.786 90.4362 146.94 90.4801 147.168 90.4801C147.468 90.4801 149.829 90.0477 152.417 89.4906V88.6036C151.046 88.9335 150.848 88.7796 150.848 87.3355L150.833 87.3428Z" fill="white"/>
<path d="M157.115 80.8989C157.115 80.1146 157.745 79.5575 158.713 79.5575C160.003 79.5575 160.817 80.5691 161.55 82.4236H161.653C162.694 82.4236 164.16 82.0937 164.16 80.8256C164.16 79.7627 162.973 78.4727 159.014 78.4727C156 78.4727 153.816 79.7408 153.816 82.5042C153.816 86.631 160.861 85.8467 160.861 88.3316C160.861 88.962 160.253 89.3725 159.49 89.3725C157.694 89.3725 156.528 87.8771 156.096 86.587H155.971C154.402 86.587 153.713 87.1441 153.713 88.1044C153.713 89.5484 155.692 90.4573 159.058 90.4573C163.09 90.4573 164.432 88.8594 164.432 86.9096C164.432 82.3503 157.107 83.4131 157.107 80.9062L157.115 80.8989Z" fill="white"/>
<path d="M177.975 88.8848C177.469 88.8848 177.367 88.5328 177.367 87.4626V82.6761C177.367 79.3043 174.984 78.4688 172.095 78.4688C167.99 78.4688 166.318 80.0153 166.318 81.408C166.318 82.9253 167.609 83.3578 169.588 83.3578H169.991C170.065 81.5326 170.013 79.5828 171.23 79.5828C172.191 79.5828 172.88 80.5431 172.88 82.5735V83.8416C167.733 84.1934 165.988 85.183 165.988 87.6679C165.988 89.2878 167.227 90.4826 169.412 90.4826C171.135 90.4826 172.279 89.8522 173.166 88.8114L173.774 90.0282C173.899 90.2847 173.98 90.4826 174.229 90.4826C174.559 90.4826 176.333 90.1308 178.687 89.5224V88.7601C178.386 88.8334 178.151 88.8848 177.975 88.8848ZM172.88 87.7925C172.55 88.4229 172.066 88.6281 171.663 88.6281C171.054 88.6281 170.424 88.093 170.424 87.1328C170.424 85.6375 171.157 84.9044 172.88 84.5453V87.7852V87.7925Z" fill="white"/>
<path d="M47.9469 109.228L42.851 96.9651H35.7319V97.8521C36.8979 97.8521 37.7339 98.0571 37.7339 99.2961V111.61C37.7339 112.849 36.8979 113.054 35.7319 113.054V113.941H41.8399V113.054C40.3439 113.054 39.2809 112.849 39.2809 111.61V100.388L44.9039 113.941H47.8219L52.8149 99.6041V111.61C52.8149 112.849 51.9059 113.054 50.6369 113.054V113.941H59.2009V113.054C58.0349 113.054 57.1989 112.849 57.1989 111.61V99.2961C57.1989 98.0571 58.0349 97.8521 59.2009 97.8521V96.9651H52.0819L47.9539 109.228H47.9469Z" fill="white"/>
<path d="M72.0802 111.232V106.446C72.0802 103.074 69.6972 102.238 66.8082 102.238C62.7032 102.238 61.0312 103.785 61.0312 105.178C61.0312 106.695 62.3212 107.127 64.3012 107.127H64.7042C64.7772 105.302 64.7262 103.352 65.9432 103.352C66.9042 103.352 67.5932 104.313 67.5932 106.343V107.611C62.4462 107.963 60.7012 108.953 60.7012 111.438C60.7012 113.057 61.9402 114.252 64.1252 114.252C65.8482 114.252 66.9922 113.622 67.8792 112.581L68.4872 113.798C68.6122 114.054 68.6932 114.252 68.9422 114.252C69.2722 114.252 71.0462 113.9 73.3992 113.292V112.53C73.0922 112.603 72.8642 112.654 72.6882 112.654C72.1822 112.654 72.0802 112.302 72.0802 111.232ZM67.5932 111.562C67.2632 112.193 66.7792 112.398 66.3762 112.398C65.7672 112.398 65.1372 111.863 65.1372 110.902C65.1372 109.407 65.8702 108.674 67.5932 108.315V111.555V111.562Z" fill="white"/>
<path d="M78.1548 111.203C78.1548 110.8 78.4328 110.367 79.0638 110.243C79.4158 110.265 79.7748 110.294 80.1268 110.294C83.2938 110.294 85.6988 108.872 85.6988 106.262C85.6988 105.17 85.0908 104.261 84.2328 103.602C85.5228 104.034 86.0798 104.188 86.5418 104.188C86.9228 104.188 87.2748 103.888 87.2748 103.25C87.2748 102.693 86.9968 102.385 86.7398 102.238L82.0258 102.517C81.3658 102.341 80.7358 102.238 80.1488 102.238C76.9298 102.238 74.5258 103.682 74.5258 106.343C74.5258 108.344 75.9478 109.51 77.8468 110.015C76.1748 110.47 75.1338 111.562 75.1338 112.698C75.1338 113.915 75.8448 114.575 76.8568 114.905C75.4858 115.161 74.1738 115.792 74.1738 117.03C74.1738 118.68 77.0398 119.567 80.8378 119.567C84.2108 119.567 87.3778 117.969 87.3778 115.286C87.3778 110.675 78.1548 113.182 78.1548 111.203ZM79.8258 103.25C80.8158 103.25 81.4978 104.767 81.4978 107.23C81.4978 108.469 81.2708 109.282 80.4568 109.282C79.2398 109.282 78.7848 106.952 78.7848 105.28C78.7848 104.115 78.9908 103.25 79.8258 103.25ZM81.4468 118.401C79.6498 118.401 78.0228 117.998 78.0228 116.525C78.0228 116.092 78.2788 115.586 78.6308 115.256C81.0648 115.513 83.8808 115.234 83.8808 116.774C83.8808 117.661 82.5388 118.394 81.4468 118.394V118.401Z" fill="white"/>
<path d="M99.9 111.232V106.446C99.9 103.074 97.517 102.238 94.629 102.238C90.523 102.238 88.851 103.785 88.851 105.178C88.851 106.695 90.142 107.127 92.121 107.127H92.524C92.598 105.302 92.546 103.352 93.764 103.352C94.724 103.352 95.413 104.313 95.413 106.343V107.611C90.266 107.963 88.521 108.953 88.521 111.438C88.521 113.057 89.761 114.252 91.945 114.252C93.668 114.252 94.812 113.622 95.699 112.581L96.308 113.798C96.432 114.054 96.513 114.252 96.762 114.252C97.092 114.252 98.866 113.9 101.22 113.292V112.53C100.912 112.603 100.685 112.654 100.509 112.654C100.003 112.654 99.9 112.302 99.9 111.232ZM95.413 111.562C95.083 112.193 94.599 112.398 94.196 112.398C93.588 112.398 92.957 111.863 92.957 110.902C92.957 109.407 93.69 108.674 95.413 108.315V111.555V111.562Z" fill="white"/>
<path d="M108.183 111.664V95.6989C108.183 95.4419 108.029 95.3979 107.802 95.3979C107.494 95.3979 104.635 95.8309 102.047 96.3879V97.2749C103.418 96.9449 103.616 97.0989 103.616 98.5429V111.671C103.616 112.91 103.11 113.189 102.047 113.189V113.951H109.752V113.189C108.689 113.189 108.183 112.91 108.183 111.671V111.664Z" fill="white"/>
<path d="M124.305 111.66V106.038C124.305 103.553 123.418 102.241 121.138 102.241C119.745 102.241 117.919 102.974 116.754 104.191V95.7031C116.754 95.4461 116.6 95.4021 116.372 95.4021C116.072 95.4021 113.205 95.8351 110.617 96.3921V97.2791C111.988 96.9491 112.186 97.1031 112.186 98.5471V111.675C112.186 112.914 111.68 113.192 110.617 113.192V113.955H117.919V113.192C117.135 113.192 116.754 112.914 116.754 111.675V105.188H116.776C117.333 104.682 118.095 104.301 118.572 104.301C119.562 104.301 119.738 105.188 119.738 106.529V111.675C119.738 112.914 119.386 113.192 118.645 113.192V113.955H125.713V113.192C124.752 113.192 124.291 112.914 124.291 111.675L124.305 111.66Z" fill="white"/>
<path d="M138.189 111.232V106.446C138.189 103.074 135.806 102.238 132.918 102.238C128.812 102.238 127.14 103.785 127.14 105.178C127.14 106.695 128.431 107.127 130.41 107.127H130.814C130.887 105.302 130.836 103.352 132.053 103.352C133.013 103.352 133.702 104.313 133.702 106.343V107.611C128.555 107.963 126.811 108.953 126.811 111.438C126.811 113.057 128.05 114.252 130.234 114.252C131.957 114.252 133.101 113.622 133.988 112.581L134.597 113.798C134.721 114.054 134.802 114.252 135.051 114.252C135.381 114.252 137.155 113.9 139.509 113.292V112.53C139.208 112.603 138.974 112.654 138.798 112.654C138.292 112.654 138.189 112.302 138.189 111.232ZM133.702 111.562C133.372 112.193 132.888 112.398 132.485 112.398C131.877 112.398 131.246 111.863 131.246 110.902C131.246 109.407 131.979 108.674 133.702 108.315V111.555V111.562Z" fill="white"/>
<path d="M130.694 99.0929C131.962 99.0929 132.674 100.743 134.521 100.743C136.068 100.743 136.779 99.3719 136.779 96.4619H135.635C135.635 97.5249 135.284 97.9279 134.77 97.9279C133.531 97.9279 132.564 96.3589 130.921 96.3589C129.279 96.3589 128.59 97.7009 128.59 100.538H129.756C129.734 99.6509 129.932 99.0929 130.694 99.0929Z" fill="white"/>
<path d="M146.878 102.238C142.926 102.238 140.492 104.496 140.492 108.374C140.492 112.251 142.897 114.252 146.856 114.252C149.671 114.252 151.592 112.933 152.406 110.499L151.695 110.096C150.859 111.24 149.745 111.767 148.425 111.767C146.475 111.767 145.382 110.397 145.001 108.447H152.604C152.604 104.547 150.778 102.238 146.878 102.238ZM147.611 107.23H144.847C144.825 107.025 144.825 106.849 144.825 106.644C144.825 104.613 145.536 103.352 146.599 103.352C147.743 103.352 148.674 104.87 148.674 106.446C148.674 107.157 148.293 107.23 147.611 107.23Z" fill="white"/>
<path d="M157.552 104.665C157.552 103.88 158.183 103.323 159.151 103.323C160.441 103.323 161.255 104.335 161.988 106.189H162.09C163.132 106.189 164.598 105.859 164.598 104.591C164.598 103.528 163.41 102.238 159.451 102.238C156.438 102.238 154.253 103.506 154.253 106.27C154.253 110.397 161.299 109.612 161.299 112.097C161.299 112.728 160.69 113.138 159.928 113.138C158.131 113.138 156.966 111.643 156.533 110.353H156.409C154.84 110.353 154.15 110.91 154.15 111.87C154.15 113.314 156.13 114.223 159.495 114.223C163.527 114.223 164.869 112.625 164.869 110.675C164.869 106.116 157.545 107.179 157.545 104.672L157.552 104.665Z" fill="white"/>
<path d="M30.0649 113.01C30.1969 113.112 30.27 113.2 30.278 113.273C30.285 113.347 30.2479 113.427 30.1679 113.515C30.1159 113.567 30.036 113.633 29.933 113.721C29.823 113.809 29.676 113.889 29.493 113.962C29.31 114.036 29.0749 114.109 28.7969 114.16C28.5179 114.219 28.1809 114.241 27.7919 114.241C27.3009 114.241 26.868 114.168 26.4799 114.028C26.099 113.882 25.754 113.706 25.446 113.493C25.138 113.281 24.8589 113.046 24.6099 112.79C24.3609 112.533 24.1189 112.299 23.8989 112.086C23.8179 112.013 23.7159 111.91 23.5909 111.763C23.4669 111.617 23.3269 111.441 23.1589 111.228C23.0999 111.148 23.0339 111.111 22.9609 111.111C22.8869 111.111 22.8359 111.162 22.8069 111.243C22.6009 111.661 22.3589 112.057 22.0739 112.423C21.7879 112.79 21.4579 113.112 21.0759 113.383C20.6949 113.655 20.2699 113.867 19.7929 114.021C19.3169 114.175 18.796 114.248 18.239 114.248C17.638 114.248 17.0809 114.16 16.5679 113.984C16.0539 113.809 15.6139 113.552 15.2329 113.207C14.8519 112.863 14.5589 112.438 14.3459 111.932C14.1329 111.426 14.0229 110.84 14.0229 110.18C14.0229 109.52 14.1549 108.883 14.4269 108.304C14.6979 107.725 15.0499 107.197 15.4749 106.713C15.9079 106.229 16.3769 105.789 16.8969 105.401C17.4179 105.012 17.9239 104.683 18.4149 104.404C18.5689 104.323 18.5979 104.184 18.5099 103.994C18.1949 103.363 17.9459 102.762 17.7769 102.205C17.6009 101.648 17.5129 101.149 17.5129 100.71C17.5129 100.138 17.6379 99.6399 17.8869 99.2219C18.1359 98.8039 18.4659 98.4519 18.8839 98.1809C19.2949 97.9019 19.7709 97.7039 20.3069 97.5649C20.8419 97.4329 21.3989 97.3669 21.9709 97.3669C22.4029 97.3669 22.8139 97.4259 23.2099 97.5359C23.6059 97.6459 23.9649 97.8139 24.2799 98.0419C24.5959 98.2689 24.8519 98.5549 25.0429 98.8989C25.2329 99.2439 25.3289 99.6539 25.3289 100.123C25.3289 100.842 25.1229 101.443 24.7199 101.941C24.3169 102.44 23.7889 102.828 23.1369 103.114C23.0559 103.158 22.9969 103.195 22.9679 103.246C22.9389 103.29 22.9529 103.371 23.0119 103.48C23.3419 104.06 23.7079 104.661 24.1189 105.284C24.5299 105.899 24.9549 106.515 25.3949 107.131C25.5049 107.292 25.6219 107.307 25.7319 107.16C26.1719 106.632 26.6189 106.207 27.0739 105.885C27.5279 105.57 28.0189 105.408 28.5399 105.408C29.1189 105.408 29.5879 105.577 29.9259 105.921C30.2699 106.266 30.4389 106.728 30.4389 107.321C30.4389 107.512 30.4019 107.717 30.3289 107.93C30.2559 108.142 30.1459 108.326 29.9989 108.494C29.8519 108.663 29.6689 108.802 29.4489 108.912C29.2289 109.022 28.9729 109.081 28.6719 109.081C27.9679 109.081 27.4839 108.765 27.2279 108.128C27.1759 107.981 27.1179 107.835 27.0519 107.666C26.9859 107.505 26.8539 107.424 26.6629 107.424C26.5899 107.424 26.5019 107.453 26.3989 107.505C26.2959 107.563 26.1869 107.637 26.0769 107.725C25.9669 107.82 25.9519 107.922 26.0469 108.047C26.4799 108.648 26.8979 109.227 27.3229 109.77C27.7409 110.319 28.1289 110.811 28.4809 111.25C28.8329 111.69 29.1479 112.057 29.4269 112.365C29.7059 112.665 29.911 112.87 30.058 112.988L30.0649 113.01ZM20.8859 111.082C21.1499 111.082 21.4059 111.052 21.6559 111.001C21.8979 110.942 22.1249 110.869 22.3299 110.781C22.4619 110.723 22.528 110.649 22.528 110.561C22.528 110.473 22.4989 110.393 22.4549 110.312C22.1909 109.968 21.9119 109.586 21.6259 109.176C21.3399 108.765 21.0469 108.333 20.7539 107.878C20.4609 107.424 20.167 106.962 19.881 106.486C19.595 106.009 19.3239 105.54 19.0679 105.071C19.0239 104.99 18.9719 104.946 18.9059 104.946C18.8399 104.946 18.7739 104.976 18.7159 105.042C18.3779 105.35 18.114 105.731 17.924 106.2C17.733 106.662 17.6379 107.175 17.6379 107.739C17.6379 108.252 17.7189 108.714 17.8799 109.125C18.0409 109.535 18.268 109.894 18.562 110.18C18.855 110.466 19.192 110.693 19.588 110.855C19.984 111.016 20.4169 111.089 20.8859 111.089V111.082ZM22.7849 98.5619C22.6309 98.5619 22.4769 98.5769 22.3149 98.6059C22.1539 98.6349 22.0149 98.7009 21.8759 98.7889C21.7439 98.8849 21.6339 99.0089 21.5459 99.1699C21.4579 99.3319 21.4139 99.5439 21.4139 99.8009C21.4139 100.079 21.5089 100.438 21.6919 100.886C21.8759 101.333 22.1249 101.853 22.4249 102.432C22.4769 102.513 22.5279 102.564 22.5789 102.579C22.6309 102.594 22.711 102.579 22.821 102.528C23.159 102.352 23.4299 102.168 23.6279 101.97C23.8259 101.773 23.9799 101.575 24.0899 101.369C24.1999 101.171 24.2659 100.974 24.3019 100.783C24.3389 100.592 24.3539 100.416 24.3539 100.263C24.3539 100.05 24.3169 99.837 24.2509 99.632C24.1849 99.427 24.082 99.2439 23.95 99.0899C23.818 98.9279 23.6499 98.8039 23.4519 98.7089C23.2539 98.6129 23.0269 98.5619 22.7699 98.5619H22.7849Z" fill="white"/>
<path d="M111.076 0.386719H68.4059C68.3899 0.386719 68.377 0.399849 68.377 0.416039V4.83607C68.377 4.85226 68.3899 4.86539 68.4059 4.86539H111.076C111.092 4.86539 111.105 4.85226 111.105 4.83607V0.416039C111.105 0.399849 111.092 0.386719 111.076 0.386719Z" fill="white"/>
<path d="M118.534 8.40193H60.797C60.746 8.40193 60.687 8.40193 60.629 8.40193C57.176 8.40193 54.375 11.2019 54.375 14.6544C54.375 18.1069 57.176 20.9069 60.629 20.9069C64.082 20.9069 66.721 18.2681 66.875 14.9476H62.762C62.63 15.8639 61.846 16.5676 60.893 16.5676C59.844 16.5676 59.001 15.7173 59.001 14.6764C59.001 13.6355 59.793 12.8805 60.79 12.8292H60.797H61.311H68.188V45.7192L76.458 52.2576V45.2134L73.87 43.1244V32.4591H76.458V26.683H73.87V12.8292H77.389V32.4591V52.9906L83.085 57.4913V32.4518L81.025 29.5564L83.085 26.6684V12.8219H86.627V60.2987L89.442 62.5124L92.272 60.2767V58.8474L92.265 57.0588V12.8219H95.798L95.732 57.5426L101.429 53.042V12.8219H104.948L104.963 50.2492L110.549 45.8365L110.564 12.8219H118.534C119.457 12.9465 120.168 13.7308 120.168 14.6837C120.168 15.7319 119.318 16.5749 118.277 16.5749C117.316 16.5749 116.525 15.8639 116.4 14.9329H112.03C112.184 18.2461 114.919 20.8923 118.277 20.8923C121.635 20.8923 124.531 18.0922 124.531 14.6397C124.531 11.1873 121.877 8.53383 118.541 8.39453L118.534 8.40193Z" fill="white"/>
</svg>
