<svg width="100" height="24" viewBox="0 0 100 24" fill="none" xmlns="http://www.w3.org/2000/svg">
<g clip-path="url(#clip0_18_131)">
<mask id="mask0_18_131" style="mask-type:luminance" maskUnits="userSpaceOnUse" x="0" y="0" width="100" height="24">
<path d="M100 0.567383H0V23.5897H100V0.567383Z" fill="white"/>
</mask>
<g mask="url(#mask0_18_131)">
<path d="M7.50472 15.0931C8.20827 15.0931 8.7711 14.9057 9.16197 14.5152L10.1001 13.5781C10.5378 13.1407 11.1319 12.8908 11.7574 12.8908H14.4935C14.4935 14.6714 13.8524 16.124 12.5703 17.2798C11.2883 18.42 9.64665 18.9978 7.62977 18.9978C5.26891 18.9978 3.40838 18.2638 2.04815 16.78C0.687931 15.2962 0 13.2501 0 10.6261V10.423C0 8.78308 0.297061 7.3305 0.906815 6.08101C1.51657 4.83149 2.39212 3.86312 3.53346 3.1915C4.6748 2.51989 6.01937 2.17627 7.58286 2.17627C9.69356 2.17627 11.3665 2.76979 12.6172 3.92559C13.8524 5.09701 14.4778 6.67451 14.4778 8.68937H9.72485C9.72485 7.84597 9.52155 7.20555 9.11506 6.75261C8.70857 6.29967 8.16136 6.08101 7.45781 6.08101C6.14447 6.08101 5.37835 6.90879 5.15948 8.58004C5.09696 9.11108 5.05003 9.84515 5.05003 10.7667C5.05003 12.391 5.23763 13.5313 5.6285 14.156C6.01937 14.7808 6.64478 15.1087 7.48905 15.1087" fill="#EBEBEB"/>
<path d="M24.4841 18.9979C21.9981 18.9979 19.9656 18.2482 18.4334 16.7643C16.8856 15.2806 16.1194 13.3438 16.1194 10.9697V10.548C16.1194 8.89239 16.4321 7.42423 17.0419 6.15907C17.6516 4.89396 18.5585 3.90996 19.7311 3.20712C20.9193 2.50426 22.3108 2.16064 23.9368 2.16064C26.2195 2.16064 28.0175 2.86349 29.3465 4.28482C30.6754 5.70613 31.3321 7.67413 31.3321 10.2044V12.1724H21.2633C21.4509 13.0783 21.8418 13.7968 22.4515 14.3122C23.0613 14.8276 23.8586 15.0932 24.828 15.0932C25.7192 15.0932 26.5009 14.9213 27.1732 14.5777C28.1739 14.0623 29.409 14.3903 30.1438 15.2493L30.8943 16.1396C30.2689 17.0142 29.3621 17.7015 28.2208 18.2169C27.0638 18.7323 25.813 18.9822 24.4841 18.9822M23.9056 6.04974C22.4203 6.04974 21.5447 7.03377 21.2633 8.9861H26.3758V8.59563C26.3915 7.78346 26.1883 7.15872 25.7661 6.70578C25.3283 6.25278 24.7186 6.03412 23.9212 6.03412" fill="#EBEBEB"/>
<path d="M58.5523 18.9979C56.0665 18.9979 54.034 18.2482 52.5015 16.7643C50.9539 15.2806 50.1878 13.3438 50.1878 10.9697V10.548C50.1878 8.89239 50.5005 7.42423 51.1101 6.15907C51.7201 4.89396 52.6268 3.90996 53.7992 3.20712C54.9879 2.50426 56.3793 2.16064 58.0051 2.16064C60.2881 2.16064 62.0857 2.86349 63.4148 4.28482C64.7439 5.70613 65.4006 7.67413 65.4006 10.2044V12.1724H55.3317C55.5193 13.0783 55.9103 13.7968 56.5198 14.3122C57.1298 14.8276 57.927 15.0932 58.8966 15.0932C59.8656 15.0932 60.6942 14.8901 61.3981 14.484C62.2424 13.9998 63.2896 14.1716 63.9153 14.9057L64.9625 16.1396C64.3372 17.0142 63.4306 17.7015 62.2891 18.2169C61.1324 18.7323 59.8814 18.9822 58.5523 18.9822M57.9742 6.04974C56.4889 6.04974 55.6131 7.03377 55.3317 8.9861H60.4442V8.59563C60.46 7.78346 60.2566 7.15872 59.8347 6.70578C59.3966 6.25278 58.787 6.03412 57.9894 6.03412" fill="#EBEBEB"/>
<path d="M75.9381 14.1404C75.9381 13.703 75.7196 13.3594 75.2657 13.1095C74.8124 12.844 73.9528 12.5785 72.7018 12.2974C71.4356 12.0162 70.4036 11.6569 69.575 11.1884C68.7464 10.7354 68.1207 10.1732 67.6988 9.5328C67.2611 8.87677 67.0578 8.14269 67.0578 7.29929C67.0578 5.81546 67.6673 4.58158 68.9026 3.61321C70.1379 2.64483 71.748 2.16064 73.7338 2.16064C75.8757 2.16064 77.5953 2.64483 78.893 3.61321C80.1907 4.58158 80.8474 5.86232 80.8474 7.43985H77.5487C76.7358 7.43985 75.9224 7.04939 75.5319 6.33088C75.2191 5.76861 74.6095 5.48748 73.718 5.48748C73.1866 5.48748 72.749 5.62805 72.3889 5.92479C72.0294 6.22155 71.8418 6.58083 71.8418 7.03377C71.8418 7.48671 72.0608 7.84594 72.4985 8.12707C72.9361 8.40821 73.6399 8.64249 74.6095 8.8143C75.5786 9.00172 76.4229 9.20476 77.1577 9.45471C79.5968 10.2981 80.8164 11.7975 80.8164 13.9686C80.8164 15.4524 80.1597 16.655 78.8463 17.5921C77.5329 18.5293 75.8286 18.9822 73.7338 18.9822C72.3423 18.9822 71.107 18.7323 70.0127 18.2326C68.9183 17.7327 68.074 17.0455 67.464 16.1865C66.8544 15.3274 66.5416 14.4215 66.5416 13.4688H69.7469C70.466 13.4688 71.1699 13.8436 71.498 14.4996C71.6232 14.7495 71.7951 14.9525 72.0137 15.1088C72.4985 15.4524 73.1085 15.6242 73.859 15.6242C74.5466 15.6242 75.0629 15.4836 75.4067 15.2025C75.7505 14.9213 75.9224 14.5621 75.9224 14.1091" fill="#EBEBEB"/>
<path d="M38.4614 23.5895V19.1069H33.427C33.7084 21.6372 35.8504 23.5895 38.4614 23.5895Z" fill="#EBEBEB"/>
<path d="M46.7794 4.37854C45.6694 2.91036 44.1059 2.16064 42.1046 2.16064C40.5255 2.16064 39.2435 2.75416 38.2741 3.95682C38.196 3.09778 37.4767 2.4574 36.6168 2.4574H33.3961V19.0916H38.4617V17.3579C39.4311 18.4512 40.6506 18.9979 42.1359 18.9979C44.0746 18.9979 45.6068 18.2482 46.7325 16.7331C47.8738 15.2337 48.4367 13.2189 48.4367 10.6886V10.4543C48.4367 7.87718 47.8738 5.8467 46.7638 4.36292M43.3711 10.9072C43.3241 13.6874 42.4955 15.0775 40.8851 15.0775C39.6969 15.0775 38.8995 14.6245 38.4461 13.7343V7.34614C38.8526 6.48706 39.65 6.04974 40.8539 6.04974C42.5424 6.04974 43.3711 7.48671 43.3711 10.3762V10.9229V10.9072Z" fill="#EBEBEB"/>
<path d="M92.5421 23.5895C95.1532 23.5895 97.2952 21.6215 97.5766 19.1069H92.5421V23.5895Z" fill="#EBEBEB"/>
<path d="M95.0127 2.4574C93.9807 2.4574 93.0893 3.19149 92.8707 4.1911C91.8702 2.83225 90.5411 2.14502 88.8682 2.14502C86.8981 2.14502 85.3504 2.87911 84.2247 4.33167C83.0989 5.79987 82.536 7.81467 82.536 10.3918C82.536 13.1407 83.0989 15.2649 84.2404 16.7487C85.3813 18.2325 86.9138 18.9822 88.821 18.9822C90.3063 18.9822 91.5416 18.4356 92.5112 17.3266V19.0759H97.5923V2.4574H94.9812H95.0127ZM92.5421 13.7655C92.1045 14.6402 91.3073 15.0931 90.1344 15.0931C88.4457 15.0931 87.6172 13.6405 87.6172 10.7198V9.81391C87.7581 7.29926 88.6024 6.04977 90.1658 6.04977C91.3225 6.04977 92.1202 6.48709 92.5421 7.34611V13.7655Z" fill="#EBEBEB"/>
<path d="M99.0461 0.567383C98.5147 0.567383 98.0923 0.989094 98.0923 1.52014C98.0923 2.05118 98.5147 2.47289 99.0461 2.47289C99.5776 2.47289 100 2.05118 100 1.52014C100 0.989094 99.5776 0.567383 99.0461 0.567383ZM99.0461 2.30108C98.6085 2.30108 98.2642 1.94185 98.2642 1.52014C98.2642 1.09843 98.6242 0.739191 99.0461 0.739191C99.468 0.739191 99.8281 1.09843 99.8281 1.52014C99.8281 1.94185 99.468 2.30108 99.0461 2.30108Z" fill="#EBEBEB"/>
<path d="M99.5933 2.06696H99.3119L99.14 1.78582C99.14 1.78582 99.1091 1.73896 99.1091 1.72334C99.1091 1.70772 99.0776 1.69211 99.0776 1.67649C99.0776 1.67649 99.0462 1.66087 99.0462 1.64524C99.0462 1.64524 99.0152 1.64524 98.9995 1.64524H98.9366V2.06696H98.6866V0.973633H99.0776C99.3433 0.973633 99.4686 1.06735 99.4686 1.27039C99.4686 1.30163 99.4686 1.34849 99.4529 1.37973C99.4529 1.41096 99.4214 1.4422 99.4057 1.47344C99.3905 1.50468 99.3591 1.5203 99.3276 1.53591C99.2967 1.55153 99.2652 1.56715 99.2338 1.58277C99.2338 1.58277 99.2652 1.59839 99.281 1.61401C99.281 1.61401 99.3119 1.64524 99.3276 1.66087C99.3276 1.66087 99.3591 1.69211 99.3748 1.70772C99.3748 1.72334 99.4057 1.73896 99.4057 1.75458L99.6091 2.08258L99.5933 2.06696ZM98.9214 1.16106V1.45782H99.0305C99.0305 1.45782 99.1243 1.45782 99.1557 1.41096C99.1872 1.37973 99.2029 1.34849 99.2029 1.30163C99.2029 1.20792 99.14 1.16106 99.0305 1.16106H98.9214Z" fill="#EBEBEB"/>
</g>
</g>
<defs>
<clipPath id="clip0_18_131">
<rect width="100" height="23.0223" fill="white" transform="translate(0 0.567383)"/>
</clipPath>
</defs>
</svg>
