<svg width="100" height="112" viewBox="0 0 100 112" fill="none" xmlns="http://www.w3.org/2000/svg">
<g clip-path="url(#clip0_18_101)">
<mask id="mask0_18_101" style="mask-type:luminance" maskUnits="userSpaceOnUse" x="0" y="0" width="100" height="112">
<path d="M100 0.5H0V111.59H100V0.5Z" fill="white"/>
</mask>
<g mask="url(#mask0_18_101)">
<path d="M2.07313 35.2091C0.25092 34.5024 -0.532789 32.3719 0.386224 30.6518C4.68783 22.6067 18.2129 2.46245 46.5424 0.507293C48.3909 0.379288 49.969 1.84697 49.9985 3.69516V3.74777C50.0286 5.4732 48.6896 6.90933 46.9659 7.02681C21.3935 8.78206 9.70988 26.7572 6.14102 33.6642C5.37666 35.1442 3.62824 35.8123 2.07313 35.2108V35.2091Z" fill="#EBEBEB"/>
<path d="M97.9259 76.8808C99.7482 77.5879 100.532 79.7181 99.6131 81.4382C95.3114 89.4833 81.7865 109.628 53.4567 111.583C51.6082 111.711 50.0305 110.243 50.0005 108.395V108.342C49.9705 106.617 51.3095 105.181 53.0334 105.063C78.6058 103.308 90.2896 85.3346 93.8581 78.4276C94.6228 76.9477 96.371 76.2794 97.9259 76.8808Z" fill="#EBEBEB"/>
<path d="M24.9676 49.3054C24.2445 48.4776 23.2505 47.7892 22.0127 47.261C20.7769 46.737 19.2328 46.4688 17.4198 46.4688C14.1689 46.4688 11.4516 47.3588 9.34265 49.118C7.23583 50.871 5.77505 53.3538 5.00401 56.4962C4.88939 56.9538 4.76019 57.532 4.61848 58.2327L4.27881 59.917C3.90162 62.0443 4.06625 63.8908 4.77061 65.409C5.47287 66.9272 6.58149 68.102 8.0673 68.9005C9.53437 69.6884 11.2578 70.0879 13.1937 70.0879C15.1296 70.0879 16.7947 69.824 18.1929 69.302C19.5933 68.7799 20.7728 68.102 21.7022 67.287C22.6212 66.4758 23.361 65.6293 23.9007 64.7683C24.4321 63.918 24.8072 63.1548 25.0177 62.4894C25.1594 61.963 25.001 61.6264 24.8426 61.4371C24.6197 61.1751 24.3133 61.0419 23.9299 61.0419H20.1247C19.7746 61.0419 19.4745 61.1272 19.2349 61.2937C19.0057 61.4535 18.7973 61.7073 18.5972 62.0734C18.0408 63.1383 17.3489 63.8971 16.5404 64.332C15.7194 64.7707 14.7774 64.993 13.7397 64.993C12.4664 64.993 11.5891 64.6104 11.0598 63.8245C10.52 63.0259 10.3971 61.6763 10.6868 59.84L10.9848 58.4385C11.0952 57.902 11.2098 57.378 11.3182 56.8787C11.7787 55.0342 12.529 53.6719 13.5521 52.8322C14.569 51.9959 15.7423 51.5698 17.0364 51.5698C18.0763 51.5698 18.8765 51.8008 19.4182 52.254C19.9392 52.6947 20.206 53.4351 20.2081 54.4913C20.2456 54.8618 20.3748 55.1485 20.5915 55.346C20.8103 55.546 21.1062 55.6477 21.4751 55.6477H25.3219C25.6866 55.6477 26.0096 55.5272 26.2826 55.2899C26.5618 55.0487 26.7223 54.7223 26.7556 54.3334C26.8453 53.6075 26.7494 52.7862 26.4681 51.8942C26.1888 51.0042 25.6803 50.1349 24.9635 49.3092L24.9676 49.3054Z" fill="#EBEBEB"/>
<path d="M36.8228 46.895H33.3136C32.9531 46.895 32.6176 47.0218 32.3154 47.2693C32.0132 47.5188 31.8257 47.8287 31.7569 48.1843L27.5287 68.2371C27.4537 68.6177 27.5287 68.963 27.7412 69.2351C27.9601 69.516 28.2768 69.6637 28.6644 69.6637H32.1737C32.5675 69.6637 32.9114 69.5349 33.201 69.2831C33.4823 69.0356 33.6616 68.7276 33.7303 68.3741L37.9586 48.3216C38.0336 47.9451 37.9711 47.6145 37.7752 47.3358C37.6335 47.1362 37.3501 46.8971 36.8228 46.8971V46.895Z" fill="#EBEBEB"/>
<path d="M39.7835 38.5605C39.5501 38.288 39.2292 38.1445 38.8499 38.1445H35.0031C34.6113 38.1445 34.2654 38.2735 33.9757 38.5272C33.6965 38.7747 33.5152 39.0803 33.4464 39.4317L32.7691 42.5011C32.6941 42.9191 32.7691 43.2643 32.9921 43.5242C33.2109 43.7842 33.5256 43.9214 33.9049 43.9214H37.7955C38.1518 43.9214 38.4832 43.805 38.7811 43.5762C39.0896 43.3392 39.2813 43.0189 39.35 42.6363L40.0273 39.5711C40.1044 39.1864 40.019 38.8391 39.7835 38.5584V38.5605Z" fill="#EBEBEB"/>
<path d="M60.2228 49.3054C59.4998 48.4776 58.5056 47.7892 57.2678 47.261C56.032 46.737 54.4877 46.4688 52.6746 46.4688C49.4237 46.4688 46.7065 47.3588 44.5977 49.118C42.4909 50.871 41.03 53.3538 40.259 56.4962C40.1444 56.9538 40.0152 57.532 39.8735 58.2327L39.5338 59.917C39.1566 62.0443 39.3213 63.8908 40.0256 65.409C40.7279 66.9272 41.8365 68.102 43.3223 68.9005C44.7894 69.6884 46.5127 70.0879 48.4489 70.0879C50.3845 70.0879 52.0499 69.824 53.448 69.302C54.8484 68.7799 56.0276 68.102 56.9574 67.287C57.876 66.4758 58.616 65.6293 59.1559 64.7683C59.6872 63.918 60.062 63.1548 60.2727 62.4894C60.4145 61.963 60.2562 61.6264 60.0978 61.4371C59.8746 61.1751 59.5685 61.0419 59.185 61.0419H55.3797C55.0295 61.0419 54.7293 61.1272 54.4901 61.2937C54.2605 61.4535 54.0523 61.7073 53.8523 62.0734C53.2959 63.1383 52.6039 63.8971 51.7957 64.332C50.9743 64.7707 50.0325 64.993 48.9947 64.993C47.7214 64.993 46.8441 64.6104 46.3148 63.8245C45.7751 63.0259 45.6521 61.6763 45.9418 59.84L46.2398 58.4385C46.3502 57.902 46.4649 57.378 46.5732 56.8787C47.0337 55.0342 47.7839 53.6719 48.8073 52.8322C49.8242 51.9959 50.9971 51.5698 52.2915 51.5698C53.3312 51.5698 54.1312 51.8008 54.6731 52.254C55.1942 52.6947 55.461 53.4351 55.463 54.4913C55.5007 54.8618 55.6296 55.1485 55.8465 55.346C56.0654 55.546 56.3613 55.6477 56.7303 55.6477H60.5768C60.9414 55.6477 61.2644 55.5272 61.5375 55.2899C61.817 55.0487 61.9773 54.7223 62.0107 54.3334C62.1003 53.6075 62.0044 52.7862 61.723 51.8942C61.4441 51.0042 60.9356 50.1349 60.2184 49.3092L60.2228 49.3054Z" fill="#EBEBEB"/>
<path d="M74.7307 39.2511C74.5786 39.0557 74.2886 38.8228 73.768 38.8228H70.2585C69.8958 38.8228 69.5627 38.9517 69.275 39.2054C68.9956 39.4529 68.8145 39.7585 68.7457 40.112L62.7835 68.2355C62.7084 68.6162 62.7835 68.961 62.9961 69.2336C63.215 69.5145 63.5317 69.6622 63.9195 69.6622H67.4285C67.8227 69.6622 68.1665 69.5329 68.4561 69.2815C68.7375 69.0341 68.9166 68.7261 68.9854 68.3726L74.9472 40.2493C75.0222 39.8729 74.9472 39.5277 74.7326 39.2491L74.7307 39.2511Z" fill="#EBEBEB"/>
<path d="M96.908 51.1974C96.2577 49.7025 95.1763 48.5275 93.6945 47.7019C92.2257 46.8846 90.3729 46.4688 88.185 46.4688C85.9967 46.4688 83.8712 46.8805 82.1831 47.6915C80.4955 48.5025 79.0867 49.6608 77.9986 51.1291C76.9216 52.5887 76.1129 54.3354 75.5981 56.3175C75.4567 56.8332 75.3042 57.4695 75.1502 58.2075C74.9938 58.948 74.8732 59.5761 74.7875 60.0918C74.4688 62.0734 74.6252 63.8371 75.2543 65.332C75.8858 66.8419 76.9608 68.0269 78.4446 68.8526C79.9139 69.67 81.7666 70.086 83.9565 70.086C86.3342 70.086 88.3976 69.6739 90.0833 68.8632C91.7754 68.0502 93.1695 66.8855 94.2281 65.3983C95.2766 63.9242 96.0703 62.1857 96.585 60.2351C96.7269 59.7131 96.8727 59.0768 97.0122 58.3407C97.1516 57.6085 97.2771 56.9867 97.3938 56.4608C97.7124 54.454 97.5478 52.6821 96.9061 51.1954L96.908 51.1974ZM84.3797 65.2032C82.9729 65.2032 82.0519 64.7935 81.5642 63.9489C81.0582 63.0758 80.9516 61.7451 81.2475 59.9814C81.3037 59.5678 81.4083 59.0206 81.5603 58.3552C81.7143 57.6816 81.848 57.1305 81.9603 56.7039C82.3918 54.9678 83.125 53.6245 84.1419 52.7136C85.1444 51.8109 86.3613 51.3557 87.7637 51.3557C89.1666 51.3557 90.0959 51.7736 90.6001 52.6322C91.1192 53.5204 91.2335 54.8429 90.9419 56.5567C90.8562 56.9809 90.7439 57.532 90.6044 58.2119C90.4645 58.8811 90.3395 59.4303 90.2272 59.8506C89.7666 61.6182 89.0267 62.9678 88.0267 63.8681C87.0388 64.7562 85.8136 65.2051 84.3841 65.2051L84.3797 65.2032Z" fill="#EBEBEB"/>
</g>
</g>
<defs>
<clipPath id="clip0_18_101">
<rect width="100" height="111.09" fill="white" transform="translate(0 0.5)"/>
</clipPath>
</defs>
</svg>
