<svg width="100" height="45" viewBox="0 0 100 45" fill="none" xmlns="http://www.w3.org/2000/svg">
<g clip-path="url(#clip0_18_114)">
<path d="M0.00237193 22.0729C0.203623 16.5548 1.762 11.5251 5.6533 7.44597C8.57276 4.38595 11.9623 1.97408 16.1541 0.911389C18.4937 0.318656 20.8199 0.331857 23.0734 1.31402C26.03 2.60246 27.5486 4.92849 27.7724 8.07039C28.0875 12.4743 26.2776 16.0452 23.182 19.0472C21.1457 21.0221 18.8207 22.5257 15.9979 23.1316C14.0079 23.5593 12.0563 23.4181 10.1814 22.5996C8.0299 21.6597 7.18652 19.7323 7.93457 17.5158C8.80445 14.939 11.5134 12.9271 14.1138 12.9429C15.2577 12.9509 16.3845 13.1489 16.9181 14.2948C17.49 15.5211 17.0399 16.638 16.2508 17.6545C16.08 17.8736 15.5278 18.065 15.9171 18.4122C16.2905 18.7448 16.5301 18.2458 16.7459 18.0162C17.3497 17.3759 17.6913 16.5957 17.8316 15.7324C18.0501 14.3951 17.4358 13.1779 16.2124 12.5627C15.0234 11.9647 13.7523 11.8235 12.4852 12.1826C9.68361 12.9759 7.64859 14.6736 6.72442 17.4815C5.73934 20.4716 7.39702 23.3864 10.4688 24.1283C11.0275 24.263 11.2248 24.4689 11.2817 25.0563C11.475 27.0207 12.231 28.7804 13.4558 30.3355C15.2021 32.5508 17.0452 34.6654 19.435 36.2377C19.9673 36.5876 20.4135 37.0549 20.7948 37.5725C22.1175 39.3718 21.3138 41.5485 19.1278 42.0607C17.7628 42.3802 16.4163 42.1849 15.0803 41.8536C11.9596 41.0773 9.36188 39.3808 7.05807 37.2198C3.67785 34.0437 1.30653 30.2629 0.362506 25.6755C0.118886 24.4913 -0.0201364 23.294 0.00237193 22.0729Z" fill="#EBEBEB"/>
<path d="M80.88 5.26645C84.5608 5.27836 87.3451 7.14894 88.2708 10.2948C88.8931 12.4109 88.7567 14.5429 87.9382 16.5587C86.033 21.2504 82.6674 24.3673 77.6415 25.5012C76.0195 25.8669 74.3989 25.6319 72.8672 24.96C70.9498 24.1191 70.2004 22.3923 70.8717 20.4108C71.67 18.0584 74.1447 16.2789 76.5532 16.3475C77.5144 16.3753 78.4504 16.5851 78.8928 17.537C79.3745 18.5746 79.041 19.5515 78.379 20.428C78.2875 20.5495 78.1697 20.6537 78.0599 20.7607C77.9235 20.8927 77.8121 21.0471 77.9552 21.2174C78.1367 21.434 78.3153 21.2914 78.4584 21.1488C79.4184 20.1944 79.9504 19.0802 79.6316 17.7059C79.3176 16.3528 78.2676 15.8234 77.0365 15.603C73.5356 14.9733 69.541 18.3462 69.549 21.896C69.5544 24.0689 71.0055 25.8563 73.2244 26.354C73.6402 26.4478 73.7952 26.5758 73.8323 27.0115C74.0375 29.4721 75.3192 31.4074 76.8934 33.2134C78.0532 34.5441 79.258 35.8114 80.7225 36.8187C81.1553 37.1158 81.5631 37.4628 81.9312 37.8363C82.7283 38.6456 83.2513 39.5815 82.7785 40.7419C82.3019 41.9128 81.3089 42.3776 80.1041 42.449C78.0877 42.5678 76.2353 41.9631 74.4533 41.1078C73.3384 40.5729 72.3374 39.8549 71.3496 39.1142C71.0173 38.8648 71.0055 38.6468 71.1655 38.288C71.7801 36.9084 71.984 35.4628 71.6396 33.9829C71.0426 31.4127 68.2622 29.8972 65.6511 30.7262C65.177 30.8768 65.017 30.7804 64.8541 30.3368C63.1367 25.653 63.5234 21.0313 65.5029 16.5667C68.0423 10.8413 72.5253 7.26379 78.5259 5.53181C78.9046 5.42224 79.3019 5.36811 79.6937 5.32455C80.0868 5.28098 80.4853 5.28361 80.8813 5.26514L80.88 5.26645Z" fill="#EBEBEB"/>
<path d="M54.0672 38.0844C56.5419 38.3049 58.6034 37.505 60.4305 36.045C61.3217 35.3322 62.1344 34.5217 62.9926 33.7678C63.8559 33.0085 64.7734 32.3301 65.9107 32.0291C68.4686 31.3519 70.7356 33.262 70.5566 35.8878C70.4097 38.0556 69.4088 39.715 67.7087 41.0034C65.5016 42.6759 62.9369 43.5156 60.2743 44.078C56.6796 44.837 53.1088 44.8382 49.6226 43.4916C49.007 43.254 48.4164 42.957 47.8575 42.6046C46.6873 41.868 46.3787 41.0757 46.8025 39.7531C47.2766 38.272 47.8207 36.8145 48.0272 35.2595C48.6178 30.8054 48.2602 26.4318 47.0208 22.1124C46.2186 19.3137 45.0983 16.6603 43.6645 14.1297C43.4049 13.6716 43.1719 13.2042 43.0727 12.6749C42.8249 11.3574 43.4168 10.3501 44.7356 10.0492C46.8857 9.55808 48.8982 10.0082 50.7228 11.1858C53.5534 13.0128 55.3607 15.6702 56.4584 18.7751C58.3784 24.2035 57.8195 29.5618 55.7157 34.8251C55.4958 35.3744 55.2349 35.9077 54.9689 36.4343C54.7029 36.9612 54.4049 37.4708 54.0685 38.086L54.0672 38.0844Z" fill="#EBEBEB"/>
<path d="M45.6568 28.5348C45.6568 35.8444 41.2903 41.3255 35.3892 42.4686C28.8299 43.7387 22.8083 39.7058 21.5994 33.1382C20.6488 27.9698 22.0443 23.3692 25.3438 19.327C26.0733 18.4332 27.0213 17.7719 28.1772 17.4907C29.0537 17.2782 29.8309 17.4511 30.4651 18.1349C31.0847 18.8016 31.0808 19.5554 30.7921 20.3448C30.5114 21.1118 30.0573 21.7903 29.6323 22.4821C27.5205 25.917 27.6688 29.4826 29.2616 32.9916C30.7988 36.3776 34.927 36.7381 37.2362 33.7941C38.7243 31.8958 39.0672 29.6648 38.9747 27.3348C38.9017 25.5196 38.3098 23.8642 37.3764 22.3144C37.0032 21.6953 36.651 21.0603 36.4535 20.3567C35.9942 18.7276 37.1952 17.3759 38.8726 17.6544C40.112 17.8603 41.0691 18.5811 41.8226 19.5144C44.1927 22.4477 45.58 25.7718 45.6584 28.5374L45.6568 28.5348Z" fill="#EBEBEB"/>
<path d="M99.3371 29.0441C99.4165 32.1808 99.1213 35.2631 97.7443 38.1504C97.3073 39.0653 96.815 39.9497 96.1729 40.7324C94.6991 42.5291 92.7593 43.2855 90.4808 42.9251C88.1015 42.5477 86.5801 40.3614 86.7139 37.8005C86.8317 35.5272 87.4898 33.3569 87.9584 31.1524C88.6457 27.9128 89.227 24.6574 89.6678 21.3756C89.832 20.1545 90.2267 18.9875 90.8038 17.8878C91.7955 16.0001 93.669 14.9862 95.5067 15.3479C97.3445 15.7096 98.719 17.2779 98.9014 19.3941C99.1002 21.7083 99.2113 24.0316 99.3291 26.3524C99.3755 27.2488 99.3371 28.1478 99.3371 29.0468V29.0441Z" fill="#EBEBEB"/>
<path d="M99.9782 8.81746C99.9782 11.224 98.0176 13.1857 95.621 13.1818C93.2167 13.1765 91.2529 11.2174 91.2516 8.82008C91.249 6.40427 93.1661 4.46371 95.5864 4.43202C98.0202 4.40033 99.9811 6.35808 99.9795 8.81746H99.9782Z" fill="#EBEBEB"/>
</g>
<defs>
<clipPath id="clip0_18_114">
<rect width="100" height="44.0781" fill="white" transform="translate(0 0.511719)"/>
</clipPath>
</defs>
</svg>
