<svg width="246" height="31" viewBox="0 0 246 31" fill="none" xmlns="http://www.w3.org/2000/svg">
<path d="M32.2149 1.14093C28.5491 1.14093 25.2939 2.28395 22.7718 6.28595C21.1662 2.39395 17.7937 1.02295 14.4139 1.02295C11.7232 1.02295 8.46063 2.05692 6.97232 4.91592C6.67906 2.94392 4.97813 1.48492 2.98395 1.48492H0V23.6369C0 27.0089 2.73467 29.7499 6.11453 29.7499H6.98698V14.6499C6.98698 10.9339 9.21578 7.55493 12.9989 7.55493C16.782 7.55493 18.7761 10.9259 18.7761 14.6499V22.7719C18.7761 26.6269 21.8994 29.7499 25.7558 29.7499V14.6499C25.7558 10.9339 28.1019 7.67194 31.8777 7.67194C35.6534 7.67194 37.2004 10.8159 37.2004 14.5399V22.7789C37.2004 26.6349 40.3236 29.7569 44.18 29.7569V14.5399C44.18 6.07395 40.2283 1.15494 32.2222 1.15494L32.2149 1.14093Z" fill="white"/>
<path d="M61.9843 0.965088C53.0032 0.965088 47.3945 7.5991 47.3945 15.6691C47.3945 23.7391 52.8859 30.3731 62.043 30.3731C71.2001 30.3731 76.7501 23.7911 76.7501 15.6691C76.7501 7.5471 70.9728 0.965088 61.9843 0.965088ZM62.043 23.9671C56.9476 23.9671 54.3742 19.9641 54.3742 15.6691C54.3742 11.3741 57.0062 7.31308 62.043 7.31308C66.7352 7.31308 69.7118 11.4321 69.7118 15.6691C69.7118 19.9061 67.1384 23.9671 62.043 23.9671Z" fill="white"/>
<path d="M104.316 1.47998C102.19 1.47998 100.269 2.76295 99.4549 4.73495L96.9035 10.922L92.6145 22.708L88.2669 10.812L85.7522 4.79398C84.9164 2.79298 82.9588 1.48798 80.7887 1.48798H76.7637L88.8388 29.862H96.3903L108.407 1.48798H104.316V1.47998Z" fill="white"/>
<path d="M123.327 0.679932C114.17 0.679932 108.334 6.85892 108.334 15.4419C108.334 24.4799 114.111 30.4909 123.84 30.4909C128.129 30.4909 132.997 29.0029 135.974 25.9169L134.845 24.8029C133.144 23.1239 130.637 22.5449 128.393 23.3519C126.949 23.8649 125.336 24.1429 123.958 24.1429C119.038 24.1429 116.003 21.6289 115.548 18.1329H137.58C138.665 6.52193 132.77 0.679932 123.334 0.679932H123.327ZM115.658 12.3489C116.685 8.68394 119.779 6.85895 123.554 6.85895C127.557 6.85895 130.424 8.69094 130.879 12.3489H115.658Z" fill="white"/>
<path d="M173.502 1.14093C169.836 1.14093 166.581 2.28395 164.058 6.28595C162.453 2.39395 159.08 1.02295 155.7 1.02295C153.01 1.02295 149.747 2.05692 148.259 4.91592C147.966 2.94392 146.265 1.48492 144.271 1.48492H141.279V22.7639C141.279 26.6199 144.403 29.743 148.259 29.743V14.6429C148.259 10.9259 150.488 7.54694 154.271 7.54694C158.054 7.54694 160.048 10.9189 160.048 14.6429V22.7639C160.048 26.6199 163.171 29.743 167.028 29.743V14.6429C167.028 10.9259 169.374 7.66394 173.15 7.66394C176.925 7.66394 178.472 10.8089 178.472 14.5329V22.7719C178.472 26.6269 181.596 29.7499 185.452 29.7499V14.5329C185.452 6.06693 181.5 1.14795 173.494 1.14795L173.502 1.14093Z" fill="white"/>
<path d="M203.273 0.965088C194.292 0.965088 188.684 7.5991 188.684 15.6691C188.684 23.7391 194.175 30.3731 203.332 30.3731C212.489 30.3731 218.039 23.7911 218.039 15.6691C218.039 7.5471 212.262 0.965088 203.273 0.965088ZM203.332 23.9671C198.237 23.9671 195.663 19.9641 195.663 15.6691C195.663 11.3741 198.295 7.31308 203.332 7.31308C208.024 7.31308 211.001 11.4321 211.001 15.6691C211.001 19.9061 208.428 23.9671 203.332 23.9671Z" fill="white"/>
<path d="M232.947 12.412C229.34 12.185 227.683 11.151 227.683 9.32599C227.683 7.50099 229.516 6.526 232.829 6.526C233.951 6.526 235.007 6.63599 236.004 6.89999C238.819 7.65499 241.818 6.687 243.702 4.466C240.44 1.608 237.118 0.75 232.712 0.75C227.565 0.75 220.813 3.037 220.813 9.561C220.813 16.084 227.162 17.917 232.485 18.313C236.488 18.54 238.093 19.339 238.093 21.289C238.093 23.349 235.63 24.719 232.998 24.661C231.363 24.631 229.34 24.17 227.492 23.422C224.721 22.293 221.531 23.231 219.838 25.694C223.958 29.982 228.423 30.73 232.888 30.73C240.953 30.73 245.022 26.442 245.022 21.465C245.022 13.973 238.269 12.771 232.947 12.427V12.412Z" fill="white"/>
</svg>
