<svg width="100" height="30" viewBox="0 0 100 30" fill="none" xmlns="http://www.w3.org/2000/svg">
<g clip-path="url(#clip0_18_121)">
<path d="M20.7254 20.3865L29.2235 1.0498H41.4508L27.1721 28.9057H14.261L0 1.0498H12.2273L20.7254 20.3865Z" fill="white"/>
<path d="M100 13.2773V16.6751C100 21.9199 97.6384 25.1732 94.2159 27.0801C92.6826 27.9084 91.026 28.5111 89.2214 28.9024C86.962 29.3994 84.5793 29.5862 82.32 29.5862C80.0606 29.5862 77.6779 29.3994 75.4397 28.9024C69.638 27.637 64.6611 24.2392 64.6611 16.6751V13.2773C64.6611 8.03249 67.0226 4.77917 70.4451 2.89344C71.9573 2.04398 73.6385 1.44125 75.4397 1.05001C77.6779 0.553021 80.0606 0.366211 82.32 0.366211C84.5793 0.366211 86.962 0.553021 89.2214 1.05001C95.0231 2.31538 100 5.73437 100 13.2773ZM89.1191 13.9611C89.1191 11.7017 88.2697 10.3553 87.0043 9.54812C85.7002 8.77973 84.04 8.533 82.32 8.533C78.9609 8.533 75.5208 9.46705 75.5208 13.9646V15.9948C75.5208 18.2542 76.3491 19.6429 77.6567 20.4078C78.9609 21.1762 80.6422 21.4441 82.32 21.4441C85.7178 21.4441 89.1191 20.51 89.1191 15.9913V13.9611Z" fill="white"/>
<path d="M55.4862 28.8849H43.4916V18.3072C43.4916 17.7185 44.0168 17.1898 44.8239 16.9642L55.4862 13.9858V28.8849Z" fill="white"/>
<g opacity="0.5">
<path d="M47.2983 1.37451H59.2929V11.9522C59.2929 12.5408 58.7677 13.0696 57.9606 13.2951L47.2983 16.2735V1.37451Z" fill="white"/>
</g>
<path d="M20.7254 20.3865L29.2235 1.0498H41.4508L27.1721 28.9057H14.261L0 1.0498H12.2273L20.7254 20.3865Z" fill="white"/>
<path d="M100 13.2773V16.6751C100 21.9199 97.6384 25.1732 94.2159 27.0801C92.6826 27.9084 91.026 28.5111 89.2214 28.9024C86.962 29.3994 84.5793 29.5862 82.32 29.5862C80.0606 29.5862 77.6779 29.3994 75.4397 28.9024C69.638 27.637 64.6611 24.2392 64.6611 16.6751V13.2773C64.6611 8.03249 67.0226 4.77917 70.4451 2.89344C71.9573 2.04398 73.6385 1.44125 75.4397 1.05001C77.6779 0.553021 80.0606 0.366211 82.32 0.366211C84.5793 0.366211 86.962 0.553021 89.2214 1.05001C95.0231 2.31538 100 5.73437 100 13.2773ZM89.1191 13.9611C89.1191 11.7017 88.2697 10.3553 87.0043 9.54812C85.7002 8.77973 84.04 8.533 82.32 8.533C78.9609 8.533 75.5208 9.46705 75.5208 13.9646V15.9948C75.5208 18.2542 76.3491 19.6429 77.6567 20.4078C78.9609 21.1762 80.6422 21.4441 82.32 21.4441C85.7178 21.4441 89.1191 20.51 89.1191 15.9913V13.9611Z" fill="white"/>
<path d="M55.4862 28.8849H43.4916V18.3072C43.4916 17.7185 44.0168 17.1898 44.8239 16.9642L55.4862 13.9858V28.8849Z" fill="white"/>
</g>
<defs>
<clipPath id="clip0_18_121">
<rect width="100" height="29.2235" fill="white" transform="translate(0 0.366211)"/>
</clipPath>
</defs>
</svg>
